G04 MADE WITH FRITZING*
G04 WWW.FRITZING.ORG*
G04 DOUBLE SIDED*
G04 HOLES PLATED*
G04 CONTOUR ON CENTER OF CONTOUR VECTOR*
%ASAXBY*%
%FSLAX23Y23*%
%MOIN*%
%OFA0B0*%
%SFA1.0B1.0*%
%ADD10C,0.074000*%
%ADD11C,0.078000*%
%ADD12C,0.024000*%
%ADD13R,0.001000X0.001000*%
%LNCOPPER1*%
G90*
G70*
G54D10*
X336Y776D03*
X386Y876D03*
X436Y776D03*
X536Y776D03*
X636Y776D03*
X486Y876D03*
X586Y876D03*
X686Y876D03*
G54D11*
X780Y96D03*
X680Y96D03*
X580Y96D03*
X480Y95D03*
X380Y96D03*
X280Y96D03*
X180Y96D03*
X80Y96D03*
X980Y96D03*
X880Y96D03*
G54D12*
X367Y876D02*
X250Y878D01*
D02*
X250Y878D02*
X279Y115D01*
D02*
X536Y756D02*
X537Y685D01*
D02*
X537Y685D02*
X705Y679D01*
D02*
X705Y679D02*
X756Y816D01*
D02*
X756Y816D02*
X771Y971D01*
D02*
X771Y971D02*
X177Y984D01*
D02*
X177Y984D02*
X180Y115D01*
G54D13*
X650Y912D02*
X723Y912D01*
X650Y911D02*
X723Y911D01*
X650Y910D02*
X723Y910D01*
X650Y909D02*
X723Y909D01*
X650Y908D02*
X723Y908D01*
X650Y907D02*
X723Y907D01*
X650Y906D02*
X723Y906D01*
X650Y905D02*
X723Y905D01*
X650Y904D02*
X723Y904D01*
X650Y903D02*
X723Y903D01*
X650Y902D02*
X723Y902D01*
X650Y901D02*
X723Y901D01*
X650Y900D02*
X723Y900D01*
X650Y899D02*
X723Y899D01*
X650Y898D02*
X723Y898D01*
X650Y897D02*
X723Y897D01*
X650Y896D02*
X723Y896D01*
X650Y895D02*
X681Y895D01*
X691Y895D02*
X723Y895D01*
X650Y894D02*
X678Y894D01*
X694Y894D02*
X723Y894D01*
X650Y893D02*
X676Y893D01*
X696Y893D02*
X723Y893D01*
X650Y892D02*
X674Y892D01*
X698Y892D02*
X723Y892D01*
X650Y891D02*
X673Y891D01*
X699Y891D02*
X723Y891D01*
X650Y890D02*
X672Y890D01*
X700Y890D02*
X723Y890D01*
X650Y889D02*
X671Y889D01*
X701Y889D02*
X723Y889D01*
X650Y888D02*
X670Y888D01*
X702Y888D02*
X723Y888D01*
X650Y887D02*
X669Y887D01*
X703Y887D02*
X723Y887D01*
X650Y886D02*
X669Y886D01*
X703Y886D02*
X723Y886D01*
X650Y885D02*
X668Y885D01*
X704Y885D02*
X723Y885D01*
X650Y884D02*
X668Y884D01*
X705Y884D02*
X723Y884D01*
X650Y883D02*
X667Y883D01*
X705Y883D02*
X723Y883D01*
X650Y882D02*
X667Y882D01*
X705Y882D02*
X723Y882D01*
X650Y881D02*
X667Y881D01*
X706Y881D02*
X723Y881D01*
X650Y880D02*
X666Y880D01*
X706Y880D02*
X723Y880D01*
X650Y879D02*
X666Y879D01*
X706Y879D02*
X723Y879D01*
X650Y878D02*
X666Y878D01*
X706Y878D02*
X723Y878D01*
X650Y877D02*
X666Y877D01*
X706Y877D02*
X723Y877D01*
X650Y876D02*
X666Y876D01*
X706Y876D02*
X723Y876D01*
X650Y875D02*
X666Y875D01*
X706Y875D02*
X723Y875D01*
X650Y874D02*
X666Y874D01*
X706Y874D02*
X723Y874D01*
X650Y873D02*
X666Y873D01*
X706Y873D02*
X723Y873D01*
X650Y872D02*
X666Y872D01*
X706Y872D02*
X723Y872D01*
X650Y871D02*
X667Y871D01*
X706Y871D02*
X723Y871D01*
X650Y870D02*
X667Y870D01*
X705Y870D02*
X723Y870D01*
X650Y869D02*
X667Y869D01*
X705Y869D02*
X723Y869D01*
X650Y868D02*
X668Y868D01*
X705Y868D02*
X723Y868D01*
X650Y867D02*
X668Y867D01*
X704Y867D02*
X723Y867D01*
X650Y866D02*
X669Y866D01*
X704Y866D02*
X723Y866D01*
X650Y865D02*
X669Y865D01*
X703Y865D02*
X723Y865D01*
X650Y864D02*
X670Y864D01*
X702Y864D02*
X723Y864D01*
X650Y863D02*
X671Y863D01*
X701Y863D02*
X723Y863D01*
X650Y862D02*
X672Y862D01*
X701Y862D02*
X723Y862D01*
X650Y861D02*
X673Y861D01*
X699Y861D02*
X723Y861D01*
X650Y860D02*
X674Y860D01*
X698Y860D02*
X723Y860D01*
X650Y859D02*
X676Y859D01*
X697Y859D02*
X723Y859D01*
X650Y858D02*
X678Y858D01*
X695Y858D02*
X723Y858D01*
X650Y857D02*
X680Y857D01*
X692Y857D02*
X723Y857D01*
X650Y856D02*
X723Y856D01*
X650Y855D02*
X723Y855D01*
X650Y854D02*
X723Y854D01*
X650Y853D02*
X723Y853D01*
X650Y852D02*
X723Y852D01*
X650Y851D02*
X723Y851D01*
X650Y850D02*
X723Y850D01*
X650Y849D02*
X723Y849D01*
X650Y848D02*
X723Y848D01*
X650Y847D02*
X723Y847D01*
X650Y846D02*
X723Y846D01*
X650Y845D02*
X723Y845D01*
X650Y844D02*
X723Y844D01*
X650Y843D02*
X723Y843D01*
X650Y842D02*
X723Y842D01*
X650Y841D02*
X723Y841D01*
X650Y840D02*
X723Y840D01*
X650Y839D02*
X722Y839D01*
D02*
G04 End of Copper1*
M02*