G04 MADE WITH FRITZING*
G04 WWW.FRITZING.ORG*
G04 DOUBLE SIDED*
G04 HOLES PLATED*
G04 CONTOUR ON CENTER OF CONTOUR VECTOR*
%ASAXBY*%
%FSLAX23Y23*%
%MOIN*%
%OFA0B0*%
%SFA1.0B1.0*%
%ADD10R,1.062990X1.259840X1.046990X1.243840*%
%ADD11C,0.008000*%
%ADD12R,0.001000X0.001000*%
%LNSILK0*%
G90*
G70*
G54D11*
X4Y1256D02*
X1059Y1256D01*
X1059Y4D01*
X4Y4D01*
X4Y1256D01*
D02*
G54D12*
X336Y449D02*
X339Y449D01*
X480Y449D02*
X484Y449D01*
X799Y449D02*
X848Y449D01*
X334Y448D02*
X341Y448D01*
X479Y448D02*
X485Y448D01*
X799Y448D02*
X848Y448D01*
X334Y447D02*
X341Y447D01*
X478Y447D02*
X486Y447D01*
X799Y447D02*
X848Y447D01*
X333Y446D02*
X342Y446D01*
X478Y446D02*
X486Y446D01*
X799Y446D02*
X848Y446D01*
X333Y445D02*
X342Y445D01*
X478Y445D02*
X486Y445D01*
X799Y445D02*
X848Y445D01*
X333Y444D02*
X342Y444D01*
X477Y444D02*
X487Y444D01*
X799Y444D02*
X848Y444D01*
X333Y443D02*
X342Y443D01*
X477Y443D02*
X487Y443D01*
X799Y443D02*
X848Y443D01*
X333Y442D02*
X342Y442D01*
X477Y442D02*
X487Y442D01*
X799Y442D02*
X848Y442D01*
X333Y441D02*
X342Y441D01*
X477Y441D02*
X487Y441D01*
X799Y441D02*
X848Y441D01*
X333Y440D02*
X342Y440D01*
X477Y440D02*
X487Y440D01*
X799Y440D02*
X848Y440D01*
X333Y439D02*
X342Y439D01*
X477Y439D02*
X487Y439D01*
X799Y439D02*
X808Y439D01*
X819Y439D02*
X828Y439D01*
X839Y439D02*
X848Y439D01*
X333Y438D02*
X342Y438D01*
X477Y438D02*
X487Y438D01*
X799Y438D02*
X808Y438D01*
X819Y438D02*
X828Y438D01*
X839Y438D02*
X848Y438D01*
X333Y437D02*
X342Y437D01*
X477Y437D02*
X487Y437D01*
X799Y437D02*
X808Y437D01*
X819Y437D02*
X828Y437D01*
X839Y437D02*
X848Y437D01*
X333Y436D02*
X342Y436D01*
X477Y436D02*
X487Y436D01*
X799Y436D02*
X808Y436D01*
X819Y436D02*
X828Y436D01*
X839Y436D02*
X848Y436D01*
X333Y435D02*
X342Y435D01*
X477Y435D02*
X487Y435D01*
X799Y435D02*
X808Y435D01*
X819Y435D02*
X828Y435D01*
X839Y435D02*
X847Y435D01*
X333Y434D02*
X342Y434D01*
X477Y434D02*
X487Y434D01*
X799Y434D02*
X808Y434D01*
X819Y434D02*
X828Y434D01*
X839Y434D02*
X847Y434D01*
X333Y433D02*
X342Y433D01*
X477Y433D02*
X487Y433D01*
X800Y433D02*
X807Y433D01*
X819Y433D02*
X828Y433D01*
X840Y433D02*
X847Y433D01*
X333Y432D02*
X342Y432D01*
X477Y432D02*
X487Y432D01*
X801Y432D02*
X806Y432D01*
X819Y432D02*
X828Y432D01*
X841Y432D02*
X845Y432D01*
X333Y431D02*
X342Y431D01*
X477Y431D02*
X487Y431D01*
X819Y431D02*
X828Y431D01*
X333Y430D02*
X342Y430D01*
X477Y430D02*
X487Y430D01*
X819Y430D02*
X828Y430D01*
X333Y429D02*
X342Y429D01*
X477Y429D02*
X487Y429D01*
X819Y429D02*
X828Y429D01*
X232Y428D02*
X259Y428D01*
X309Y428D02*
X322Y428D01*
X333Y428D02*
X342Y428D01*
X378Y428D02*
X401Y428D01*
X477Y428D02*
X487Y428D01*
X594Y428D02*
X608Y428D01*
X625Y428D02*
X628Y428D01*
X658Y428D02*
X660Y428D01*
X675Y428D02*
X688Y428D01*
X730Y428D02*
X733Y428D01*
X770Y428D02*
X772Y428D01*
X819Y428D02*
X828Y428D01*
X229Y427D02*
X262Y427D01*
X306Y427D02*
X325Y427D01*
X333Y427D02*
X342Y427D01*
X375Y427D02*
X403Y427D01*
X477Y427D02*
X487Y427D01*
X591Y427D02*
X610Y427D01*
X624Y427D02*
X629Y427D01*
X656Y427D02*
X662Y427D01*
X672Y427D02*
X691Y427D01*
X728Y427D02*
X734Y427D01*
X768Y427D02*
X774Y427D01*
X819Y427D02*
X828Y427D01*
X227Y426D02*
X263Y426D01*
X304Y426D02*
X327Y426D01*
X333Y426D02*
X342Y426D01*
X374Y426D02*
X404Y426D01*
X477Y426D02*
X487Y426D01*
X589Y426D02*
X611Y426D01*
X623Y426D02*
X630Y426D01*
X655Y426D02*
X663Y426D01*
X670Y426D02*
X693Y426D01*
X728Y426D02*
X735Y426D01*
X767Y426D02*
X775Y426D01*
X819Y426D02*
X828Y426D01*
X226Y425D02*
X264Y425D01*
X303Y425D02*
X328Y425D01*
X333Y425D02*
X342Y425D01*
X372Y425D02*
X404Y425D01*
X477Y425D02*
X487Y425D01*
X588Y425D02*
X612Y425D01*
X622Y425D02*
X631Y425D01*
X655Y425D02*
X663Y425D01*
X669Y425D02*
X694Y425D01*
X727Y425D02*
X736Y425D01*
X767Y425D02*
X775Y425D01*
X819Y425D02*
X828Y425D01*
X225Y424D02*
X265Y424D01*
X301Y424D02*
X330Y424D01*
X333Y424D02*
X342Y424D01*
X371Y424D02*
X404Y424D01*
X477Y424D02*
X487Y424D01*
X587Y424D02*
X613Y424D01*
X622Y424D02*
X631Y424D01*
X655Y424D02*
X663Y424D01*
X667Y424D02*
X695Y424D01*
X727Y424D02*
X736Y424D01*
X766Y424D02*
X775Y424D01*
X819Y424D02*
X828Y424D01*
X224Y423D02*
X266Y423D01*
X300Y423D02*
X331Y423D01*
X333Y423D02*
X342Y423D01*
X370Y423D02*
X404Y423D01*
X477Y423D02*
X487Y423D01*
X586Y423D02*
X614Y423D01*
X622Y423D02*
X631Y423D01*
X654Y423D02*
X664Y423D01*
X666Y423D02*
X697Y423D01*
X727Y423D02*
X736Y423D01*
X766Y423D02*
X775Y423D01*
X819Y423D02*
X828Y423D01*
X223Y422D02*
X267Y422D01*
X299Y422D02*
X342Y422D01*
X370Y422D02*
X404Y422D01*
X477Y422D02*
X487Y422D01*
X585Y422D02*
X616Y422D01*
X622Y422D02*
X631Y422D01*
X654Y422D02*
X698Y422D01*
X727Y422D02*
X736Y422D01*
X766Y422D02*
X775Y422D01*
X819Y422D02*
X828Y422D01*
X223Y421D02*
X268Y421D01*
X298Y421D02*
X342Y421D01*
X369Y421D02*
X404Y421D01*
X477Y421D02*
X487Y421D01*
X584Y421D02*
X617Y421D01*
X622Y421D02*
X631Y421D01*
X654Y421D02*
X699Y421D01*
X727Y421D02*
X736Y421D01*
X766Y421D02*
X775Y421D01*
X819Y421D02*
X828Y421D01*
X222Y420D02*
X268Y420D01*
X297Y420D02*
X342Y420D01*
X368Y420D02*
X403Y420D01*
X477Y420D02*
X487Y420D01*
X584Y420D02*
X618Y420D01*
X622Y420D02*
X631Y420D01*
X654Y420D02*
X700Y420D01*
X727Y420D02*
X736Y420D01*
X766Y420D02*
X775Y420D01*
X819Y420D02*
X828Y420D01*
X222Y419D02*
X268Y419D01*
X296Y419D02*
X342Y419D01*
X368Y419D02*
X402Y419D01*
X477Y419D02*
X487Y419D01*
X583Y419D02*
X619Y419D01*
X622Y419D02*
X631Y419D01*
X654Y419D02*
X700Y419D01*
X727Y419D02*
X736Y419D01*
X766Y419D02*
X775Y419D01*
X819Y419D02*
X828Y419D01*
X222Y418D02*
X233Y418D01*
X258Y418D02*
X268Y418D01*
X295Y418D02*
X309Y418D01*
X321Y418D02*
X342Y418D01*
X368Y418D02*
X379Y418D01*
X477Y418D02*
X487Y418D01*
X583Y418D02*
X595Y418D01*
X606Y418D02*
X620Y418D01*
X622Y418D02*
X631Y418D01*
X654Y418D02*
X675Y418D01*
X687Y418D02*
X701Y418D01*
X727Y418D02*
X736Y418D01*
X766Y418D02*
X775Y418D01*
X819Y418D02*
X828Y418D01*
X223Y417D02*
X231Y417D01*
X259Y417D02*
X269Y417D01*
X295Y417D02*
X308Y417D01*
X323Y417D02*
X342Y417D01*
X367Y417D02*
X377Y417D01*
X477Y417D02*
X487Y417D01*
X583Y417D02*
X593Y417D01*
X607Y417D02*
X631Y417D01*
X654Y417D02*
X674Y417D01*
X689Y417D02*
X702Y417D01*
X727Y417D02*
X736Y417D01*
X766Y417D02*
X775Y417D01*
X819Y417D02*
X828Y417D01*
X223Y416D02*
X230Y416D01*
X260Y416D02*
X269Y416D01*
X294Y416D02*
X306Y416D01*
X324Y416D02*
X342Y416D01*
X367Y416D02*
X377Y416D01*
X477Y416D02*
X487Y416D01*
X582Y416D02*
X592Y416D01*
X608Y416D02*
X631Y416D01*
X654Y416D02*
X673Y416D01*
X690Y416D02*
X702Y416D01*
X727Y416D02*
X736Y416D01*
X766Y416D02*
X775Y416D01*
X819Y416D02*
X828Y416D01*
X224Y415D02*
X229Y415D01*
X260Y415D02*
X269Y415D01*
X294Y415D02*
X305Y415D01*
X325Y415D02*
X342Y415D01*
X367Y415D02*
X376Y415D01*
X477Y415D02*
X487Y415D01*
X582Y415D02*
X592Y415D01*
X609Y415D02*
X631Y415D01*
X654Y415D02*
X671Y415D01*
X691Y415D02*
X703Y415D01*
X727Y415D02*
X736Y415D01*
X766Y415D02*
X775Y415D01*
X819Y415D02*
X828Y415D01*
X259Y414D02*
X268Y414D01*
X294Y414D02*
X304Y414D01*
X326Y414D02*
X342Y414D01*
X367Y414D02*
X376Y414D01*
X477Y414D02*
X487Y414D01*
X582Y414D02*
X591Y414D01*
X610Y414D02*
X631Y414D01*
X654Y414D02*
X670Y414D01*
X692Y414D02*
X703Y414D01*
X727Y414D02*
X737Y414D01*
X765Y414D02*
X775Y414D01*
X819Y414D02*
X828Y414D01*
X258Y413D02*
X268Y413D01*
X294Y413D02*
X303Y413D01*
X328Y413D02*
X342Y413D01*
X367Y413D02*
X376Y413D01*
X477Y413D02*
X487Y413D01*
X582Y413D02*
X591Y413D01*
X612Y413D02*
X631Y413D01*
X654Y413D02*
X669Y413D01*
X693Y413D02*
X703Y413D01*
X727Y413D02*
X737Y413D01*
X765Y413D02*
X775Y413D01*
X819Y413D02*
X828Y413D01*
X256Y412D02*
X268Y412D01*
X293Y412D02*
X303Y412D01*
X329Y412D02*
X342Y412D01*
X367Y412D02*
X376Y412D01*
X477Y412D02*
X487Y412D01*
X582Y412D02*
X591Y412D01*
X613Y412D02*
X631Y412D01*
X654Y412D02*
X668Y412D01*
X694Y412D02*
X703Y412D01*
X728Y412D02*
X738Y412D01*
X765Y412D02*
X775Y412D01*
X819Y412D02*
X828Y412D01*
X253Y411D02*
X268Y411D01*
X293Y411D02*
X302Y411D01*
X330Y411D02*
X342Y411D01*
X367Y411D02*
X376Y411D01*
X477Y411D02*
X487Y411D01*
X582Y411D02*
X591Y411D01*
X614Y411D02*
X631Y411D01*
X654Y411D02*
X667Y411D01*
X694Y411D02*
X703Y411D01*
X728Y411D02*
X738Y411D01*
X764Y411D02*
X774Y411D01*
X819Y411D02*
X828Y411D01*
X251Y410D02*
X267Y410D01*
X293Y410D02*
X302Y410D01*
X331Y410D02*
X342Y410D01*
X367Y410D02*
X376Y410D01*
X477Y410D02*
X487Y410D01*
X582Y410D02*
X591Y410D01*
X615Y410D02*
X631Y410D01*
X654Y410D02*
X666Y410D01*
X694Y410D02*
X703Y410D01*
X728Y410D02*
X738Y410D01*
X764Y410D02*
X774Y410D01*
X819Y410D02*
X828Y410D01*
X249Y409D02*
X267Y409D01*
X293Y409D02*
X302Y409D01*
X332Y409D02*
X342Y409D01*
X367Y409D02*
X376Y409D01*
X477Y409D02*
X487Y409D01*
X583Y409D02*
X591Y409D01*
X616Y409D02*
X631Y409D01*
X654Y409D02*
X665Y409D01*
X694Y409D02*
X703Y409D01*
X729Y409D02*
X739Y409D01*
X763Y409D02*
X773Y409D01*
X819Y409D02*
X828Y409D01*
X246Y408D02*
X266Y408D01*
X293Y408D02*
X302Y408D01*
X333Y408D02*
X342Y408D01*
X367Y408D02*
X376Y408D01*
X477Y408D02*
X487Y408D01*
X583Y408D02*
X590Y408D01*
X617Y408D02*
X631Y408D01*
X654Y408D02*
X664Y408D01*
X694Y408D02*
X703Y408D01*
X729Y408D02*
X739Y408D01*
X763Y408D02*
X773Y408D01*
X819Y408D02*
X828Y408D01*
X244Y407D02*
X265Y407D01*
X293Y407D02*
X302Y407D01*
X333Y407D02*
X342Y407D01*
X367Y407D02*
X376Y407D01*
X379Y407D02*
X402Y407D01*
X477Y407D02*
X487Y407D01*
X584Y407D02*
X590Y407D01*
X618Y407D02*
X631Y407D01*
X654Y407D02*
X664Y407D01*
X694Y407D02*
X703Y407D01*
X730Y407D02*
X740Y407D01*
X762Y407D02*
X772Y407D01*
X819Y407D02*
X828Y407D01*
X242Y406D02*
X264Y406D01*
X293Y406D02*
X302Y406D01*
X333Y406D02*
X342Y406D01*
X367Y406D02*
X405Y406D01*
X477Y406D02*
X487Y406D01*
X586Y406D02*
X588Y406D01*
X620Y406D02*
X631Y406D01*
X654Y406D02*
X664Y406D01*
X694Y406D02*
X703Y406D01*
X730Y406D02*
X740Y406D01*
X762Y406D02*
X772Y406D01*
X819Y406D02*
X828Y406D01*
X239Y405D02*
X263Y405D01*
X293Y405D02*
X302Y405D01*
X333Y405D02*
X342Y405D01*
X367Y405D02*
X407Y405D01*
X477Y405D02*
X487Y405D01*
X621Y405D02*
X631Y405D01*
X654Y405D02*
X664Y405D01*
X694Y405D02*
X703Y405D01*
X731Y405D02*
X741Y405D01*
X762Y405D02*
X772Y405D01*
X819Y405D02*
X828Y405D01*
X237Y404D02*
X261Y404D01*
X293Y404D02*
X302Y404D01*
X333Y404D02*
X342Y404D01*
X366Y404D02*
X409Y404D01*
X477Y404D02*
X487Y404D01*
X622Y404D02*
X631Y404D01*
X654Y404D02*
X664Y404D01*
X694Y404D02*
X703Y404D01*
X731Y404D02*
X741Y404D01*
X761Y404D02*
X771Y404D01*
X819Y404D02*
X828Y404D01*
X235Y403D02*
X259Y403D01*
X293Y403D02*
X302Y403D01*
X333Y403D02*
X342Y403D01*
X366Y403D02*
X410Y403D01*
X477Y403D02*
X487Y403D01*
X622Y403D02*
X631Y403D01*
X654Y403D02*
X664Y403D01*
X694Y403D02*
X703Y403D01*
X731Y403D02*
X742Y403D01*
X761Y403D02*
X771Y403D01*
X819Y403D02*
X828Y403D01*
X233Y402D02*
X257Y402D01*
X293Y402D02*
X302Y402D01*
X333Y402D02*
X342Y402D01*
X366Y402D02*
X411Y402D01*
X477Y402D02*
X487Y402D01*
X622Y402D02*
X631Y402D01*
X654Y402D02*
X664Y402D01*
X694Y402D02*
X703Y402D01*
X732Y402D02*
X742Y402D01*
X760Y402D02*
X770Y402D01*
X819Y402D02*
X828Y402D01*
X230Y401D02*
X254Y401D01*
X293Y401D02*
X302Y401D01*
X333Y401D02*
X342Y401D01*
X366Y401D02*
X411Y401D01*
X477Y401D02*
X487Y401D01*
X622Y401D02*
X631Y401D01*
X654Y401D02*
X664Y401D01*
X694Y401D02*
X703Y401D01*
X732Y401D02*
X742Y401D01*
X760Y401D02*
X770Y401D01*
X819Y401D02*
X828Y401D01*
X228Y400D02*
X252Y400D01*
X293Y400D02*
X302Y400D01*
X333Y400D02*
X342Y400D01*
X366Y400D02*
X412Y400D01*
X477Y400D02*
X487Y400D01*
X622Y400D02*
X631Y400D01*
X654Y400D02*
X664Y400D01*
X694Y400D02*
X703Y400D01*
X733Y400D02*
X743Y400D01*
X759Y400D02*
X769Y400D01*
X819Y400D02*
X828Y400D01*
X227Y399D02*
X250Y399D01*
X293Y399D02*
X302Y399D01*
X333Y399D02*
X342Y399D01*
X366Y399D02*
X413Y399D01*
X477Y399D02*
X487Y399D01*
X622Y399D02*
X631Y399D01*
X654Y399D02*
X664Y399D01*
X694Y399D02*
X703Y399D01*
X733Y399D02*
X743Y399D01*
X759Y399D02*
X769Y399D01*
X819Y399D02*
X828Y399D01*
X226Y398D02*
X248Y398D01*
X293Y398D02*
X302Y398D01*
X333Y398D02*
X342Y398D01*
X366Y398D02*
X413Y398D01*
X477Y398D02*
X487Y398D01*
X622Y398D02*
X631Y398D01*
X654Y398D02*
X664Y398D01*
X694Y398D02*
X703Y398D01*
X734Y398D02*
X744Y398D01*
X759Y398D02*
X769Y398D01*
X819Y398D02*
X828Y398D01*
X225Y397D02*
X245Y397D01*
X293Y397D02*
X302Y397D01*
X333Y397D02*
X342Y397D01*
X366Y397D02*
X379Y397D01*
X401Y397D02*
X413Y397D01*
X477Y397D02*
X487Y397D01*
X622Y397D02*
X631Y397D01*
X654Y397D02*
X664Y397D01*
X694Y397D02*
X703Y397D01*
X734Y397D02*
X744Y397D01*
X758Y397D02*
X768Y397D01*
X819Y397D02*
X828Y397D01*
X224Y396D02*
X243Y396D01*
X293Y396D02*
X302Y396D01*
X333Y396D02*
X342Y396D01*
X366Y396D02*
X377Y396D01*
X403Y396D02*
X414Y396D01*
X477Y396D02*
X487Y396D01*
X622Y396D02*
X631Y396D01*
X654Y396D02*
X664Y396D01*
X694Y396D02*
X703Y396D01*
X735Y396D02*
X745Y396D01*
X758Y396D02*
X768Y396D01*
X819Y396D02*
X828Y396D01*
X224Y395D02*
X241Y395D01*
X293Y395D02*
X302Y395D01*
X333Y395D02*
X342Y395D01*
X366Y395D02*
X376Y395D01*
X404Y395D02*
X414Y395D01*
X477Y395D02*
X487Y395D01*
X622Y395D02*
X631Y395D01*
X654Y395D02*
X665Y395D01*
X694Y395D02*
X703Y395D01*
X735Y395D02*
X745Y395D01*
X757Y395D02*
X767Y395D01*
X819Y395D02*
X828Y395D01*
X223Y394D02*
X238Y394D01*
X293Y394D02*
X302Y394D01*
X333Y394D02*
X342Y394D01*
X366Y394D02*
X376Y394D01*
X405Y394D02*
X414Y394D01*
X477Y394D02*
X487Y394D01*
X622Y394D02*
X631Y394D01*
X654Y394D02*
X666Y394D01*
X694Y394D02*
X703Y394D01*
X735Y394D02*
X746Y394D01*
X757Y394D02*
X767Y394D01*
X819Y394D02*
X828Y394D01*
X223Y393D02*
X236Y393D01*
X293Y393D02*
X302Y393D01*
X333Y393D02*
X342Y393D01*
X366Y393D02*
X375Y393D01*
X405Y393D02*
X414Y393D01*
X477Y393D02*
X487Y393D01*
X622Y393D02*
X631Y393D01*
X654Y393D02*
X667Y393D01*
X694Y393D02*
X703Y393D01*
X736Y393D02*
X746Y393D01*
X756Y393D02*
X766Y393D01*
X819Y393D02*
X828Y393D01*
X222Y392D02*
X234Y392D01*
X293Y392D02*
X302Y392D01*
X333Y392D02*
X342Y392D01*
X366Y392D02*
X375Y392D01*
X405Y392D02*
X414Y392D01*
X477Y392D02*
X487Y392D01*
X622Y392D02*
X631Y392D01*
X654Y392D02*
X668Y392D01*
X694Y392D02*
X703Y392D01*
X736Y392D02*
X746Y392D01*
X756Y392D02*
X766Y392D01*
X819Y392D02*
X828Y392D01*
X222Y391D02*
X232Y391D01*
X293Y391D02*
X302Y391D01*
X332Y391D02*
X342Y391D01*
X366Y391D02*
X375Y391D01*
X405Y391D02*
X414Y391D01*
X477Y391D02*
X487Y391D01*
X622Y391D02*
X631Y391D01*
X654Y391D02*
X669Y391D01*
X693Y391D02*
X703Y391D01*
X737Y391D02*
X747Y391D01*
X755Y391D02*
X765Y391D01*
X819Y391D02*
X828Y391D01*
X222Y390D02*
X231Y390D01*
X293Y390D02*
X302Y390D01*
X331Y390D02*
X342Y390D01*
X366Y390D02*
X375Y390D01*
X405Y390D02*
X414Y390D01*
X477Y390D02*
X487Y390D01*
X622Y390D02*
X631Y390D01*
X654Y390D02*
X671Y390D01*
X693Y390D02*
X703Y390D01*
X737Y390D02*
X747Y390D01*
X755Y390D02*
X765Y390D01*
X819Y390D02*
X828Y390D01*
X221Y389D02*
X231Y389D01*
X293Y389D02*
X302Y389D01*
X330Y389D02*
X342Y389D01*
X366Y389D02*
X375Y389D01*
X405Y389D02*
X414Y389D01*
X477Y389D02*
X487Y389D01*
X622Y389D02*
X631Y389D01*
X654Y389D02*
X672Y389D01*
X692Y389D02*
X702Y389D01*
X738Y389D02*
X748Y389D01*
X755Y389D02*
X765Y389D01*
X819Y389D02*
X828Y389D01*
X221Y388D02*
X231Y388D01*
X293Y388D02*
X303Y388D01*
X329Y388D02*
X342Y388D01*
X366Y388D02*
X375Y388D01*
X405Y388D02*
X414Y388D01*
X477Y388D02*
X487Y388D01*
X622Y388D02*
X631Y388D01*
X654Y388D02*
X673Y388D01*
X690Y388D02*
X702Y388D01*
X738Y388D02*
X748Y388D01*
X754Y388D02*
X764Y388D01*
X819Y388D02*
X828Y388D01*
X221Y387D02*
X231Y387D01*
X293Y387D02*
X303Y387D01*
X327Y387D02*
X342Y387D01*
X366Y387D02*
X377Y387D01*
X405Y387D02*
X414Y387D01*
X477Y387D02*
X487Y387D01*
X622Y387D02*
X631Y387D01*
X654Y387D02*
X674Y387D01*
X689Y387D02*
X701Y387D01*
X738Y387D02*
X749Y387D01*
X754Y387D02*
X764Y387D01*
X819Y387D02*
X828Y387D01*
X221Y386D02*
X231Y386D01*
X294Y386D02*
X304Y386D01*
X326Y386D02*
X342Y386D01*
X366Y386D02*
X379Y386D01*
X405Y386D02*
X414Y386D01*
X477Y386D02*
X487Y386D01*
X622Y386D02*
X631Y386D01*
X654Y386D02*
X677Y386D01*
X686Y386D02*
X701Y386D01*
X739Y386D02*
X749Y386D01*
X753Y386D02*
X763Y386D01*
X819Y386D02*
X828Y386D01*
X221Y385D02*
X231Y385D01*
X263Y385D02*
X268Y385D01*
X294Y385D02*
X305Y385D01*
X325Y385D02*
X342Y385D01*
X366Y385D02*
X380Y385D01*
X405Y385D02*
X414Y385D01*
X477Y385D02*
X487Y385D01*
X622Y385D02*
X631Y385D01*
X654Y385D02*
X700Y385D01*
X739Y385D02*
X763Y385D01*
X819Y385D02*
X828Y385D01*
X222Y384D02*
X231Y384D01*
X261Y384D02*
X269Y384D01*
X294Y384D02*
X306Y384D01*
X324Y384D02*
X342Y384D01*
X366Y384D02*
X382Y384D01*
X404Y384D02*
X414Y384D01*
X477Y384D02*
X487Y384D01*
X622Y384D02*
X631Y384D01*
X654Y384D02*
X699Y384D01*
X740Y384D02*
X762Y384D01*
X819Y384D02*
X828Y384D01*
X222Y383D02*
X232Y383D01*
X260Y383D02*
X269Y383D01*
X295Y383D02*
X308Y383D01*
X323Y383D02*
X342Y383D01*
X366Y383D02*
X384Y383D01*
X403Y383D02*
X414Y383D01*
X477Y383D02*
X487Y383D01*
X622Y383D02*
X631Y383D01*
X654Y383D02*
X698Y383D01*
X740Y383D02*
X762Y383D01*
X819Y383D02*
X828Y383D01*
X222Y382D02*
X234Y382D01*
X258Y382D02*
X270Y382D01*
X296Y382D02*
X309Y382D01*
X321Y382D02*
X342Y382D01*
X366Y382D02*
X386Y382D01*
X402Y382D02*
X414Y382D01*
X477Y382D02*
X487Y382D01*
X622Y382D02*
X631Y382D01*
X654Y382D02*
X697Y382D01*
X741Y382D02*
X761Y382D01*
X819Y382D02*
X828Y382D01*
X222Y381D02*
X270Y381D01*
X296Y381D02*
X342Y381D01*
X366Y381D02*
X413Y381D01*
X440Y381D02*
X487Y381D01*
X622Y381D02*
X631Y381D01*
X654Y381D02*
X664Y381D01*
X666Y381D02*
X696Y381D01*
X741Y381D02*
X761Y381D01*
X819Y381D02*
X828Y381D01*
X223Y380D02*
X270Y380D01*
X297Y380D02*
X342Y380D01*
X366Y380D02*
X413Y380D01*
X439Y380D02*
X487Y380D01*
X622Y380D02*
X631Y380D01*
X654Y380D02*
X664Y380D01*
X668Y380D02*
X695Y380D01*
X742Y380D02*
X761Y380D01*
X819Y380D02*
X828Y380D01*
X223Y379D02*
X269Y379D01*
X298Y379D02*
X342Y379D01*
X366Y379D02*
X412Y379D01*
X438Y379D02*
X487Y379D01*
X622Y379D02*
X631Y379D01*
X654Y379D02*
X664Y379D01*
X669Y379D02*
X694Y379D01*
X742Y379D02*
X760Y379D01*
X819Y379D02*
X828Y379D01*
X224Y378D02*
X269Y378D01*
X299Y378D02*
X342Y378D01*
X366Y378D02*
X412Y378D01*
X438Y378D02*
X487Y378D01*
X622Y378D02*
X631Y378D01*
X654Y378D02*
X664Y378D01*
X671Y378D02*
X692Y378D01*
X742Y378D02*
X760Y378D01*
X819Y378D02*
X828Y378D01*
X225Y377D02*
X268Y377D01*
X300Y377D02*
X331Y377D01*
X333Y377D02*
X342Y377D01*
X366Y377D02*
X411Y377D01*
X438Y377D02*
X487Y377D01*
X622Y377D02*
X631Y377D01*
X654Y377D02*
X664Y377D01*
X673Y377D02*
X690Y377D01*
X743Y377D02*
X759Y377D01*
X819Y377D02*
X828Y377D01*
X226Y376D02*
X267Y376D01*
X301Y376D02*
X329Y376D01*
X333Y376D02*
X342Y376D01*
X366Y376D02*
X375Y376D01*
X377Y376D02*
X410Y376D01*
X438Y376D02*
X487Y376D01*
X622Y376D02*
X631Y376D01*
X654Y376D02*
X664Y376D01*
X677Y376D02*
X686Y376D01*
X743Y376D02*
X757Y376D01*
X819Y376D02*
X828Y376D01*
X227Y375D02*
X265Y375D01*
X303Y375D02*
X328Y375D01*
X333Y375D02*
X342Y375D01*
X366Y375D02*
X374Y375D01*
X378Y375D02*
X409Y375D01*
X438Y375D02*
X487Y375D01*
X622Y375D02*
X631Y375D01*
X654Y375D02*
X664Y375D01*
X744Y375D02*
X754Y375D01*
X819Y375D02*
X828Y375D01*
X228Y374D02*
X263Y374D01*
X304Y374D02*
X327Y374D01*
X334Y374D02*
X341Y374D01*
X366Y374D02*
X374Y374D01*
X380Y374D02*
X407Y374D01*
X439Y374D02*
X487Y374D01*
X623Y374D02*
X630Y374D01*
X654Y374D02*
X664Y374D01*
X744Y374D02*
X754Y374D01*
X820Y374D02*
X827Y374D01*
X230Y373D02*
X261Y373D01*
X306Y373D02*
X325Y373D01*
X335Y373D02*
X340Y373D01*
X367Y373D02*
X373Y373D01*
X382Y373D02*
X406Y373D01*
X440Y373D02*
X487Y373D01*
X624Y373D02*
X629Y373D01*
X654Y373D02*
X664Y373D01*
X745Y373D02*
X755Y373D01*
X821Y373D02*
X826Y373D01*
X233Y372D02*
X258Y372D01*
X309Y372D02*
X321Y372D01*
X336Y372D02*
X339Y372D01*
X369Y372D02*
X371Y372D01*
X384Y372D02*
X403Y372D01*
X441Y372D02*
X486Y372D01*
X625Y372D02*
X628Y372D01*
X654Y372D02*
X664Y372D01*
X745Y372D02*
X755Y372D01*
X822Y372D02*
X824Y372D01*
X654Y371D02*
X664Y371D01*
X745Y371D02*
X756Y371D01*
X654Y370D02*
X664Y370D01*
X746Y370D02*
X756Y370D01*
X654Y369D02*
X664Y369D01*
X746Y369D02*
X756Y369D01*
X654Y368D02*
X664Y368D01*
X747Y368D02*
X757Y368D01*
X655Y367D02*
X664Y367D01*
X747Y367D02*
X757Y367D01*
X655Y366D02*
X664Y366D01*
X748Y366D02*
X758Y366D01*
X655Y365D02*
X665Y365D01*
X748Y365D02*
X758Y365D01*
X655Y364D02*
X666Y364D01*
X749Y364D02*
X759Y364D01*
X656Y363D02*
X667Y363D01*
X749Y363D02*
X759Y363D01*
X656Y362D02*
X669Y362D01*
X749Y362D02*
X760Y362D01*
X657Y361D02*
X670Y361D01*
X750Y361D02*
X760Y361D01*
X657Y360D02*
X695Y360D01*
X750Y360D02*
X773Y360D01*
X658Y359D02*
X697Y359D01*
X751Y359D02*
X774Y359D01*
X659Y358D02*
X698Y358D01*
X751Y358D02*
X775Y358D01*
X660Y357D02*
X698Y357D01*
X752Y357D02*
X775Y357D01*
X661Y356D02*
X698Y356D01*
X752Y356D02*
X775Y356D01*
X662Y355D02*
X698Y355D01*
X752Y355D02*
X775Y355D01*
X664Y354D02*
X698Y354D01*
X753Y354D02*
X775Y354D01*
X665Y353D02*
X698Y353D01*
X753Y353D02*
X775Y353D01*
X667Y352D02*
X697Y352D01*
X754Y352D02*
X774Y352D01*
X669Y351D02*
X695Y351D01*
X755Y351D02*
X773Y351D01*
X645Y349D02*
X652Y349D01*
X643Y348D02*
X654Y348D01*
X643Y347D02*
X655Y347D01*
X642Y346D02*
X655Y346D01*
X275Y345D02*
X309Y345D01*
X377Y345D02*
X377Y345D01*
X642Y345D02*
X656Y345D01*
X719Y345D02*
X733Y345D01*
X779Y345D02*
X805Y345D01*
X270Y344D02*
X309Y344D01*
X335Y344D02*
X340Y344D01*
X375Y344D02*
X380Y344D01*
X642Y344D02*
X656Y344D01*
X716Y344D02*
X736Y344D01*
X775Y344D02*
X809Y344D01*
X268Y343D02*
X309Y343D01*
X334Y343D02*
X341Y343D01*
X374Y343D02*
X381Y343D01*
X642Y343D02*
X656Y343D01*
X715Y343D02*
X737Y343D01*
X773Y343D02*
X810Y343D01*
X267Y342D02*
X309Y342D01*
X333Y342D02*
X342Y342D01*
X373Y342D02*
X381Y342D01*
X642Y342D02*
X656Y342D01*
X714Y342D02*
X737Y342D01*
X771Y342D02*
X811Y342D01*
X266Y341D02*
X309Y341D01*
X333Y341D02*
X342Y341D01*
X373Y341D02*
X381Y341D01*
X642Y341D02*
X656Y341D01*
X714Y341D02*
X738Y341D01*
X770Y341D02*
X812Y341D01*
X265Y340D02*
X309Y340D01*
X333Y340D02*
X342Y340D01*
X373Y340D02*
X382Y340D01*
X642Y340D02*
X656Y340D01*
X714Y340D02*
X738Y340D01*
X769Y340D02*
X813Y340D01*
X264Y339D02*
X309Y339D01*
X333Y339D02*
X342Y339D01*
X373Y339D02*
X382Y339D01*
X642Y339D02*
X656Y339D01*
X714Y339D02*
X738Y339D01*
X769Y339D02*
X814Y339D01*
X263Y338D02*
X309Y338D01*
X333Y338D02*
X342Y338D01*
X373Y338D02*
X382Y338D01*
X642Y338D02*
X655Y338D01*
X714Y338D02*
X737Y338D01*
X768Y338D02*
X814Y338D01*
X263Y337D02*
X309Y337D01*
X333Y337D02*
X342Y337D01*
X373Y337D02*
X382Y337D01*
X643Y337D02*
X655Y337D01*
X714Y337D02*
X737Y337D01*
X767Y337D02*
X815Y337D01*
X262Y336D02*
X309Y336D01*
X333Y336D02*
X342Y336D01*
X373Y336D02*
X382Y336D01*
X644Y336D02*
X654Y336D01*
X714Y336D02*
X736Y336D01*
X767Y336D02*
X815Y336D01*
X262Y335D02*
X309Y335D01*
X333Y335D02*
X342Y335D01*
X373Y335D02*
X382Y335D01*
X647Y335D02*
X650Y335D01*
X714Y335D02*
X732Y335D01*
X767Y335D02*
X815Y335D01*
X261Y334D02*
X272Y334D01*
X300Y334D02*
X309Y334D01*
X333Y334D02*
X342Y334D01*
X373Y334D02*
X382Y334D01*
X714Y334D02*
X723Y334D01*
X767Y334D02*
X777Y334D01*
X806Y334D02*
X815Y334D01*
X261Y333D02*
X271Y333D01*
X300Y333D02*
X309Y333D01*
X333Y333D02*
X342Y333D01*
X373Y333D02*
X382Y333D01*
X714Y333D02*
X723Y333D01*
X766Y333D02*
X776Y333D01*
X806Y333D02*
X815Y333D01*
X261Y332D02*
X270Y332D01*
X300Y332D02*
X309Y332D01*
X333Y332D02*
X342Y332D01*
X373Y332D02*
X382Y332D01*
X714Y332D02*
X723Y332D01*
X766Y332D02*
X775Y332D01*
X805Y332D02*
X815Y332D01*
X261Y331D02*
X270Y331D01*
X300Y331D02*
X309Y331D01*
X333Y331D02*
X342Y331D01*
X373Y331D02*
X382Y331D01*
X714Y331D02*
X723Y331D01*
X766Y331D02*
X775Y331D01*
X804Y331D02*
X815Y331D01*
X261Y330D02*
X270Y330D01*
X300Y330D02*
X309Y330D01*
X333Y330D02*
X342Y330D01*
X373Y330D02*
X382Y330D01*
X714Y330D02*
X723Y330D01*
X767Y330D02*
X775Y330D01*
X803Y330D02*
X814Y330D01*
X261Y329D02*
X270Y329D01*
X300Y329D02*
X309Y329D01*
X333Y329D02*
X342Y329D01*
X373Y329D02*
X382Y329D01*
X714Y329D02*
X723Y329D01*
X767Y329D02*
X775Y329D01*
X803Y329D02*
X814Y329D01*
X261Y328D02*
X270Y328D01*
X300Y328D02*
X309Y328D01*
X333Y328D02*
X342Y328D01*
X373Y328D02*
X382Y328D01*
X714Y328D02*
X723Y328D01*
X768Y328D02*
X774Y328D01*
X802Y328D02*
X814Y328D01*
X261Y327D02*
X270Y327D01*
X300Y327D02*
X309Y327D01*
X333Y327D02*
X342Y327D01*
X373Y327D02*
X382Y327D01*
X714Y327D02*
X723Y327D01*
X769Y327D02*
X772Y327D01*
X801Y327D02*
X813Y327D01*
X261Y326D02*
X270Y326D01*
X300Y326D02*
X309Y326D01*
X333Y326D02*
X342Y326D01*
X373Y326D02*
X382Y326D01*
X714Y326D02*
X723Y326D01*
X800Y326D02*
X812Y326D01*
X261Y325D02*
X270Y325D01*
X300Y325D02*
X309Y325D01*
X333Y325D02*
X342Y325D01*
X373Y325D02*
X382Y325D01*
X714Y325D02*
X723Y325D01*
X800Y325D02*
X811Y325D01*
X261Y324D02*
X270Y324D01*
X300Y324D02*
X309Y324D01*
X333Y324D02*
X342Y324D01*
X373Y324D02*
X382Y324D01*
X714Y324D02*
X723Y324D01*
X799Y324D02*
X811Y324D01*
X261Y323D02*
X270Y323D01*
X300Y323D02*
X309Y323D01*
X333Y323D02*
X342Y323D01*
X372Y323D02*
X382Y323D01*
X491Y323D02*
X513Y323D01*
X559Y323D02*
X565Y323D01*
X577Y323D02*
X585Y323D01*
X592Y323D02*
X597Y323D01*
X644Y323D02*
X663Y323D01*
X714Y323D02*
X723Y323D01*
X798Y323D02*
X810Y323D01*
X261Y322D02*
X271Y322D01*
X300Y322D02*
X309Y322D01*
X333Y322D02*
X343Y322D01*
X372Y322D02*
X382Y322D01*
X489Y322D02*
X515Y322D01*
X556Y322D02*
X567Y322D01*
X575Y322D02*
X587Y322D01*
X591Y322D02*
X598Y322D01*
X643Y322D02*
X664Y322D01*
X714Y322D02*
X723Y322D01*
X797Y322D02*
X809Y322D01*
X261Y321D02*
X272Y321D01*
X300Y321D02*
X309Y321D01*
X333Y321D02*
X343Y321D01*
X371Y321D02*
X381Y321D01*
X487Y321D02*
X516Y321D01*
X555Y321D02*
X569Y321D01*
X574Y321D02*
X589Y321D01*
X591Y321D02*
X599Y321D01*
X642Y321D02*
X665Y321D01*
X714Y321D02*
X723Y321D01*
X796Y321D02*
X808Y321D01*
X261Y320D02*
X273Y320D01*
X300Y320D02*
X309Y320D01*
X334Y320D02*
X344Y320D01*
X371Y320D02*
X381Y320D01*
X486Y320D02*
X518Y320D01*
X554Y320D02*
X570Y320D01*
X573Y320D02*
X599Y320D01*
X642Y320D02*
X665Y320D01*
X714Y320D02*
X723Y320D01*
X796Y320D02*
X808Y320D01*
X262Y319D02*
X309Y319D01*
X334Y319D02*
X344Y319D01*
X371Y319D02*
X381Y319D01*
X485Y319D02*
X519Y319D01*
X553Y319D02*
X599Y319D01*
X642Y319D02*
X666Y319D01*
X714Y319D02*
X723Y319D01*
X795Y319D02*
X807Y319D01*
X262Y318D02*
X309Y318D01*
X334Y318D02*
X344Y318D01*
X370Y318D02*
X380Y318D01*
X484Y318D02*
X520Y318D01*
X552Y318D02*
X599Y318D01*
X642Y318D02*
X666Y318D01*
X714Y318D02*
X723Y318D01*
X794Y318D02*
X806Y318D01*
X263Y317D02*
X309Y317D01*
X335Y317D02*
X345Y317D01*
X370Y317D02*
X380Y317D01*
X482Y317D02*
X521Y317D01*
X552Y317D02*
X599Y317D01*
X642Y317D02*
X665Y317D01*
X714Y317D02*
X723Y317D01*
X793Y317D02*
X805Y317D01*
X264Y316D02*
X309Y316D01*
X335Y316D02*
X345Y316D01*
X369Y316D02*
X379Y316D01*
X482Y316D02*
X522Y316D01*
X551Y316D02*
X599Y316D01*
X642Y316D02*
X665Y316D01*
X714Y316D02*
X723Y316D01*
X793Y316D02*
X804Y316D01*
X264Y315D02*
X309Y315D01*
X336Y315D02*
X346Y315D01*
X369Y315D02*
X379Y315D01*
X481Y315D02*
X523Y315D01*
X551Y315D02*
X599Y315D01*
X642Y315D02*
X664Y315D01*
X714Y315D02*
X723Y315D01*
X792Y315D02*
X804Y315D01*
X265Y314D02*
X309Y314D01*
X336Y314D02*
X346Y314D01*
X369Y314D02*
X379Y314D01*
X480Y314D02*
X524Y314D01*
X551Y314D02*
X599Y314D01*
X642Y314D02*
X662Y314D01*
X714Y314D02*
X723Y314D01*
X791Y314D02*
X803Y314D01*
X266Y313D02*
X309Y313D01*
X336Y313D02*
X346Y313D01*
X368Y313D02*
X378Y313D01*
X479Y313D02*
X492Y313D01*
X511Y313D02*
X524Y313D01*
X550Y313D02*
X560Y313D01*
X564Y313D02*
X579Y313D01*
X584Y313D02*
X599Y313D01*
X642Y313D02*
X651Y313D01*
X714Y313D02*
X723Y313D01*
X790Y313D02*
X802Y313D01*
X268Y312D02*
X309Y312D01*
X337Y312D02*
X347Y312D01*
X368Y312D02*
X378Y312D01*
X479Y312D02*
X491Y312D01*
X513Y312D02*
X525Y312D01*
X550Y312D02*
X559Y312D01*
X565Y312D02*
X579Y312D01*
X585Y312D02*
X599Y312D01*
X642Y312D02*
X651Y312D01*
X714Y312D02*
X723Y312D01*
X789Y312D02*
X801Y312D01*
X270Y311D02*
X309Y311D01*
X337Y311D02*
X347Y311D01*
X367Y311D02*
X377Y311D01*
X478Y311D02*
X489Y311D01*
X514Y311D02*
X525Y311D01*
X550Y311D02*
X559Y311D01*
X566Y311D02*
X579Y311D01*
X586Y311D02*
X599Y311D01*
X642Y311D02*
X651Y311D01*
X714Y311D02*
X723Y311D01*
X789Y311D02*
X801Y311D01*
X272Y310D02*
X309Y310D01*
X338Y310D02*
X347Y310D01*
X367Y310D02*
X377Y310D01*
X478Y310D02*
X488Y310D01*
X515Y310D02*
X525Y310D01*
X550Y310D02*
X559Y310D01*
X567Y310D02*
X579Y310D01*
X587Y310D02*
X599Y310D01*
X642Y310D02*
X651Y310D01*
X714Y310D02*
X723Y310D01*
X788Y310D02*
X800Y310D01*
X281Y309D02*
X292Y309D01*
X300Y309D02*
X309Y309D01*
X338Y309D02*
X348Y309D01*
X367Y309D02*
X377Y309D01*
X478Y309D02*
X488Y309D01*
X516Y309D02*
X526Y309D01*
X550Y309D02*
X559Y309D01*
X568Y309D02*
X579Y309D01*
X588Y309D02*
X599Y309D01*
X642Y309D02*
X651Y309D01*
X714Y309D02*
X723Y309D01*
X787Y309D02*
X799Y309D01*
X281Y308D02*
X292Y308D01*
X300Y308D02*
X309Y308D01*
X338Y308D02*
X348Y308D01*
X366Y308D02*
X376Y308D01*
X478Y308D02*
X487Y308D01*
X516Y308D02*
X526Y308D01*
X550Y308D02*
X559Y308D01*
X569Y308D02*
X579Y308D01*
X589Y308D02*
X599Y308D01*
X642Y308D02*
X651Y308D01*
X714Y308D02*
X723Y308D01*
X786Y308D02*
X798Y308D01*
X280Y307D02*
X291Y307D01*
X300Y307D02*
X309Y307D01*
X339Y307D02*
X349Y307D01*
X366Y307D02*
X376Y307D01*
X477Y307D02*
X487Y307D01*
X517Y307D02*
X526Y307D01*
X550Y307D02*
X559Y307D01*
X569Y307D02*
X579Y307D01*
X590Y307D02*
X599Y307D01*
X642Y307D02*
X651Y307D01*
X714Y307D02*
X723Y307D01*
X786Y307D02*
X797Y307D01*
X280Y306D02*
X290Y306D01*
X300Y306D02*
X309Y306D01*
X339Y306D02*
X349Y306D01*
X366Y306D02*
X375Y306D01*
X477Y306D02*
X487Y306D01*
X517Y306D02*
X526Y306D01*
X550Y306D02*
X559Y306D01*
X569Y306D02*
X579Y306D01*
X590Y306D02*
X599Y306D01*
X642Y306D02*
X651Y306D01*
X714Y306D02*
X723Y306D01*
X785Y306D02*
X797Y306D01*
X279Y305D02*
X290Y305D01*
X300Y305D02*
X309Y305D01*
X340Y305D02*
X349Y305D01*
X365Y305D02*
X375Y305D01*
X477Y305D02*
X486Y305D01*
X517Y305D02*
X526Y305D01*
X550Y305D02*
X559Y305D01*
X569Y305D02*
X579Y305D01*
X590Y305D02*
X599Y305D01*
X642Y305D02*
X651Y305D01*
X714Y305D02*
X723Y305D01*
X784Y305D02*
X796Y305D01*
X278Y304D02*
X289Y304D01*
X300Y304D02*
X309Y304D01*
X340Y304D02*
X350Y304D01*
X365Y304D02*
X375Y304D01*
X477Y304D02*
X486Y304D01*
X517Y304D02*
X526Y304D01*
X550Y304D02*
X559Y304D01*
X569Y304D02*
X579Y304D01*
X590Y304D02*
X599Y304D01*
X642Y304D02*
X651Y304D01*
X714Y304D02*
X723Y304D01*
X783Y304D02*
X795Y304D01*
X278Y303D02*
X289Y303D01*
X300Y303D02*
X309Y303D01*
X340Y303D02*
X350Y303D01*
X364Y303D02*
X374Y303D01*
X477Y303D02*
X486Y303D01*
X517Y303D02*
X526Y303D01*
X550Y303D02*
X559Y303D01*
X569Y303D02*
X579Y303D01*
X590Y303D02*
X599Y303D01*
X642Y303D02*
X651Y303D01*
X714Y303D02*
X723Y303D01*
X782Y303D02*
X794Y303D01*
X277Y302D02*
X288Y302D01*
X300Y302D02*
X309Y302D01*
X341Y302D02*
X351Y302D01*
X364Y302D02*
X374Y302D01*
X477Y302D02*
X486Y302D01*
X517Y302D02*
X526Y302D01*
X550Y302D02*
X559Y302D01*
X569Y302D02*
X579Y302D01*
X590Y302D02*
X599Y302D01*
X642Y302D02*
X651Y302D01*
X714Y302D02*
X723Y302D01*
X782Y302D02*
X794Y302D01*
X277Y301D02*
X287Y301D01*
X300Y301D02*
X309Y301D01*
X341Y301D02*
X351Y301D01*
X364Y301D02*
X374Y301D01*
X477Y301D02*
X486Y301D01*
X517Y301D02*
X526Y301D01*
X550Y301D02*
X559Y301D01*
X569Y301D02*
X579Y301D01*
X590Y301D02*
X599Y301D01*
X642Y301D02*
X651Y301D01*
X714Y301D02*
X723Y301D01*
X781Y301D02*
X793Y301D01*
X276Y300D02*
X287Y300D01*
X300Y300D02*
X309Y300D01*
X342Y300D02*
X351Y300D01*
X363Y300D02*
X373Y300D01*
X477Y300D02*
X486Y300D01*
X517Y300D02*
X526Y300D01*
X550Y300D02*
X559Y300D01*
X569Y300D02*
X579Y300D01*
X590Y300D02*
X599Y300D01*
X642Y300D02*
X651Y300D01*
X714Y300D02*
X723Y300D01*
X780Y300D02*
X792Y300D01*
X276Y299D02*
X286Y299D01*
X300Y299D02*
X309Y299D01*
X342Y299D02*
X352Y299D01*
X363Y299D02*
X373Y299D01*
X477Y299D02*
X486Y299D01*
X517Y299D02*
X526Y299D01*
X550Y299D02*
X559Y299D01*
X569Y299D02*
X579Y299D01*
X590Y299D02*
X599Y299D01*
X642Y299D02*
X651Y299D01*
X714Y299D02*
X723Y299D01*
X779Y299D02*
X791Y299D01*
X275Y298D02*
X286Y298D01*
X300Y298D02*
X309Y298D01*
X342Y298D02*
X352Y298D01*
X362Y298D02*
X372Y298D01*
X477Y298D02*
X526Y298D01*
X550Y298D02*
X559Y298D01*
X569Y298D02*
X579Y298D01*
X590Y298D02*
X599Y298D01*
X642Y298D02*
X651Y298D01*
X714Y298D02*
X723Y298D01*
X779Y298D02*
X790Y298D01*
X274Y297D02*
X285Y297D01*
X300Y297D02*
X309Y297D01*
X343Y297D02*
X353Y297D01*
X362Y297D02*
X372Y297D01*
X477Y297D02*
X526Y297D01*
X550Y297D02*
X559Y297D01*
X569Y297D02*
X579Y297D01*
X590Y297D02*
X599Y297D01*
X642Y297D02*
X651Y297D01*
X714Y297D02*
X723Y297D01*
X778Y297D02*
X790Y297D01*
X274Y296D02*
X285Y296D01*
X300Y296D02*
X309Y296D01*
X343Y296D02*
X353Y296D01*
X362Y296D02*
X372Y296D01*
X477Y296D02*
X526Y296D01*
X550Y296D02*
X559Y296D01*
X569Y296D02*
X579Y296D01*
X590Y296D02*
X599Y296D01*
X642Y296D02*
X651Y296D01*
X714Y296D02*
X723Y296D01*
X777Y296D02*
X789Y296D01*
X273Y295D02*
X284Y295D01*
X300Y295D02*
X309Y295D01*
X343Y295D02*
X353Y295D01*
X361Y295D02*
X371Y295D01*
X477Y295D02*
X526Y295D01*
X550Y295D02*
X559Y295D01*
X569Y295D02*
X579Y295D01*
X590Y295D02*
X599Y295D01*
X642Y295D02*
X651Y295D01*
X714Y295D02*
X723Y295D01*
X776Y295D02*
X788Y295D01*
X273Y294D02*
X283Y294D01*
X300Y294D02*
X309Y294D01*
X344Y294D02*
X354Y294D01*
X361Y294D02*
X371Y294D01*
X477Y294D02*
X526Y294D01*
X550Y294D02*
X559Y294D01*
X569Y294D02*
X579Y294D01*
X590Y294D02*
X599Y294D01*
X642Y294D02*
X651Y294D01*
X714Y294D02*
X723Y294D01*
X775Y294D02*
X787Y294D01*
X272Y293D02*
X283Y293D01*
X300Y293D02*
X309Y293D01*
X344Y293D02*
X354Y293D01*
X360Y293D02*
X370Y293D01*
X477Y293D02*
X526Y293D01*
X550Y293D02*
X559Y293D01*
X569Y293D02*
X579Y293D01*
X590Y293D02*
X599Y293D01*
X642Y293D02*
X651Y293D01*
X714Y293D02*
X723Y293D01*
X775Y293D02*
X787Y293D01*
X271Y292D02*
X282Y292D01*
X300Y292D02*
X309Y292D01*
X345Y292D02*
X355Y292D01*
X360Y292D02*
X370Y292D01*
X478Y292D02*
X526Y292D01*
X550Y292D02*
X559Y292D01*
X569Y292D02*
X579Y292D01*
X590Y292D02*
X599Y292D01*
X642Y292D02*
X651Y292D01*
X714Y292D02*
X723Y292D01*
X774Y292D02*
X786Y292D01*
X271Y291D02*
X282Y291D01*
X300Y291D02*
X309Y291D01*
X345Y291D02*
X355Y291D01*
X360Y291D02*
X370Y291D01*
X478Y291D02*
X526Y291D01*
X550Y291D02*
X559Y291D01*
X569Y291D02*
X579Y291D01*
X590Y291D02*
X599Y291D01*
X642Y291D02*
X651Y291D01*
X714Y291D02*
X723Y291D01*
X773Y291D02*
X785Y291D01*
X270Y290D02*
X281Y290D01*
X300Y290D02*
X309Y290D01*
X345Y290D02*
X355Y290D01*
X359Y290D02*
X369Y290D01*
X479Y290D02*
X526Y290D01*
X550Y290D02*
X559Y290D01*
X569Y290D02*
X579Y290D01*
X590Y290D02*
X599Y290D01*
X642Y290D02*
X651Y290D01*
X714Y290D02*
X723Y290D01*
X772Y290D02*
X784Y290D01*
X270Y289D02*
X280Y289D01*
X300Y289D02*
X309Y289D01*
X346Y289D02*
X356Y289D01*
X359Y289D02*
X369Y289D01*
X480Y289D02*
X526Y289D01*
X550Y289D02*
X559Y289D01*
X569Y289D02*
X579Y289D01*
X590Y289D02*
X599Y289D01*
X642Y289D02*
X651Y289D01*
X714Y289D02*
X723Y289D01*
X772Y289D02*
X784Y289D01*
X269Y288D02*
X280Y288D01*
X300Y288D02*
X309Y288D01*
X346Y288D02*
X356Y288D01*
X358Y288D02*
X368Y288D01*
X517Y288D02*
X526Y288D01*
X549Y288D02*
X559Y288D01*
X569Y288D02*
X579Y288D01*
X590Y288D02*
X599Y288D01*
X642Y288D02*
X651Y288D01*
X714Y288D02*
X723Y288D01*
X771Y288D02*
X783Y288D01*
X269Y287D02*
X279Y287D01*
X300Y287D02*
X309Y287D01*
X347Y287D02*
X356Y287D01*
X358Y287D02*
X368Y287D01*
X517Y287D02*
X526Y287D01*
X549Y287D02*
X559Y287D01*
X569Y287D02*
X579Y287D01*
X590Y287D02*
X599Y287D01*
X642Y287D02*
X651Y287D01*
X714Y287D02*
X723Y287D01*
X770Y287D02*
X782Y287D01*
X268Y286D02*
X279Y286D01*
X300Y286D02*
X309Y286D01*
X347Y286D02*
X368Y286D01*
X517Y286D02*
X526Y286D01*
X549Y286D02*
X558Y286D01*
X569Y286D02*
X579Y286D01*
X590Y286D02*
X599Y286D01*
X642Y286D02*
X651Y286D01*
X714Y286D02*
X723Y286D01*
X769Y286D02*
X781Y286D01*
X267Y285D02*
X278Y285D01*
X300Y285D02*
X309Y285D01*
X347Y285D02*
X367Y285D01*
X517Y285D02*
X526Y285D01*
X549Y285D02*
X558Y285D01*
X569Y285D02*
X579Y285D01*
X590Y285D02*
X599Y285D01*
X642Y285D02*
X651Y285D01*
X714Y285D02*
X723Y285D01*
X769Y285D02*
X780Y285D01*
X809Y285D02*
X812Y285D01*
X267Y284D02*
X278Y284D01*
X300Y284D02*
X309Y284D01*
X348Y284D02*
X367Y284D01*
X517Y284D02*
X526Y284D01*
X549Y284D02*
X558Y284D01*
X569Y284D02*
X579Y284D01*
X590Y284D02*
X599Y284D01*
X642Y284D02*
X651Y284D01*
X714Y284D02*
X723Y284D01*
X768Y284D02*
X780Y284D01*
X807Y284D02*
X814Y284D01*
X266Y283D02*
X277Y283D01*
X300Y283D02*
X309Y283D01*
X348Y283D02*
X367Y283D01*
X516Y283D02*
X526Y283D01*
X549Y283D02*
X558Y283D01*
X569Y283D02*
X579Y283D01*
X590Y283D02*
X599Y283D01*
X642Y283D02*
X651Y283D01*
X714Y283D02*
X723Y283D01*
X767Y283D02*
X779Y283D01*
X807Y283D02*
X814Y283D01*
X266Y282D02*
X276Y282D01*
X300Y282D02*
X309Y282D01*
X349Y282D02*
X366Y282D01*
X516Y282D02*
X526Y282D01*
X549Y282D02*
X558Y282D01*
X569Y282D02*
X579Y282D01*
X590Y282D02*
X599Y282D01*
X642Y282D02*
X651Y282D01*
X714Y282D02*
X723Y282D01*
X767Y282D02*
X778Y282D01*
X806Y282D02*
X815Y282D01*
X265Y281D02*
X276Y281D01*
X300Y281D02*
X309Y281D01*
X349Y281D02*
X366Y281D01*
X515Y281D02*
X526Y281D01*
X549Y281D02*
X558Y281D01*
X569Y281D02*
X579Y281D01*
X590Y281D02*
X599Y281D01*
X642Y281D02*
X651Y281D01*
X714Y281D02*
X723Y281D01*
X767Y281D02*
X777Y281D01*
X806Y281D02*
X815Y281D01*
X264Y280D02*
X275Y280D01*
X300Y280D02*
X309Y280D01*
X349Y280D02*
X365Y280D01*
X514Y280D02*
X525Y280D01*
X549Y280D02*
X558Y280D01*
X569Y280D02*
X579Y280D01*
X590Y280D02*
X599Y280D01*
X642Y280D02*
X651Y280D01*
X714Y280D02*
X723Y280D01*
X767Y280D02*
X777Y280D01*
X806Y280D02*
X815Y280D01*
X264Y279D02*
X275Y279D01*
X300Y279D02*
X309Y279D01*
X350Y279D02*
X365Y279D01*
X512Y279D02*
X525Y279D01*
X549Y279D02*
X558Y279D01*
X569Y279D02*
X579Y279D01*
X590Y279D02*
X599Y279D01*
X642Y279D02*
X651Y279D01*
X714Y279D02*
X723Y279D01*
X766Y279D02*
X776Y279D01*
X805Y279D02*
X815Y279D01*
X263Y278D02*
X274Y278D01*
X300Y278D02*
X309Y278D01*
X350Y278D02*
X365Y278D01*
X511Y278D02*
X524Y278D01*
X549Y278D02*
X558Y278D01*
X569Y278D02*
X579Y278D01*
X590Y278D02*
X599Y278D01*
X642Y278D02*
X651Y278D01*
X714Y278D02*
X723Y278D01*
X766Y278D02*
X776Y278D01*
X805Y278D02*
X815Y278D01*
X263Y277D02*
X273Y277D01*
X300Y277D02*
X309Y277D01*
X350Y277D02*
X364Y277D01*
X481Y277D02*
X524Y277D01*
X549Y277D02*
X558Y277D01*
X569Y277D02*
X579Y277D01*
X590Y277D02*
X599Y277D01*
X631Y277D02*
X662Y277D01*
X703Y277D02*
X734Y277D01*
X767Y277D02*
X815Y277D01*
X262Y276D02*
X273Y276D01*
X300Y276D02*
X309Y276D01*
X351Y276D02*
X364Y276D01*
X479Y276D02*
X523Y276D01*
X549Y276D02*
X558Y276D01*
X569Y276D02*
X579Y276D01*
X590Y276D02*
X599Y276D01*
X629Y276D02*
X664Y276D01*
X701Y276D02*
X736Y276D01*
X767Y276D02*
X814Y276D01*
X262Y275D02*
X272Y275D01*
X300Y275D02*
X309Y275D01*
X351Y275D02*
X363Y275D01*
X478Y275D02*
X522Y275D01*
X549Y275D02*
X558Y275D01*
X569Y275D02*
X579Y275D01*
X590Y275D02*
X599Y275D01*
X628Y275D02*
X665Y275D01*
X700Y275D02*
X737Y275D01*
X767Y275D02*
X814Y275D01*
X261Y274D02*
X272Y274D01*
X300Y274D02*
X309Y274D01*
X352Y274D02*
X363Y274D01*
X478Y274D02*
X521Y274D01*
X549Y274D02*
X558Y274D01*
X569Y274D02*
X579Y274D01*
X590Y274D02*
X599Y274D01*
X627Y274D02*
X665Y274D01*
X699Y274D02*
X738Y274D01*
X767Y274D02*
X813Y274D01*
X261Y273D02*
X271Y273D01*
X300Y273D02*
X309Y273D01*
X352Y273D02*
X363Y273D01*
X478Y273D02*
X520Y273D01*
X549Y273D02*
X558Y273D01*
X569Y273D02*
X579Y273D01*
X590Y273D02*
X599Y273D01*
X627Y273D02*
X666Y273D01*
X699Y273D02*
X738Y273D01*
X768Y273D02*
X813Y273D01*
X261Y272D02*
X271Y272D01*
X300Y272D02*
X309Y272D01*
X352Y272D02*
X362Y272D01*
X477Y272D02*
X519Y272D01*
X549Y272D02*
X558Y272D01*
X570Y272D02*
X579Y272D01*
X590Y272D02*
X599Y272D01*
X627Y272D02*
X666Y272D01*
X699Y272D02*
X738Y272D01*
X768Y272D02*
X812Y272D01*
X261Y271D02*
X270Y271D01*
X301Y271D02*
X309Y271D01*
X353Y271D02*
X362Y271D01*
X478Y271D02*
X518Y271D01*
X549Y271D02*
X558Y271D01*
X570Y271D02*
X578Y271D01*
X590Y271D02*
X599Y271D01*
X627Y271D02*
X665Y271D01*
X699Y271D02*
X738Y271D01*
X769Y271D02*
X811Y271D01*
X261Y270D02*
X269Y270D01*
X301Y270D02*
X309Y270D01*
X353Y270D02*
X361Y270D01*
X478Y270D02*
X516Y270D01*
X549Y270D02*
X557Y270D01*
X570Y270D02*
X578Y270D01*
X591Y270D02*
X599Y270D01*
X627Y270D02*
X665Y270D01*
X700Y270D02*
X737Y270D01*
X770Y270D02*
X810Y270D01*
X262Y269D02*
X269Y269D01*
X302Y269D02*
X308Y269D01*
X354Y269D02*
X361Y269D01*
X479Y269D02*
X515Y269D01*
X550Y269D02*
X557Y269D01*
X571Y269D02*
X577Y269D01*
X591Y269D02*
X598Y269D01*
X628Y269D02*
X664Y269D01*
X700Y269D02*
X737Y269D01*
X771Y269D02*
X808Y269D01*
X263Y268D02*
X268Y268D01*
X303Y268D02*
X307Y268D01*
X355Y268D02*
X360Y268D01*
X480Y268D02*
X513Y268D01*
X551Y268D02*
X556Y268D01*
X572Y268D02*
X576Y268D01*
X593Y268D02*
X597Y268D01*
X629Y268D02*
X663Y268D01*
X701Y268D02*
X735Y268D01*
X773Y268D02*
X806Y268D01*
X376Y247D02*
X385Y247D01*
X722Y247D02*
X726Y247D01*
X375Y246D02*
X386Y246D01*
X721Y246D02*
X727Y246D01*
X374Y245D02*
X387Y245D01*
X720Y245D02*
X728Y245D01*
X374Y244D02*
X387Y244D01*
X720Y244D02*
X729Y244D01*
X374Y243D02*
X387Y243D01*
X720Y243D02*
X729Y243D01*
X374Y242D02*
X387Y242D01*
X719Y242D02*
X729Y242D01*
X374Y241D02*
X387Y241D01*
X719Y241D02*
X730Y241D01*
X374Y240D02*
X387Y240D01*
X719Y240D02*
X730Y240D01*
X375Y239D02*
X387Y239D01*
X718Y239D02*
X730Y239D01*
X377Y238D02*
X387Y238D01*
X718Y238D02*
X730Y238D01*
X378Y237D02*
X387Y237D01*
X718Y237D02*
X731Y237D01*
X378Y236D02*
X387Y236D01*
X718Y236D02*
X731Y236D01*
X378Y235D02*
X387Y235D01*
X717Y235D02*
X731Y235D01*
X378Y234D02*
X387Y234D01*
X717Y234D02*
X732Y234D01*
X378Y233D02*
X387Y233D01*
X717Y233D02*
X732Y233D01*
X378Y232D02*
X387Y232D01*
X716Y232D02*
X732Y232D01*
X378Y231D02*
X387Y231D01*
X716Y231D02*
X732Y231D01*
X378Y230D02*
X387Y230D01*
X716Y230D02*
X733Y230D01*
X378Y229D02*
X387Y229D01*
X716Y229D02*
X733Y229D01*
X378Y228D02*
X387Y228D01*
X715Y228D02*
X733Y228D01*
X378Y227D02*
X387Y227D01*
X715Y227D02*
X734Y227D01*
X378Y226D02*
X387Y226D01*
X414Y226D02*
X417Y226D01*
X454Y226D02*
X457Y226D01*
X559Y226D02*
X563Y226D01*
X597Y226D02*
X600Y226D01*
X631Y226D02*
X634Y226D01*
X670Y226D02*
X673Y226D01*
X715Y226D02*
X734Y226D01*
X378Y225D02*
X387Y225D01*
X412Y225D02*
X418Y225D01*
X452Y225D02*
X458Y225D01*
X558Y225D02*
X564Y225D01*
X596Y225D02*
X602Y225D01*
X629Y225D02*
X635Y225D01*
X669Y225D02*
X675Y225D01*
X714Y225D02*
X734Y225D01*
X378Y224D02*
X387Y224D01*
X412Y224D02*
X419Y224D01*
X451Y224D02*
X459Y224D01*
X557Y224D02*
X565Y224D01*
X595Y224D02*
X602Y224D01*
X628Y224D02*
X636Y224D01*
X668Y224D02*
X676Y224D01*
X714Y224D02*
X734Y224D01*
X378Y223D02*
X387Y223D01*
X411Y223D02*
X420Y223D01*
X451Y223D02*
X459Y223D01*
X557Y223D02*
X566Y223D01*
X594Y223D02*
X603Y223D01*
X628Y223D02*
X636Y223D01*
X668Y223D02*
X676Y223D01*
X714Y223D02*
X723Y223D01*
X725Y223D02*
X735Y223D01*
X378Y222D02*
X387Y222D01*
X411Y222D02*
X420Y222D01*
X451Y222D02*
X460Y222D01*
X557Y222D02*
X567Y222D01*
X593Y222D02*
X603Y222D01*
X628Y222D02*
X637Y222D01*
X667Y222D02*
X676Y222D01*
X713Y222D02*
X723Y222D01*
X726Y222D02*
X735Y222D01*
X378Y221D02*
X387Y221D01*
X411Y221D02*
X420Y221D01*
X451Y221D02*
X460Y221D01*
X557Y221D02*
X567Y221D01*
X592Y221D02*
X603Y221D01*
X628Y221D02*
X637Y221D01*
X667Y221D02*
X676Y221D01*
X713Y221D02*
X723Y221D01*
X726Y221D02*
X735Y221D01*
X378Y220D02*
X387Y220D01*
X411Y220D02*
X420Y220D01*
X451Y220D02*
X460Y220D01*
X557Y220D02*
X568Y220D01*
X591Y220D02*
X603Y220D01*
X628Y220D02*
X637Y220D01*
X667Y220D02*
X676Y220D01*
X713Y220D02*
X722Y220D01*
X726Y220D02*
X736Y220D01*
X378Y219D02*
X387Y219D01*
X411Y219D02*
X420Y219D01*
X451Y219D02*
X460Y219D01*
X557Y219D02*
X569Y219D01*
X590Y219D02*
X602Y219D01*
X628Y219D02*
X637Y219D01*
X667Y219D02*
X676Y219D01*
X713Y219D02*
X722Y219D01*
X726Y219D02*
X736Y219D01*
X378Y218D02*
X387Y218D01*
X411Y218D02*
X420Y218D01*
X451Y218D02*
X460Y218D01*
X558Y218D02*
X570Y218D01*
X590Y218D02*
X602Y218D01*
X628Y218D02*
X637Y218D01*
X667Y218D02*
X676Y218D01*
X712Y218D02*
X722Y218D01*
X727Y218D02*
X736Y218D01*
X378Y217D02*
X387Y217D01*
X411Y217D02*
X420Y217D01*
X451Y217D02*
X460Y217D01*
X559Y217D02*
X571Y217D01*
X589Y217D02*
X601Y217D01*
X628Y217D02*
X637Y217D01*
X667Y217D02*
X676Y217D01*
X712Y217D02*
X722Y217D01*
X727Y217D02*
X737Y217D01*
X378Y216D02*
X387Y216D01*
X411Y216D02*
X420Y216D01*
X451Y216D02*
X460Y216D01*
X560Y216D02*
X572Y216D01*
X588Y216D02*
X600Y216D01*
X628Y216D02*
X637Y216D01*
X667Y216D02*
X676Y216D01*
X712Y216D02*
X721Y216D01*
X727Y216D02*
X737Y216D01*
X378Y215D02*
X387Y215D01*
X411Y215D02*
X420Y215D01*
X451Y215D02*
X460Y215D01*
X560Y215D02*
X572Y215D01*
X587Y215D02*
X599Y215D01*
X628Y215D02*
X637Y215D01*
X667Y215D02*
X676Y215D01*
X711Y215D02*
X721Y215D01*
X728Y215D02*
X737Y215D01*
X378Y214D02*
X387Y214D01*
X411Y214D02*
X420Y214D01*
X451Y214D02*
X460Y214D01*
X561Y214D02*
X573Y214D01*
X586Y214D02*
X598Y214D01*
X628Y214D02*
X637Y214D01*
X667Y214D02*
X676Y214D01*
X711Y214D02*
X721Y214D01*
X728Y214D02*
X737Y214D01*
X378Y213D02*
X387Y213D01*
X411Y213D02*
X420Y213D01*
X450Y213D02*
X460Y213D01*
X562Y213D02*
X574Y213D01*
X585Y213D02*
X598Y213D01*
X628Y213D02*
X637Y213D01*
X667Y213D02*
X676Y213D01*
X711Y213D02*
X720Y213D01*
X728Y213D02*
X738Y213D01*
X378Y212D02*
X387Y212D01*
X411Y212D02*
X421Y212D01*
X450Y212D02*
X460Y212D01*
X563Y212D02*
X575Y212D01*
X585Y212D02*
X597Y212D01*
X628Y212D02*
X637Y212D01*
X667Y212D02*
X676Y212D01*
X711Y212D02*
X720Y212D01*
X728Y212D02*
X738Y212D01*
X378Y211D02*
X387Y211D01*
X411Y211D02*
X421Y211D01*
X449Y211D02*
X459Y211D01*
X564Y211D02*
X576Y211D01*
X584Y211D02*
X596Y211D01*
X628Y211D02*
X637Y211D01*
X667Y211D02*
X676Y211D01*
X710Y211D02*
X720Y211D01*
X729Y211D02*
X738Y211D01*
X378Y210D02*
X387Y210D01*
X412Y210D02*
X422Y210D01*
X449Y210D02*
X459Y210D01*
X565Y210D02*
X577Y210D01*
X583Y210D02*
X595Y210D01*
X628Y210D02*
X637Y210D01*
X667Y210D02*
X676Y210D01*
X710Y210D02*
X720Y210D01*
X729Y210D02*
X739Y210D01*
X378Y209D02*
X387Y209D01*
X412Y209D02*
X422Y209D01*
X448Y209D02*
X458Y209D01*
X565Y209D02*
X577Y209D01*
X582Y209D02*
X594Y209D01*
X628Y209D02*
X637Y209D01*
X667Y209D02*
X676Y209D01*
X710Y209D02*
X719Y209D01*
X729Y209D02*
X739Y209D01*
X378Y208D02*
X387Y208D01*
X413Y208D02*
X423Y208D01*
X448Y208D02*
X458Y208D01*
X566Y208D02*
X578Y208D01*
X581Y208D02*
X593Y208D01*
X628Y208D02*
X637Y208D01*
X667Y208D02*
X676Y208D01*
X709Y208D02*
X719Y208D01*
X730Y208D02*
X739Y208D01*
X378Y207D02*
X387Y207D01*
X413Y207D02*
X423Y207D01*
X448Y207D02*
X458Y207D01*
X567Y207D02*
X593Y207D01*
X628Y207D02*
X637Y207D01*
X667Y207D02*
X676Y207D01*
X709Y207D02*
X719Y207D01*
X730Y207D02*
X739Y207D01*
X378Y206D02*
X387Y206D01*
X414Y206D02*
X424Y206D01*
X447Y206D02*
X457Y206D01*
X568Y206D02*
X592Y206D01*
X628Y206D02*
X637Y206D01*
X667Y206D02*
X676Y206D01*
X709Y206D02*
X718Y206D01*
X730Y206D02*
X740Y206D01*
X342Y205D02*
X387Y205D01*
X414Y205D02*
X424Y205D01*
X447Y205D02*
X457Y205D01*
X569Y205D02*
X591Y205D01*
X628Y205D02*
X637Y205D01*
X667Y205D02*
X676Y205D01*
X709Y205D02*
X718Y205D01*
X731Y205D02*
X740Y205D01*
X340Y204D02*
X387Y204D01*
X414Y204D02*
X424Y204D01*
X446Y204D02*
X456Y204D01*
X569Y204D02*
X590Y204D01*
X628Y204D02*
X637Y204D01*
X667Y204D02*
X676Y204D01*
X708Y204D02*
X718Y204D01*
X731Y204D02*
X740Y204D01*
X340Y203D02*
X387Y203D01*
X415Y203D02*
X425Y203D01*
X446Y203D02*
X456Y203D01*
X570Y203D02*
X589Y203D01*
X628Y203D02*
X637Y203D01*
X667Y203D02*
X676Y203D01*
X708Y203D02*
X717Y203D01*
X731Y203D02*
X741Y203D01*
X339Y202D02*
X387Y202D01*
X415Y202D02*
X425Y202D01*
X445Y202D02*
X455Y202D01*
X571Y202D02*
X588Y202D01*
X628Y202D02*
X637Y202D01*
X667Y202D02*
X676Y202D01*
X708Y202D02*
X717Y202D01*
X731Y202D02*
X741Y202D01*
X339Y201D02*
X387Y201D01*
X416Y201D02*
X426Y201D01*
X445Y201D02*
X455Y201D01*
X572Y201D02*
X588Y201D01*
X628Y201D02*
X637Y201D01*
X667Y201D02*
X676Y201D01*
X707Y201D02*
X717Y201D01*
X732Y201D02*
X741Y201D01*
X339Y200D02*
X387Y200D01*
X416Y200D02*
X426Y200D01*
X444Y200D02*
X454Y200D01*
X573Y200D02*
X587Y200D01*
X628Y200D02*
X637Y200D01*
X667Y200D02*
X676Y200D01*
X707Y200D02*
X717Y200D01*
X732Y200D02*
X742Y200D01*
X339Y199D02*
X387Y199D01*
X417Y199D02*
X427Y199D01*
X444Y199D02*
X454Y199D01*
X574Y199D02*
X586Y199D01*
X628Y199D02*
X637Y199D01*
X667Y199D02*
X676Y199D01*
X707Y199D02*
X716Y199D01*
X732Y199D02*
X742Y199D01*
X339Y198D02*
X387Y198D01*
X417Y198D02*
X427Y198D01*
X444Y198D02*
X454Y198D01*
X573Y198D02*
X587Y198D01*
X628Y198D02*
X637Y198D01*
X667Y198D02*
X676Y198D01*
X706Y198D02*
X716Y198D01*
X733Y198D02*
X742Y198D01*
X339Y197D02*
X387Y197D01*
X417Y197D02*
X427Y197D01*
X443Y197D02*
X453Y197D01*
X572Y197D02*
X587Y197D01*
X628Y197D02*
X637Y197D01*
X667Y197D02*
X676Y197D01*
X706Y197D02*
X716Y197D01*
X733Y197D02*
X742Y197D01*
X339Y196D02*
X387Y196D01*
X418Y196D02*
X428Y196D01*
X443Y196D02*
X453Y196D01*
X571Y196D02*
X588Y196D01*
X628Y196D02*
X637Y196D01*
X666Y196D02*
X676Y196D01*
X706Y196D02*
X743Y196D01*
X339Y195D02*
X348Y195D01*
X378Y195D02*
X387Y195D01*
X418Y195D02*
X428Y195D01*
X442Y195D02*
X452Y195D01*
X571Y195D02*
X589Y195D01*
X628Y195D02*
X637Y195D01*
X666Y195D02*
X676Y195D01*
X706Y195D02*
X743Y195D01*
X339Y194D02*
X348Y194D01*
X378Y194D02*
X387Y194D01*
X419Y194D02*
X429Y194D01*
X442Y194D02*
X452Y194D01*
X570Y194D02*
X590Y194D01*
X628Y194D02*
X637Y194D01*
X666Y194D02*
X675Y194D01*
X705Y194D02*
X743Y194D01*
X339Y193D02*
X348Y193D01*
X378Y193D02*
X387Y193D01*
X419Y193D02*
X429Y193D01*
X441Y193D02*
X451Y193D01*
X569Y193D02*
X591Y193D01*
X628Y193D02*
X637Y193D01*
X666Y193D02*
X675Y193D01*
X705Y193D02*
X744Y193D01*
X339Y192D02*
X348Y192D01*
X378Y192D02*
X387Y192D01*
X420Y192D02*
X430Y192D01*
X441Y192D02*
X451Y192D01*
X568Y192D02*
X592Y192D01*
X628Y192D02*
X637Y192D01*
X666Y192D02*
X675Y192D01*
X705Y192D02*
X744Y192D01*
X339Y191D02*
X348Y191D01*
X378Y191D02*
X387Y191D01*
X420Y191D02*
X430Y191D01*
X441Y191D02*
X451Y191D01*
X567Y191D02*
X592Y191D01*
X628Y191D02*
X637Y191D01*
X666Y191D02*
X675Y191D01*
X704Y191D02*
X744Y191D01*
X339Y190D02*
X348Y190D01*
X378Y190D02*
X387Y190D01*
X421Y190D02*
X431Y190D01*
X440Y190D02*
X450Y190D01*
X566Y190D02*
X579Y190D01*
X581Y190D02*
X593Y190D01*
X628Y190D02*
X637Y190D01*
X666Y190D02*
X675Y190D01*
X704Y190D02*
X744Y190D01*
X339Y189D02*
X348Y189D01*
X378Y189D02*
X387Y189D01*
X421Y189D02*
X431Y189D01*
X440Y189D02*
X450Y189D01*
X566Y189D02*
X578Y189D01*
X582Y189D02*
X594Y189D01*
X628Y189D02*
X639Y189D01*
X666Y189D02*
X675Y189D01*
X704Y189D02*
X745Y189D01*
X339Y188D02*
X348Y188D01*
X378Y188D02*
X387Y188D01*
X421Y188D02*
X431Y188D01*
X439Y188D02*
X449Y188D01*
X565Y188D02*
X577Y188D01*
X583Y188D02*
X595Y188D01*
X628Y188D02*
X640Y188D01*
X666Y188D02*
X675Y188D01*
X704Y188D02*
X745Y188D01*
X339Y187D02*
X348Y187D01*
X378Y187D02*
X387Y187D01*
X422Y187D02*
X432Y187D01*
X439Y187D02*
X449Y187D01*
X564Y187D02*
X576Y187D01*
X583Y187D02*
X596Y187D01*
X628Y187D02*
X642Y187D01*
X666Y187D02*
X675Y187D01*
X703Y187D02*
X745Y187D01*
X339Y186D02*
X348Y186D01*
X378Y186D02*
X387Y186D01*
X422Y186D02*
X432Y186D01*
X438Y186D02*
X448Y186D01*
X563Y186D02*
X575Y186D01*
X584Y186D02*
X597Y186D01*
X628Y186D02*
X643Y186D01*
X666Y186D02*
X675Y186D01*
X703Y186D02*
X712Y186D01*
X736Y186D02*
X746Y186D01*
X339Y185D02*
X348Y185D01*
X378Y185D02*
X387Y185D01*
X423Y185D02*
X433Y185D01*
X438Y185D02*
X448Y185D01*
X562Y185D02*
X574Y185D01*
X585Y185D02*
X597Y185D01*
X628Y185D02*
X645Y185D01*
X666Y185D02*
X675Y185D01*
X703Y185D02*
X712Y185D01*
X736Y185D02*
X746Y185D01*
X339Y184D02*
X348Y184D01*
X378Y184D02*
X387Y184D01*
X423Y184D02*
X433Y184D01*
X438Y184D02*
X447Y184D01*
X561Y184D02*
X574Y184D01*
X586Y184D02*
X598Y184D01*
X628Y184D02*
X647Y184D01*
X666Y184D02*
X675Y184D01*
X702Y184D02*
X712Y184D01*
X737Y184D02*
X746Y184D01*
X339Y183D02*
X348Y183D01*
X378Y183D02*
X387Y183D01*
X424Y183D02*
X434Y183D01*
X437Y183D02*
X447Y183D01*
X561Y183D02*
X573Y183D01*
X587Y183D02*
X599Y183D01*
X628Y183D02*
X648Y183D01*
X666Y183D02*
X675Y183D01*
X702Y183D02*
X712Y183D01*
X737Y183D02*
X747Y183D01*
X339Y182D02*
X348Y182D01*
X378Y182D02*
X387Y182D01*
X424Y182D02*
X434Y182D01*
X437Y182D02*
X447Y182D01*
X560Y182D02*
X572Y182D01*
X588Y182D02*
X600Y182D01*
X628Y182D02*
X650Y182D01*
X665Y182D02*
X675Y182D01*
X702Y182D02*
X711Y182D01*
X737Y182D02*
X747Y182D01*
X339Y181D02*
X348Y181D01*
X378Y181D02*
X387Y181D01*
X424Y181D02*
X446Y181D01*
X559Y181D02*
X571Y181D01*
X588Y181D02*
X601Y181D01*
X628Y181D02*
X651Y181D01*
X664Y181D02*
X675Y181D01*
X702Y181D02*
X711Y181D01*
X738Y181D02*
X747Y181D01*
X339Y180D02*
X348Y180D01*
X378Y180D02*
X387Y180D01*
X425Y180D02*
X446Y180D01*
X558Y180D02*
X570Y180D01*
X589Y180D02*
X602Y180D01*
X628Y180D02*
X653Y180D01*
X662Y180D02*
X674Y180D01*
X701Y180D02*
X711Y180D01*
X738Y180D02*
X747Y180D01*
X339Y179D02*
X387Y179D01*
X425Y179D02*
X445Y179D01*
X557Y179D02*
X569Y179D01*
X590Y179D02*
X602Y179D01*
X628Y179D02*
X674Y179D01*
X701Y179D02*
X710Y179D01*
X738Y179D02*
X748Y179D01*
X339Y178D02*
X387Y178D01*
X426Y178D02*
X445Y178D01*
X556Y178D02*
X569Y178D01*
X591Y178D02*
X603Y178D01*
X628Y178D02*
X674Y178D01*
X701Y178D02*
X710Y178D01*
X738Y178D02*
X748Y178D01*
X339Y177D02*
X387Y177D01*
X426Y177D02*
X444Y177D01*
X556Y177D02*
X568Y177D01*
X592Y177D02*
X604Y177D01*
X628Y177D02*
X637Y177D01*
X640Y177D02*
X673Y177D01*
X700Y177D02*
X710Y177D01*
X739Y177D02*
X748Y177D01*
X339Y176D02*
X387Y176D01*
X427Y176D02*
X444Y176D01*
X556Y176D02*
X567Y176D01*
X593Y176D02*
X604Y176D01*
X628Y176D02*
X637Y176D01*
X641Y176D02*
X672Y176D01*
X700Y176D02*
X710Y176D01*
X739Y176D02*
X749Y176D01*
X339Y175D02*
X387Y175D01*
X427Y175D02*
X444Y175D01*
X555Y175D02*
X566Y175D01*
X593Y175D02*
X604Y175D01*
X628Y175D02*
X637Y175D01*
X643Y175D02*
X671Y175D01*
X700Y175D02*
X709Y175D01*
X739Y175D02*
X749Y175D01*
X339Y174D02*
X387Y174D01*
X428Y174D02*
X443Y174D01*
X556Y174D02*
X565Y174D01*
X594Y174D02*
X604Y174D01*
X628Y174D02*
X637Y174D01*
X644Y174D02*
X671Y174D01*
X700Y174D02*
X709Y174D01*
X740Y174D02*
X749Y174D01*
X339Y173D02*
X387Y173D01*
X428Y173D02*
X443Y173D01*
X556Y173D02*
X565Y173D01*
X595Y173D02*
X604Y173D01*
X628Y173D02*
X636Y173D01*
X646Y173D02*
X669Y173D01*
X700Y173D02*
X709Y173D01*
X740Y173D02*
X748Y173D01*
X340Y172D02*
X386Y172D01*
X429Y172D02*
X442Y172D01*
X556Y172D02*
X564Y172D01*
X596Y172D02*
X603Y172D01*
X629Y172D02*
X636Y172D01*
X648Y172D02*
X668Y172D01*
X701Y172D02*
X708Y172D01*
X741Y172D02*
X748Y172D01*
X341Y171D02*
X386Y171D01*
X429Y171D02*
X441Y171D01*
X557Y171D02*
X563Y171D01*
X597Y171D02*
X602Y171D01*
X629Y171D02*
X635Y171D01*
X650Y171D02*
X666Y171D01*
X702Y171D02*
X707Y171D01*
X741Y171D02*
X747Y171D01*
X342Y170D02*
X384Y170D01*
X431Y170D02*
X440Y170D01*
X559Y170D02*
X561Y170D01*
X599Y170D02*
X600Y170D01*
X631Y170D02*
X633Y170D01*
X653Y170D02*
X663Y170D01*
X704Y170D02*
X705Y170D01*
X743Y170D02*
X745Y170D01*
D02*
G04 End of Silk0*
M02*