G04 MADE WITH FRITZING*
G04 WWW.FRITZING.ORG*
G04 DOUBLE SIDED*
G04 HOLES PLATED*
G04 CONTOUR ON CENTER OF CONTOUR VECTOR*
%ASAXBY*%
%FSLAX23Y23*%
%MOIN*%
%OFA0B0*%
%SFA1.0B1.0*%
%ADD10C,0.084000*%
%ADD11C,0.135984*%
%ADD12C,0.088000*%
%ADD13R,0.001000X0.001000*%
%LNMASK0*%
G90*
G70*
G54D10*
X221Y853D03*
X271Y953D03*
X321Y853D03*
X421Y853D03*
X521Y853D03*
X371Y953D03*
X471Y953D03*
X571Y953D03*
G54D11*
X621Y1203D03*
X171Y1203D03*
G54D12*
X197Y63D03*
X297Y63D03*
X397Y63D03*
X497Y63D03*
X597Y63D03*
G54D13*
X529Y994D02*
X612Y994D01*
X529Y993D02*
X612Y993D01*
X529Y992D02*
X612Y992D01*
X529Y991D02*
X612Y991D01*
X529Y990D02*
X612Y990D01*
X529Y989D02*
X612Y989D01*
X529Y988D02*
X612Y988D01*
X529Y987D02*
X612Y987D01*
X529Y986D02*
X612Y986D01*
X529Y985D02*
X612Y985D01*
X529Y984D02*
X612Y984D01*
X529Y983D02*
X612Y983D01*
X529Y982D02*
X612Y982D01*
X529Y981D02*
X612Y981D01*
X529Y980D02*
X612Y980D01*
X529Y979D02*
X612Y979D01*
X529Y978D02*
X612Y978D01*
X529Y977D02*
X612Y977D01*
X529Y976D02*
X612Y976D01*
X529Y975D02*
X612Y975D01*
X529Y974D02*
X612Y974D01*
X529Y973D02*
X612Y973D01*
X529Y972D02*
X612Y972D01*
X529Y971D02*
X612Y971D01*
X529Y970D02*
X612Y970D01*
X529Y969D02*
X612Y969D01*
X529Y968D02*
X612Y968D01*
X529Y967D02*
X567Y967D01*
X575Y967D02*
X612Y967D01*
X529Y966D02*
X564Y966D01*
X578Y966D02*
X612Y966D01*
X529Y965D02*
X562Y965D01*
X579Y965D02*
X612Y965D01*
X529Y964D02*
X561Y964D01*
X581Y964D02*
X612Y964D01*
X529Y963D02*
X560Y963D01*
X582Y963D02*
X612Y963D01*
X529Y962D02*
X559Y962D01*
X583Y962D02*
X612Y962D01*
X529Y961D02*
X558Y961D01*
X583Y961D02*
X612Y961D01*
X529Y960D02*
X557Y960D01*
X584Y960D02*
X612Y960D01*
X529Y959D02*
X557Y959D01*
X585Y959D02*
X612Y959D01*
X529Y958D02*
X556Y958D01*
X585Y958D02*
X612Y958D01*
X529Y957D02*
X556Y957D01*
X585Y957D02*
X612Y957D01*
X529Y956D02*
X556Y956D01*
X586Y956D02*
X612Y956D01*
X529Y955D02*
X556Y955D01*
X586Y955D02*
X612Y955D01*
X529Y954D02*
X556Y954D01*
X586Y954D02*
X612Y954D01*
X529Y953D02*
X556Y953D01*
X586Y953D02*
X612Y953D01*
X529Y952D02*
X556Y952D01*
X586Y952D02*
X612Y952D01*
X529Y951D02*
X556Y951D01*
X586Y951D02*
X612Y951D01*
X529Y950D02*
X556Y950D01*
X586Y950D02*
X612Y950D01*
X529Y949D02*
X556Y949D01*
X585Y949D02*
X612Y949D01*
X529Y948D02*
X556Y948D01*
X585Y948D02*
X612Y948D01*
X529Y947D02*
X557Y947D01*
X585Y947D02*
X612Y947D01*
X529Y946D02*
X557Y946D01*
X584Y946D02*
X612Y946D01*
X529Y945D02*
X558Y945D01*
X584Y945D02*
X612Y945D01*
X529Y944D02*
X558Y944D01*
X583Y944D02*
X612Y944D01*
X529Y943D02*
X559Y943D01*
X582Y943D02*
X612Y943D01*
X529Y942D02*
X560Y942D01*
X581Y942D02*
X612Y942D01*
X529Y941D02*
X561Y941D01*
X580Y941D02*
X612Y941D01*
X529Y940D02*
X563Y940D01*
X579Y940D02*
X612Y940D01*
X529Y939D02*
X565Y939D01*
X577Y939D02*
X612Y939D01*
X529Y938D02*
X612Y938D01*
X529Y937D02*
X612Y937D01*
X529Y936D02*
X612Y936D01*
X529Y935D02*
X612Y935D01*
X529Y934D02*
X612Y934D01*
X529Y933D02*
X612Y933D01*
X529Y932D02*
X612Y932D01*
X529Y931D02*
X612Y931D01*
X529Y930D02*
X612Y930D01*
X529Y929D02*
X612Y929D01*
X529Y928D02*
X612Y928D01*
X529Y927D02*
X612Y927D01*
X529Y926D02*
X612Y926D01*
X529Y925D02*
X612Y925D01*
X529Y924D02*
X612Y924D01*
X529Y923D02*
X612Y923D01*
X529Y922D02*
X612Y922D01*
X529Y921D02*
X612Y921D01*
X529Y920D02*
X612Y920D01*
X529Y919D02*
X612Y919D01*
X529Y918D02*
X612Y918D01*
X529Y917D02*
X612Y917D01*
X529Y916D02*
X612Y916D01*
X529Y915D02*
X612Y915D01*
X529Y914D02*
X612Y914D01*
X529Y913D02*
X612Y913D01*
X529Y912D02*
X612Y912D01*
X529Y911D02*
X612Y911D01*
D02*
G04 End of Mask0*
M02*