G04 MADE WITH FRITZING*
G04 WWW.FRITZING.ORG*
G04 DOUBLE SIDED*
G04 HOLES PLATED*
G04 CONTOUR ON CENTER OF CONTOUR VECTOR*
%ASAXBY*%
%FSLAX23Y23*%
%MOIN*%
%OFA0B0*%
%SFA1.0B1.0*%
%ADD10R,0.787402X1.338580X0.771402X1.322580*%
%ADD11C,0.008000*%
%ADD12R,0.001000X0.001000*%
%LNSILK0*%
G90*
G70*
G54D11*
X4Y1335D02*
X783Y1335D01*
X783Y4D01*
X4Y4D01*
X4Y1335D01*
D02*
G54D12*
X206Y599D02*
X210Y599D01*
X351Y599D02*
X355Y599D01*
X670Y599D02*
X719Y599D01*
X205Y598D02*
X212Y598D01*
X349Y598D02*
X356Y598D01*
X670Y598D02*
X719Y598D01*
X204Y597D02*
X212Y597D01*
X349Y597D02*
X357Y597D01*
X670Y597D02*
X719Y597D01*
X204Y596D02*
X213Y596D01*
X348Y596D02*
X357Y596D01*
X670Y596D02*
X719Y596D01*
X204Y595D02*
X213Y595D01*
X348Y595D02*
X357Y595D01*
X670Y595D02*
X719Y595D01*
X204Y594D02*
X213Y594D01*
X348Y594D02*
X357Y594D01*
X670Y594D02*
X719Y594D01*
X204Y593D02*
X213Y593D01*
X348Y593D02*
X357Y593D01*
X670Y593D02*
X719Y593D01*
X204Y592D02*
X213Y592D01*
X348Y592D02*
X357Y592D01*
X670Y592D02*
X719Y592D01*
X204Y591D02*
X213Y591D01*
X348Y591D02*
X357Y591D01*
X670Y591D02*
X719Y591D01*
X204Y590D02*
X213Y590D01*
X348Y590D02*
X357Y590D01*
X670Y590D02*
X719Y590D01*
X204Y589D02*
X213Y589D01*
X348Y589D02*
X357Y589D01*
X670Y589D02*
X679Y589D01*
X690Y589D02*
X699Y589D01*
X710Y589D02*
X719Y589D01*
X204Y588D02*
X213Y588D01*
X348Y588D02*
X357Y588D01*
X670Y588D02*
X679Y588D01*
X690Y588D02*
X699Y588D01*
X710Y588D02*
X719Y588D01*
X204Y587D02*
X213Y587D01*
X348Y587D02*
X357Y587D01*
X670Y587D02*
X679Y587D01*
X690Y587D02*
X699Y587D01*
X710Y587D02*
X719Y587D01*
X204Y586D02*
X213Y586D01*
X348Y586D02*
X357Y586D01*
X670Y586D02*
X679Y586D01*
X690Y586D02*
X699Y586D01*
X710Y586D02*
X719Y586D01*
X204Y585D02*
X213Y585D01*
X348Y585D02*
X357Y585D01*
X670Y585D02*
X679Y585D01*
X690Y585D02*
X699Y585D01*
X710Y585D02*
X718Y585D01*
X204Y584D02*
X213Y584D01*
X348Y584D02*
X357Y584D01*
X670Y584D02*
X678Y584D01*
X690Y584D02*
X699Y584D01*
X710Y584D02*
X718Y584D01*
X204Y583D02*
X213Y583D01*
X348Y583D02*
X357Y583D01*
X671Y583D02*
X678Y583D01*
X690Y583D02*
X699Y583D01*
X711Y583D02*
X717Y583D01*
X204Y582D02*
X213Y582D01*
X348Y582D02*
X357Y582D01*
X672Y582D02*
X676Y582D01*
X690Y582D02*
X699Y582D01*
X712Y582D02*
X716Y582D01*
X204Y581D02*
X213Y581D01*
X348Y581D02*
X357Y581D01*
X690Y581D02*
X699Y581D01*
X204Y580D02*
X213Y580D01*
X348Y580D02*
X357Y580D01*
X690Y580D02*
X699Y580D01*
X204Y579D02*
X213Y579D01*
X348Y579D02*
X357Y579D01*
X690Y579D02*
X699Y579D01*
X102Y578D02*
X130Y578D01*
X178Y578D02*
X193Y578D01*
X204Y578D02*
X213Y578D01*
X248Y578D02*
X272Y578D01*
X348Y578D02*
X357Y578D01*
X464Y578D02*
X480Y578D01*
X495Y578D02*
X499Y578D01*
X528Y578D02*
X532Y578D01*
X545Y578D02*
X560Y578D01*
X600Y578D02*
X604Y578D01*
X640Y578D02*
X644Y578D01*
X690Y578D02*
X699Y578D01*
X99Y577D02*
X133Y577D01*
X176Y577D02*
X196Y577D01*
X204Y577D02*
X213Y577D01*
X246Y577D02*
X274Y577D01*
X348Y577D02*
X357Y577D01*
X461Y577D02*
X481Y577D01*
X494Y577D02*
X500Y577D01*
X527Y577D02*
X533Y577D01*
X542Y577D02*
X562Y577D01*
X599Y577D02*
X605Y577D01*
X639Y577D02*
X645Y577D01*
X690Y577D02*
X699Y577D01*
X98Y576D02*
X134Y576D01*
X174Y576D02*
X198Y576D01*
X204Y576D02*
X213Y576D01*
X244Y576D02*
X274Y576D01*
X348Y576D02*
X357Y576D01*
X460Y576D02*
X482Y576D01*
X493Y576D02*
X501Y576D01*
X526Y576D02*
X534Y576D01*
X541Y576D02*
X564Y576D01*
X598Y576D02*
X606Y576D01*
X638Y576D02*
X646Y576D01*
X690Y576D02*
X699Y576D01*
X96Y575D02*
X135Y575D01*
X173Y575D02*
X199Y575D01*
X204Y575D02*
X213Y575D01*
X243Y575D02*
X275Y575D01*
X348Y575D02*
X357Y575D01*
X458Y575D02*
X483Y575D01*
X493Y575D02*
X502Y575D01*
X526Y575D02*
X534Y575D01*
X539Y575D02*
X565Y575D01*
X598Y575D02*
X606Y575D01*
X638Y575D02*
X646Y575D01*
X690Y575D02*
X699Y575D01*
X95Y574D02*
X136Y574D01*
X172Y574D02*
X201Y574D01*
X204Y574D02*
X213Y574D01*
X242Y574D02*
X275Y574D01*
X348Y574D02*
X357Y574D01*
X457Y574D02*
X484Y574D01*
X493Y574D02*
X502Y574D01*
X525Y574D02*
X534Y574D01*
X538Y574D02*
X566Y574D01*
X598Y574D02*
X607Y574D01*
X637Y574D02*
X646Y574D01*
X690Y574D02*
X699Y574D01*
X94Y573D02*
X137Y573D01*
X171Y573D02*
X202Y573D01*
X204Y573D02*
X213Y573D01*
X241Y573D02*
X275Y573D01*
X348Y573D02*
X357Y573D01*
X456Y573D02*
X486Y573D01*
X493Y573D02*
X502Y573D01*
X525Y573D02*
X534Y573D01*
X537Y573D02*
X568Y573D01*
X598Y573D02*
X607Y573D01*
X637Y573D02*
X646Y573D01*
X690Y573D02*
X699Y573D01*
X94Y572D02*
X138Y572D01*
X169Y572D02*
X213Y572D01*
X240Y572D02*
X275Y572D01*
X348Y572D02*
X357Y572D01*
X456Y572D02*
X487Y572D01*
X493Y572D02*
X502Y572D01*
X525Y572D02*
X569Y572D01*
X598Y572D02*
X607Y572D01*
X637Y572D02*
X646Y572D01*
X690Y572D02*
X699Y572D01*
X93Y571D02*
X138Y571D01*
X168Y571D02*
X213Y571D01*
X240Y571D02*
X274Y571D01*
X348Y571D02*
X357Y571D01*
X455Y571D02*
X488Y571D01*
X493Y571D02*
X502Y571D01*
X525Y571D02*
X570Y571D01*
X598Y571D02*
X607Y571D01*
X637Y571D02*
X646Y571D01*
X690Y571D02*
X699Y571D01*
X93Y570D02*
X139Y570D01*
X167Y570D02*
X213Y570D01*
X239Y570D02*
X274Y570D01*
X348Y570D02*
X357Y570D01*
X455Y570D02*
X489Y570D01*
X493Y570D02*
X502Y570D01*
X525Y570D02*
X571Y570D01*
X598Y570D02*
X607Y570D01*
X637Y570D02*
X646Y570D01*
X690Y570D02*
X699Y570D01*
X93Y569D02*
X139Y569D01*
X167Y569D02*
X213Y569D01*
X239Y569D02*
X272Y569D01*
X348Y569D02*
X357Y569D01*
X454Y569D02*
X490Y569D01*
X493Y569D02*
X502Y569D01*
X525Y569D02*
X571Y569D01*
X598Y569D02*
X607Y569D01*
X637Y569D02*
X646Y569D01*
X690Y569D02*
X699Y569D01*
X93Y568D02*
X103Y568D01*
X129Y568D02*
X139Y568D01*
X166Y568D02*
X180Y568D01*
X192Y568D02*
X213Y568D01*
X238Y568D02*
X249Y568D01*
X348Y568D02*
X357Y568D01*
X454Y568D02*
X465Y568D01*
X477Y568D02*
X502Y568D01*
X525Y568D02*
X546Y568D01*
X559Y568D02*
X572Y568D01*
X598Y568D02*
X607Y568D01*
X637Y568D02*
X646Y568D01*
X690Y568D02*
X699Y568D01*
X94Y567D02*
X102Y567D01*
X130Y567D02*
X139Y567D01*
X165Y567D02*
X178Y567D01*
X194Y567D02*
X213Y567D01*
X238Y567D02*
X248Y567D01*
X348Y567D02*
X357Y567D01*
X453Y567D02*
X464Y567D01*
X478Y567D02*
X502Y567D01*
X525Y567D02*
X544Y567D01*
X560Y567D02*
X573Y567D01*
X598Y567D02*
X607Y567D01*
X637Y567D02*
X646Y567D01*
X690Y567D02*
X699Y567D01*
X94Y566D02*
X100Y566D01*
X130Y566D02*
X139Y566D01*
X165Y566D02*
X177Y566D01*
X195Y566D02*
X213Y566D01*
X238Y566D02*
X247Y566D01*
X348Y566D02*
X357Y566D01*
X453Y566D02*
X463Y566D01*
X479Y566D02*
X502Y566D01*
X525Y566D02*
X543Y566D01*
X561Y566D02*
X573Y566D01*
X598Y566D02*
X607Y566D01*
X637Y566D02*
X646Y566D01*
X690Y566D02*
X699Y566D01*
X95Y565D02*
X99Y565D01*
X130Y565D02*
X139Y565D01*
X165Y565D02*
X176Y565D01*
X196Y565D02*
X213Y565D01*
X238Y565D02*
X247Y565D01*
X348Y565D02*
X357Y565D01*
X453Y565D02*
X462Y565D01*
X480Y565D02*
X502Y565D01*
X525Y565D02*
X542Y565D01*
X563Y565D02*
X574Y565D01*
X598Y565D02*
X607Y565D01*
X637Y565D02*
X646Y565D01*
X690Y565D02*
X699Y565D01*
X130Y564D02*
X139Y564D01*
X164Y564D02*
X175Y564D01*
X197Y564D02*
X213Y564D01*
X238Y564D02*
X247Y564D01*
X348Y564D02*
X357Y564D01*
X453Y564D02*
X462Y564D01*
X481Y564D02*
X502Y564D01*
X525Y564D02*
X541Y564D01*
X564Y564D02*
X574Y564D01*
X598Y564D02*
X608Y564D01*
X636Y564D02*
X646Y564D01*
X690Y564D02*
X699Y564D01*
X128Y563D02*
X139Y563D01*
X164Y563D02*
X174Y563D01*
X198Y563D02*
X213Y563D01*
X238Y563D02*
X247Y563D01*
X348Y563D02*
X357Y563D01*
X453Y563D02*
X462Y563D01*
X483Y563D02*
X502Y563D01*
X525Y563D02*
X540Y563D01*
X564Y563D02*
X574Y563D01*
X598Y563D02*
X608Y563D01*
X636Y563D02*
X646Y563D01*
X690Y563D02*
X699Y563D01*
X126Y562D02*
X139Y562D01*
X164Y562D02*
X173Y562D01*
X200Y562D02*
X213Y562D01*
X238Y562D02*
X247Y562D01*
X348Y562D02*
X357Y562D01*
X453Y562D02*
X462Y562D01*
X484Y562D02*
X502Y562D01*
X525Y562D02*
X539Y562D01*
X565Y562D02*
X574Y562D01*
X599Y562D02*
X609Y562D01*
X635Y562D02*
X645Y562D01*
X690Y562D02*
X699Y562D01*
X124Y561D02*
X138Y561D01*
X164Y561D02*
X173Y561D01*
X201Y561D02*
X213Y561D01*
X237Y561D02*
X247Y561D01*
X348Y561D02*
X357Y561D01*
X453Y561D02*
X462Y561D01*
X485Y561D02*
X502Y561D01*
X525Y561D02*
X537Y561D01*
X565Y561D02*
X574Y561D01*
X599Y561D02*
X609Y561D01*
X635Y561D02*
X645Y561D01*
X690Y561D02*
X699Y561D01*
X121Y560D02*
X138Y560D01*
X164Y560D02*
X173Y560D01*
X202Y560D02*
X213Y560D01*
X237Y560D02*
X247Y560D01*
X348Y560D02*
X357Y560D01*
X453Y560D02*
X462Y560D01*
X486Y560D02*
X502Y560D01*
X525Y560D02*
X536Y560D01*
X565Y560D02*
X574Y560D01*
X599Y560D02*
X609Y560D01*
X635Y560D02*
X645Y560D01*
X690Y560D02*
X699Y560D01*
X119Y559D02*
X137Y559D01*
X164Y559D02*
X173Y559D01*
X203Y559D02*
X213Y559D01*
X237Y559D02*
X247Y559D01*
X348Y559D02*
X357Y559D01*
X453Y559D02*
X462Y559D01*
X487Y559D02*
X502Y559D01*
X525Y559D02*
X535Y559D01*
X565Y559D02*
X574Y559D01*
X600Y559D02*
X610Y559D01*
X634Y559D02*
X644Y559D01*
X690Y559D02*
X699Y559D01*
X117Y558D02*
X137Y558D01*
X164Y558D02*
X173Y558D01*
X203Y558D02*
X213Y558D01*
X237Y558D02*
X247Y558D01*
X348Y558D02*
X357Y558D01*
X454Y558D02*
X461Y558D01*
X488Y558D02*
X502Y558D01*
X525Y558D02*
X535Y558D01*
X565Y558D02*
X574Y558D01*
X600Y558D02*
X610Y558D01*
X634Y558D02*
X644Y558D01*
X690Y558D02*
X699Y558D01*
X114Y557D02*
X136Y557D01*
X164Y557D02*
X173Y557D01*
X204Y557D02*
X213Y557D01*
X237Y557D02*
X274Y557D01*
X348Y557D02*
X357Y557D01*
X455Y557D02*
X460Y557D01*
X490Y557D02*
X502Y557D01*
X525Y557D02*
X534Y557D01*
X565Y557D02*
X574Y557D01*
X601Y557D02*
X611Y557D01*
X633Y557D02*
X643Y557D01*
X690Y557D02*
X699Y557D01*
X112Y556D02*
X135Y556D01*
X164Y556D02*
X173Y556D01*
X204Y556D02*
X213Y556D01*
X237Y556D02*
X277Y556D01*
X348Y556D02*
X357Y556D01*
X457Y556D02*
X458Y556D01*
X491Y556D02*
X502Y556D01*
X525Y556D02*
X534Y556D01*
X565Y556D02*
X574Y556D01*
X601Y556D02*
X611Y556D01*
X633Y556D02*
X643Y556D01*
X690Y556D02*
X699Y556D01*
X110Y555D02*
X133Y555D01*
X164Y555D02*
X173Y555D01*
X204Y555D02*
X213Y555D01*
X237Y555D02*
X278Y555D01*
X348Y555D02*
X357Y555D01*
X492Y555D02*
X502Y555D01*
X525Y555D02*
X534Y555D01*
X565Y555D02*
X574Y555D01*
X602Y555D02*
X612Y555D01*
X632Y555D02*
X642Y555D01*
X690Y555D02*
X699Y555D01*
X107Y554D02*
X132Y554D01*
X164Y554D02*
X173Y554D01*
X204Y554D02*
X213Y554D01*
X237Y554D02*
X280Y554D01*
X348Y554D02*
X357Y554D01*
X493Y554D02*
X502Y554D01*
X525Y554D02*
X534Y554D01*
X565Y554D02*
X574Y554D01*
X602Y554D02*
X612Y554D01*
X632Y554D02*
X642Y554D01*
X690Y554D02*
X699Y554D01*
X105Y553D02*
X129Y553D01*
X164Y553D02*
X173Y553D01*
X204Y553D02*
X213Y553D01*
X237Y553D02*
X281Y553D01*
X348Y553D02*
X357Y553D01*
X493Y553D02*
X502Y553D01*
X525Y553D02*
X534Y553D01*
X565Y553D02*
X574Y553D01*
X602Y553D02*
X613Y553D01*
X632Y553D02*
X642Y553D01*
X690Y553D02*
X699Y553D01*
X103Y552D02*
X127Y552D01*
X164Y552D02*
X173Y552D01*
X204Y552D02*
X213Y552D01*
X237Y552D02*
X282Y552D01*
X348Y552D02*
X357Y552D01*
X493Y552D02*
X502Y552D01*
X525Y552D02*
X534Y552D01*
X565Y552D02*
X574Y552D01*
X603Y552D02*
X613Y552D01*
X631Y552D02*
X641Y552D01*
X690Y552D02*
X699Y552D01*
X101Y551D02*
X125Y551D01*
X164Y551D02*
X173Y551D01*
X204Y551D02*
X213Y551D01*
X237Y551D02*
X282Y551D01*
X348Y551D02*
X357Y551D01*
X493Y551D02*
X502Y551D01*
X525Y551D02*
X534Y551D01*
X565Y551D02*
X574Y551D01*
X603Y551D02*
X613Y551D01*
X631Y551D02*
X641Y551D01*
X690Y551D02*
X699Y551D01*
X99Y550D02*
X122Y550D01*
X164Y550D02*
X173Y550D01*
X204Y550D02*
X213Y550D01*
X237Y550D02*
X283Y550D01*
X348Y550D02*
X357Y550D01*
X493Y550D02*
X502Y550D01*
X525Y550D02*
X534Y550D01*
X565Y550D02*
X574Y550D01*
X604Y550D02*
X614Y550D01*
X630Y550D02*
X640Y550D01*
X690Y550D02*
X699Y550D01*
X97Y549D02*
X120Y549D01*
X164Y549D02*
X173Y549D01*
X204Y549D02*
X213Y549D01*
X237Y549D02*
X284Y549D01*
X348Y549D02*
X357Y549D01*
X493Y549D02*
X502Y549D01*
X525Y549D02*
X534Y549D01*
X565Y549D02*
X574Y549D01*
X604Y549D02*
X614Y549D01*
X630Y549D02*
X640Y549D01*
X690Y549D02*
X699Y549D01*
X96Y548D02*
X118Y548D01*
X164Y548D02*
X173Y548D01*
X204Y548D02*
X213Y548D01*
X237Y548D02*
X284Y548D01*
X348Y548D02*
X357Y548D01*
X493Y548D02*
X502Y548D01*
X525Y548D02*
X534Y548D01*
X565Y548D02*
X574Y548D01*
X605Y548D02*
X615Y548D01*
X629Y548D02*
X639Y548D01*
X690Y548D02*
X699Y548D01*
X96Y547D02*
X115Y547D01*
X164Y547D02*
X173Y547D01*
X204Y547D02*
X213Y547D01*
X237Y547D02*
X249Y547D01*
X273Y547D02*
X284Y547D01*
X348Y547D02*
X357Y547D01*
X493Y547D02*
X502Y547D01*
X525Y547D02*
X535Y547D01*
X565Y547D02*
X574Y547D01*
X605Y547D02*
X615Y547D01*
X629Y547D02*
X639Y547D01*
X690Y547D02*
X699Y547D01*
X95Y546D02*
X113Y546D01*
X164Y546D02*
X173Y546D01*
X204Y546D02*
X213Y546D01*
X237Y546D02*
X248Y546D01*
X274Y546D02*
X285Y546D01*
X348Y546D02*
X357Y546D01*
X493Y546D02*
X502Y546D01*
X525Y546D02*
X535Y546D01*
X565Y546D02*
X574Y546D01*
X606Y546D02*
X616Y546D01*
X628Y546D02*
X638Y546D01*
X690Y546D02*
X699Y546D01*
X94Y545D02*
X111Y545D01*
X164Y545D02*
X173Y545D01*
X204Y545D02*
X213Y545D01*
X237Y545D02*
X247Y545D01*
X275Y545D02*
X285Y545D01*
X348Y545D02*
X357Y545D01*
X493Y545D02*
X502Y545D01*
X525Y545D02*
X536Y545D01*
X565Y545D02*
X574Y545D01*
X606Y545D02*
X616Y545D01*
X628Y545D02*
X638Y545D01*
X690Y545D02*
X699Y545D01*
X94Y544D02*
X108Y544D01*
X164Y544D02*
X173Y544D01*
X204Y544D02*
X213Y544D01*
X237Y544D02*
X246Y544D01*
X276Y544D02*
X285Y544D01*
X348Y544D02*
X357Y544D01*
X493Y544D02*
X502Y544D01*
X525Y544D02*
X537Y544D01*
X565Y544D02*
X574Y544D01*
X606Y544D02*
X617Y544D01*
X628Y544D02*
X638Y544D01*
X690Y544D02*
X699Y544D01*
X93Y543D02*
X106Y543D01*
X164Y543D02*
X173Y543D01*
X204Y543D02*
X213Y543D01*
X237Y543D02*
X246Y543D01*
X276Y543D02*
X285Y543D01*
X348Y543D02*
X357Y543D01*
X493Y543D02*
X502Y543D01*
X525Y543D02*
X538Y543D01*
X565Y543D02*
X574Y543D01*
X607Y543D02*
X617Y543D01*
X627Y543D02*
X637Y543D01*
X690Y543D02*
X699Y543D01*
X93Y542D02*
X104Y542D01*
X164Y542D02*
X173Y542D01*
X203Y542D02*
X213Y542D01*
X237Y542D02*
X246Y542D01*
X276Y542D02*
X285Y542D01*
X348Y542D02*
X357Y542D01*
X493Y542D02*
X502Y542D01*
X525Y542D02*
X539Y542D01*
X565Y542D02*
X574Y542D01*
X607Y542D02*
X617Y542D01*
X627Y542D02*
X637Y542D01*
X690Y542D02*
X699Y542D01*
X92Y541D02*
X103Y541D01*
X164Y541D02*
X173Y541D01*
X202Y541D02*
X213Y541D01*
X237Y541D02*
X246Y541D01*
X276Y541D02*
X285Y541D01*
X348Y541D02*
X357Y541D01*
X493Y541D02*
X502Y541D01*
X525Y541D02*
X541Y541D01*
X564Y541D02*
X574Y541D01*
X608Y541D02*
X618Y541D01*
X626Y541D02*
X636Y541D01*
X690Y541D02*
X699Y541D01*
X92Y540D02*
X102Y540D01*
X164Y540D02*
X173Y540D01*
X201Y540D02*
X213Y540D01*
X237Y540D02*
X246Y540D01*
X276Y540D02*
X285Y540D01*
X348Y540D02*
X357Y540D01*
X493Y540D02*
X502Y540D01*
X525Y540D02*
X542Y540D01*
X563Y540D02*
X573Y540D01*
X608Y540D02*
X618Y540D01*
X626Y540D02*
X636Y540D01*
X690Y540D02*
X699Y540D01*
X92Y539D02*
X101Y539D01*
X164Y539D02*
X173Y539D01*
X200Y539D02*
X213Y539D01*
X237Y539D02*
X246Y539D01*
X276Y539D02*
X285Y539D01*
X348Y539D02*
X357Y539D01*
X493Y539D02*
X502Y539D01*
X525Y539D02*
X543Y539D01*
X562Y539D02*
X573Y539D01*
X609Y539D02*
X619Y539D01*
X625Y539D02*
X635Y539D01*
X690Y539D02*
X699Y539D01*
X92Y538D02*
X101Y538D01*
X164Y538D02*
X174Y538D01*
X199Y538D02*
X213Y538D01*
X237Y538D02*
X246Y538D01*
X276Y538D02*
X285Y538D01*
X348Y538D02*
X357Y538D01*
X493Y538D02*
X502Y538D01*
X525Y538D02*
X544Y538D01*
X561Y538D02*
X573Y538D01*
X609Y538D02*
X619Y538D01*
X625Y538D02*
X635Y538D01*
X690Y538D02*
X699Y538D01*
X92Y537D02*
X101Y537D01*
X164Y537D02*
X174Y537D01*
X198Y537D02*
X213Y537D01*
X237Y537D02*
X248Y537D01*
X276Y537D02*
X285Y537D01*
X348Y537D02*
X357Y537D01*
X493Y537D02*
X502Y537D01*
X525Y537D02*
X545Y537D01*
X559Y537D02*
X572Y537D01*
X609Y537D02*
X620Y537D01*
X625Y537D02*
X634Y537D01*
X690Y537D02*
X699Y537D01*
X92Y536D02*
X101Y536D01*
X136Y536D02*
X137Y536D01*
X164Y536D02*
X175Y536D01*
X197Y536D02*
X213Y536D01*
X237Y536D02*
X250Y536D01*
X276Y536D02*
X285Y536D01*
X348Y536D02*
X357Y536D01*
X493Y536D02*
X502Y536D01*
X525Y536D02*
X572Y536D01*
X610Y536D02*
X634Y536D01*
X690Y536D02*
X699Y536D01*
X92Y535D02*
X102Y535D01*
X133Y535D02*
X139Y535D01*
X165Y535D02*
X176Y535D01*
X196Y535D02*
X213Y535D01*
X237Y535D02*
X252Y535D01*
X276Y535D02*
X285Y535D01*
X348Y535D02*
X357Y535D01*
X493Y535D02*
X502Y535D01*
X525Y535D02*
X571Y535D01*
X610Y535D02*
X634Y535D01*
X690Y535D02*
X699Y535D01*
X92Y534D02*
X102Y534D01*
X132Y534D02*
X140Y534D01*
X165Y534D02*
X177Y534D01*
X194Y534D02*
X213Y534D01*
X237Y534D02*
X253Y534D01*
X275Y534D02*
X285Y534D01*
X348Y534D02*
X357Y534D01*
X493Y534D02*
X502Y534D01*
X525Y534D02*
X570Y534D01*
X611Y534D02*
X633Y534D01*
X690Y534D02*
X699Y534D01*
X93Y533D02*
X103Y533D01*
X130Y533D02*
X140Y533D01*
X166Y533D02*
X179Y533D01*
X193Y533D02*
X213Y533D01*
X236Y533D02*
X255Y533D01*
X274Y533D02*
X285Y533D01*
X348Y533D02*
X357Y533D01*
X493Y533D02*
X502Y533D01*
X525Y533D02*
X569Y533D01*
X611Y533D02*
X633Y533D01*
X690Y533D02*
X699Y533D01*
X93Y532D02*
X106Y532D01*
X127Y532D02*
X140Y532D01*
X166Y532D02*
X181Y532D01*
X190Y532D02*
X213Y532D01*
X236Y532D02*
X257Y532D01*
X271Y532D02*
X284Y532D01*
X348Y532D02*
X357Y532D01*
X493Y532D02*
X502Y532D01*
X525Y532D02*
X534Y532D01*
X536Y532D02*
X568Y532D01*
X612Y532D02*
X632Y532D01*
X690Y532D02*
X699Y532D01*
X93Y531D02*
X140Y531D01*
X167Y531D02*
X213Y531D01*
X236Y531D02*
X284Y531D01*
X311Y531D02*
X357Y531D01*
X493Y531D02*
X502Y531D01*
X525Y531D02*
X534Y531D01*
X538Y531D02*
X567Y531D01*
X612Y531D02*
X632Y531D01*
X690Y531D02*
X699Y531D01*
X94Y530D02*
X140Y530D01*
X168Y530D02*
X213Y530D01*
X236Y530D02*
X283Y530D01*
X310Y530D02*
X357Y530D01*
X493Y530D02*
X502Y530D01*
X525Y530D02*
X534Y530D01*
X539Y530D02*
X566Y530D01*
X613Y530D02*
X631Y530D01*
X690Y530D02*
X699Y530D01*
X94Y529D02*
X140Y529D01*
X169Y529D02*
X213Y529D01*
X236Y529D02*
X283Y529D01*
X309Y529D02*
X357Y529D01*
X493Y529D02*
X502Y529D01*
X525Y529D02*
X534Y529D01*
X540Y529D02*
X564Y529D01*
X613Y529D02*
X631Y529D01*
X690Y529D02*
X699Y529D01*
X95Y528D02*
X139Y528D01*
X170Y528D02*
X213Y528D01*
X236Y528D02*
X282Y528D01*
X309Y528D02*
X357Y528D01*
X493Y528D02*
X502Y528D01*
X525Y528D02*
X534Y528D01*
X542Y528D02*
X563Y528D01*
X613Y528D02*
X630Y528D01*
X690Y528D02*
X699Y528D01*
X96Y527D02*
X138Y527D01*
X171Y527D02*
X201Y527D01*
X204Y527D02*
X213Y527D01*
X236Y527D02*
X281Y527D01*
X309Y527D02*
X357Y527D01*
X493Y527D02*
X502Y527D01*
X525Y527D02*
X534Y527D01*
X544Y527D02*
X561Y527D01*
X614Y527D02*
X629Y527D01*
X690Y527D02*
X699Y527D01*
X97Y526D02*
X137Y526D01*
X172Y526D02*
X200Y526D01*
X204Y526D02*
X213Y526D01*
X236Y526D02*
X245Y526D01*
X248Y526D02*
X280Y526D01*
X309Y526D02*
X357Y526D01*
X493Y526D02*
X502Y526D01*
X525Y526D02*
X534Y526D01*
X614Y526D02*
X625Y526D01*
X690Y526D02*
X699Y526D01*
X98Y525D02*
X136Y525D01*
X174Y525D02*
X199Y525D01*
X204Y525D02*
X212Y525D01*
X237Y525D02*
X245Y525D01*
X250Y525D02*
X279Y525D01*
X309Y525D02*
X357Y525D01*
X493Y525D02*
X501Y525D01*
X525Y525D02*
X534Y525D01*
X615Y525D02*
X625Y525D01*
X690Y525D02*
X698Y525D01*
X100Y524D02*
X134Y524D01*
X175Y524D02*
X197Y524D01*
X205Y524D02*
X212Y524D01*
X237Y524D02*
X244Y524D01*
X251Y524D02*
X278Y524D01*
X310Y524D02*
X357Y524D01*
X494Y524D02*
X501Y524D01*
X525Y524D02*
X534Y524D01*
X615Y524D02*
X625Y524D01*
X691Y524D02*
X698Y524D01*
X101Y523D02*
X131Y523D01*
X177Y523D02*
X195Y523D01*
X206Y523D02*
X211Y523D01*
X238Y523D02*
X243Y523D01*
X253Y523D02*
X276Y523D01*
X311Y523D02*
X357Y523D01*
X495Y523D02*
X500Y523D01*
X525Y523D02*
X534Y523D01*
X616Y523D02*
X626Y523D01*
X692Y523D02*
X697Y523D01*
X106Y522D02*
X126Y522D01*
X181Y522D02*
X190Y522D01*
X208Y522D02*
X208Y522D01*
X241Y522D02*
X241Y522D01*
X255Y522D02*
X271Y522D01*
X313Y522D02*
X357Y522D01*
X497Y522D02*
X497Y522D01*
X525Y522D02*
X534Y522D01*
X616Y522D02*
X626Y522D01*
X694Y522D02*
X694Y522D01*
X525Y521D02*
X534Y521D01*
X616Y521D02*
X627Y521D01*
X525Y520D02*
X534Y520D01*
X617Y520D02*
X627Y520D01*
X525Y519D02*
X534Y519D01*
X617Y519D02*
X627Y519D01*
X525Y518D02*
X534Y518D01*
X618Y518D02*
X628Y518D01*
X525Y517D02*
X535Y517D01*
X618Y517D02*
X628Y517D01*
X526Y516D02*
X535Y516D01*
X619Y516D02*
X629Y516D01*
X526Y515D02*
X536Y515D01*
X619Y515D02*
X629Y515D01*
X526Y514D02*
X537Y514D01*
X620Y514D02*
X630Y514D01*
X527Y513D02*
X539Y513D01*
X620Y513D02*
X630Y513D01*
X527Y512D02*
X540Y512D01*
X620Y512D02*
X631Y512D01*
X528Y511D02*
X542Y511D01*
X621Y511D02*
X631Y511D01*
X528Y510D02*
X567Y510D01*
X621Y510D02*
X644Y510D01*
X529Y509D02*
X568Y509D01*
X622Y509D02*
X645Y509D01*
X530Y508D02*
X569Y508D01*
X622Y508D02*
X646Y508D01*
X531Y507D02*
X569Y507D01*
X623Y507D02*
X646Y507D01*
X532Y506D02*
X569Y506D01*
X623Y506D02*
X646Y506D01*
X533Y505D02*
X569Y505D01*
X623Y505D02*
X646Y505D01*
X522Y504D02*
X531Y504D01*
X535Y504D02*
X569Y504D01*
X624Y504D02*
X646Y504D01*
X521Y503D02*
X532Y503D01*
X536Y503D02*
X568Y503D01*
X624Y503D02*
X645Y503D01*
X520Y502D02*
X533Y502D01*
X538Y502D02*
X567Y502D01*
X625Y502D02*
X645Y502D01*
X520Y501D02*
X533Y501D01*
X541Y501D02*
X566Y501D01*
X627Y501D02*
X643Y501D01*
X150Y500D02*
X187Y500D01*
X214Y500D02*
X216Y500D01*
X253Y500D02*
X256Y500D01*
X519Y500D02*
X533Y500D01*
X595Y500D02*
X612Y500D01*
X654Y500D02*
X684Y500D01*
X147Y499D02*
X187Y499D01*
X212Y499D02*
X218Y499D01*
X252Y499D02*
X258Y499D01*
X519Y499D02*
X533Y499D01*
X593Y499D02*
X614Y499D01*
X652Y499D02*
X687Y499D01*
X145Y498D02*
X187Y498D01*
X211Y498D02*
X219Y498D01*
X251Y498D02*
X258Y498D01*
X519Y498D02*
X533Y498D01*
X593Y498D02*
X615Y498D01*
X650Y498D02*
X688Y498D01*
X144Y497D02*
X187Y497D01*
X211Y497D02*
X219Y497D01*
X250Y497D02*
X259Y497D01*
X519Y497D02*
X533Y497D01*
X592Y497D02*
X615Y497D01*
X649Y497D02*
X690Y497D01*
X143Y496D02*
X187Y496D01*
X211Y496D02*
X219Y496D01*
X250Y496D02*
X259Y496D01*
X519Y496D02*
X533Y496D01*
X592Y496D02*
X616Y496D01*
X648Y496D02*
X690Y496D01*
X142Y495D02*
X187Y495D01*
X210Y495D02*
X220Y495D01*
X250Y495D02*
X259Y495D01*
X519Y495D02*
X533Y495D01*
X592Y495D02*
X616Y495D01*
X647Y495D02*
X691Y495D01*
X141Y494D02*
X187Y494D01*
X210Y494D02*
X220Y494D01*
X250Y494D02*
X259Y494D01*
X520Y494D02*
X533Y494D01*
X592Y494D02*
X615Y494D01*
X646Y494D02*
X692Y494D01*
X140Y493D02*
X187Y493D01*
X210Y493D02*
X220Y493D01*
X250Y493D02*
X259Y493D01*
X520Y493D02*
X533Y493D01*
X592Y493D02*
X615Y493D01*
X646Y493D02*
X692Y493D01*
X140Y492D02*
X187Y492D01*
X210Y492D02*
X220Y492D01*
X250Y492D02*
X259Y492D01*
X521Y492D02*
X532Y492D01*
X592Y492D02*
X614Y492D01*
X645Y492D02*
X692Y492D01*
X139Y491D02*
X187Y491D01*
X210Y491D02*
X220Y491D01*
X250Y491D02*
X259Y491D01*
X522Y491D02*
X531Y491D01*
X592Y491D02*
X613Y491D01*
X645Y491D02*
X693Y491D01*
X139Y490D02*
X151Y490D01*
X178Y490D02*
X187Y490D01*
X210Y490D02*
X220Y490D01*
X250Y490D02*
X259Y490D01*
X592Y490D02*
X601Y490D01*
X644Y490D02*
X655Y490D01*
X683Y490D02*
X693Y490D01*
X139Y489D02*
X149Y489D01*
X178Y489D02*
X187Y489D01*
X210Y489D02*
X220Y489D01*
X250Y489D02*
X259Y489D01*
X592Y489D02*
X601Y489D01*
X644Y489D02*
X654Y489D01*
X684Y489D02*
X693Y489D01*
X138Y488D02*
X148Y488D01*
X178Y488D02*
X187Y488D01*
X210Y488D02*
X220Y488D01*
X250Y488D02*
X259Y488D01*
X592Y488D02*
X601Y488D01*
X644Y488D02*
X653Y488D01*
X683Y488D02*
X693Y488D01*
X138Y487D02*
X148Y487D01*
X178Y487D02*
X187Y487D01*
X210Y487D02*
X220Y487D01*
X250Y487D02*
X259Y487D01*
X592Y487D02*
X601Y487D01*
X644Y487D02*
X653Y487D01*
X682Y487D02*
X693Y487D01*
X138Y486D02*
X147Y486D01*
X178Y486D02*
X187Y486D01*
X210Y486D02*
X220Y486D01*
X250Y486D02*
X259Y486D01*
X592Y486D02*
X601Y486D01*
X644Y486D02*
X653Y486D01*
X682Y486D02*
X692Y486D01*
X138Y485D02*
X147Y485D01*
X178Y485D02*
X187Y485D01*
X210Y485D02*
X220Y485D01*
X250Y485D02*
X259Y485D01*
X592Y485D02*
X601Y485D01*
X644Y485D02*
X653Y485D01*
X681Y485D02*
X692Y485D01*
X138Y484D02*
X147Y484D01*
X178Y484D02*
X187Y484D01*
X210Y484D02*
X220Y484D01*
X250Y484D02*
X259Y484D01*
X592Y484D02*
X601Y484D01*
X645Y484D02*
X652Y484D01*
X680Y484D02*
X692Y484D01*
X138Y483D02*
X147Y483D01*
X178Y483D02*
X187Y483D01*
X210Y483D02*
X220Y483D01*
X250Y483D02*
X259Y483D01*
X592Y483D02*
X601Y483D01*
X646Y483D02*
X651Y483D01*
X679Y483D02*
X691Y483D01*
X138Y482D02*
X147Y482D01*
X178Y482D02*
X187Y482D01*
X210Y482D02*
X220Y482D01*
X250Y482D02*
X259Y482D01*
X592Y482D02*
X601Y482D01*
X648Y482D02*
X649Y482D01*
X679Y482D02*
X690Y482D01*
X138Y481D02*
X147Y481D01*
X178Y481D02*
X187Y481D01*
X210Y481D02*
X220Y481D01*
X250Y481D02*
X259Y481D01*
X592Y481D02*
X601Y481D01*
X678Y481D02*
X690Y481D01*
X138Y480D02*
X147Y480D01*
X178Y480D02*
X187Y480D01*
X210Y480D02*
X220Y480D01*
X250Y480D02*
X259Y480D01*
X592Y480D02*
X601Y480D01*
X677Y480D02*
X689Y480D01*
X138Y479D02*
X148Y479D01*
X178Y479D02*
X187Y479D01*
X210Y479D02*
X220Y479D01*
X250Y479D02*
X259Y479D01*
X371Y479D02*
X388Y479D01*
X457Y479D02*
X461Y479D01*
X471Y479D02*
X473Y479D01*
X523Y479D02*
X540Y479D01*
X592Y479D02*
X601Y479D01*
X676Y479D02*
X688Y479D01*
X138Y478D02*
X148Y478D01*
X178Y478D02*
X187Y478D01*
X210Y478D02*
X220Y478D01*
X250Y478D02*
X259Y478D01*
X368Y478D02*
X391Y478D01*
X435Y478D02*
X444Y478D01*
X454Y478D02*
X464Y478D01*
X470Y478D02*
X475Y478D01*
X521Y478D02*
X541Y478D01*
X592Y478D02*
X601Y478D01*
X675Y478D02*
X687Y478D01*
X139Y477D02*
X149Y477D01*
X178Y477D02*
X187Y477D01*
X211Y477D02*
X220Y477D01*
X249Y477D02*
X259Y477D01*
X366Y477D02*
X393Y477D01*
X434Y477D02*
X445Y477D01*
X452Y477D02*
X465Y477D01*
X469Y477D02*
X476Y477D01*
X520Y477D02*
X542Y477D01*
X592Y477D02*
X601Y477D01*
X675Y477D02*
X687Y477D01*
X139Y476D02*
X150Y476D01*
X178Y476D02*
X187Y476D01*
X211Y476D02*
X221Y476D01*
X249Y476D02*
X259Y476D01*
X364Y476D02*
X394Y476D01*
X432Y476D02*
X447Y476D01*
X451Y476D02*
X476Y476D01*
X520Y476D02*
X543Y476D01*
X592Y476D02*
X601Y476D01*
X674Y476D02*
X686Y476D01*
X139Y475D02*
X152Y475D01*
X178Y475D02*
X187Y475D01*
X211Y475D02*
X221Y475D01*
X248Y475D02*
X258Y475D01*
X363Y475D02*
X396Y475D01*
X431Y475D02*
X448Y475D01*
X450Y475D02*
X477Y475D01*
X520Y475D02*
X543Y475D01*
X592Y475D02*
X601Y475D01*
X673Y475D02*
X685Y475D01*
X139Y474D02*
X187Y474D01*
X212Y474D02*
X222Y474D01*
X248Y474D02*
X258Y474D01*
X362Y474D02*
X397Y474D01*
X430Y474D02*
X477Y474D01*
X519Y474D02*
X543Y474D01*
X592Y474D02*
X601Y474D01*
X672Y474D02*
X684Y474D01*
X140Y473D02*
X187Y473D01*
X212Y473D02*
X222Y473D01*
X248Y473D02*
X258Y473D01*
X361Y473D02*
X398Y473D01*
X430Y473D02*
X477Y473D01*
X519Y473D02*
X543Y473D01*
X592Y473D02*
X601Y473D01*
X672Y473D02*
X683Y473D01*
X141Y472D02*
X187Y472D01*
X213Y472D02*
X222Y472D01*
X247Y472D02*
X257Y472D01*
X360Y472D02*
X399Y472D01*
X429Y472D02*
X477Y472D01*
X519Y472D02*
X543Y472D01*
X592Y472D02*
X601Y472D01*
X671Y472D02*
X683Y472D01*
X141Y471D02*
X187Y471D01*
X213Y471D02*
X223Y471D01*
X247Y471D02*
X257Y471D01*
X359Y471D02*
X400Y471D01*
X429Y471D02*
X477Y471D01*
X519Y471D02*
X542Y471D01*
X592Y471D02*
X601Y471D01*
X670Y471D02*
X682Y471D01*
X142Y470D02*
X187Y470D01*
X213Y470D02*
X223Y470D01*
X246Y470D02*
X256Y470D01*
X358Y470D02*
X401Y470D01*
X428Y470D02*
X477Y470D01*
X519Y470D02*
X541Y470D01*
X592Y470D02*
X601Y470D01*
X669Y470D02*
X681Y470D01*
X143Y469D02*
X187Y469D01*
X214Y469D02*
X224Y469D01*
X246Y469D02*
X256Y469D01*
X357Y469D02*
X372Y469D01*
X387Y469D02*
X401Y469D01*
X428Y469D02*
X438Y469D01*
X440Y469D02*
X458Y469D01*
X460Y469D02*
X477Y469D01*
X519Y469D02*
X529Y469D01*
X592Y469D02*
X601Y469D01*
X668Y469D02*
X680Y469D01*
X144Y468D02*
X187Y468D01*
X214Y468D02*
X224Y468D01*
X246Y468D02*
X256Y468D01*
X357Y468D02*
X369Y468D01*
X389Y468D02*
X402Y468D01*
X428Y468D02*
X437Y468D01*
X442Y468D02*
X456Y468D01*
X462Y468D02*
X477Y468D01*
X519Y468D02*
X528Y468D01*
X592Y468D02*
X601Y468D01*
X668Y468D02*
X680Y468D01*
X146Y467D02*
X187Y467D01*
X215Y467D02*
X224Y467D01*
X245Y467D02*
X255Y467D01*
X356Y467D02*
X368Y467D01*
X391Y467D02*
X402Y467D01*
X428Y467D02*
X437Y467D01*
X443Y467D02*
X456Y467D01*
X463Y467D02*
X477Y467D01*
X519Y467D02*
X528Y467D01*
X592Y467D02*
X601Y467D01*
X667Y467D02*
X679Y467D01*
X148Y466D02*
X187Y466D01*
X215Y466D02*
X225Y466D01*
X245Y466D02*
X255Y466D01*
X356Y466D02*
X367Y466D01*
X392Y466D02*
X403Y466D01*
X428Y466D02*
X437Y466D01*
X444Y466D02*
X456Y466D01*
X464Y466D02*
X477Y466D01*
X519Y466D02*
X528Y466D01*
X592Y466D02*
X601Y466D01*
X666Y466D02*
X678Y466D01*
X152Y465D02*
X187Y465D01*
X215Y465D02*
X225Y465D01*
X245Y465D02*
X254Y465D01*
X356Y465D02*
X366Y465D01*
X393Y465D02*
X403Y465D01*
X428Y465D02*
X437Y465D01*
X445Y465D02*
X456Y465D01*
X465Y465D02*
X477Y465D01*
X519Y465D02*
X528Y465D01*
X592Y465D02*
X601Y465D01*
X665Y465D02*
X677Y465D01*
X159Y464D02*
X170Y464D01*
X178Y464D02*
X187Y464D01*
X216Y464D02*
X226Y464D01*
X244Y464D02*
X254Y464D01*
X355Y464D02*
X365Y464D01*
X394Y464D02*
X403Y464D01*
X428Y464D02*
X437Y464D01*
X446Y464D02*
X456Y464D01*
X466Y464D02*
X477Y464D01*
X519Y464D02*
X528Y464D01*
X592Y464D02*
X601Y464D01*
X665Y464D02*
X677Y464D01*
X158Y463D02*
X169Y463D01*
X178Y463D02*
X187Y463D01*
X216Y463D02*
X226Y463D01*
X244Y463D02*
X254Y463D01*
X355Y463D02*
X365Y463D01*
X394Y463D02*
X404Y463D01*
X428Y463D02*
X437Y463D01*
X447Y463D02*
X456Y463D01*
X467Y463D02*
X477Y463D01*
X519Y463D02*
X528Y463D01*
X592Y463D02*
X601Y463D01*
X664Y463D02*
X676Y463D01*
X158Y462D02*
X168Y462D01*
X178Y462D02*
X187Y462D01*
X216Y462D02*
X226Y462D01*
X243Y462D02*
X253Y462D01*
X355Y462D02*
X364Y462D01*
X395Y462D02*
X404Y462D01*
X428Y462D02*
X437Y462D01*
X447Y462D02*
X456Y462D01*
X468Y462D02*
X477Y462D01*
X519Y462D02*
X528Y462D01*
X592Y462D02*
X601Y462D01*
X663Y462D02*
X675Y462D01*
X157Y461D02*
X168Y461D01*
X178Y461D02*
X187Y461D01*
X217Y461D02*
X227Y461D01*
X243Y461D02*
X253Y461D01*
X355Y461D02*
X364Y461D01*
X395Y461D02*
X404Y461D01*
X428Y461D02*
X437Y461D01*
X447Y461D02*
X456Y461D01*
X468Y461D02*
X477Y461D01*
X519Y461D02*
X528Y461D01*
X592Y461D02*
X601Y461D01*
X662Y461D02*
X674Y461D01*
X156Y460D02*
X167Y460D01*
X178Y460D02*
X187Y460D01*
X217Y460D02*
X227Y460D01*
X243Y460D02*
X253Y460D01*
X355Y460D02*
X364Y460D01*
X395Y460D02*
X404Y460D01*
X428Y460D02*
X437Y460D01*
X447Y460D02*
X456Y460D01*
X468Y460D02*
X477Y460D01*
X519Y460D02*
X528Y460D01*
X592Y460D02*
X601Y460D01*
X661Y460D02*
X673Y460D01*
X156Y459D02*
X167Y459D01*
X178Y459D02*
X187Y459D01*
X218Y459D02*
X228Y459D01*
X242Y459D02*
X252Y459D01*
X355Y459D02*
X364Y459D01*
X395Y459D02*
X404Y459D01*
X428Y459D02*
X437Y459D01*
X447Y459D02*
X456Y459D01*
X468Y459D02*
X477Y459D01*
X519Y459D02*
X528Y459D01*
X592Y459D02*
X601Y459D01*
X661Y459D02*
X673Y459D01*
X155Y458D02*
X166Y458D01*
X178Y458D02*
X187Y458D01*
X218Y458D02*
X228Y458D01*
X242Y458D02*
X252Y458D01*
X355Y458D02*
X364Y458D01*
X395Y458D02*
X404Y458D01*
X428Y458D02*
X437Y458D01*
X447Y458D02*
X456Y458D01*
X468Y458D02*
X477Y458D01*
X519Y458D02*
X528Y458D01*
X592Y458D02*
X601Y458D01*
X660Y458D02*
X672Y458D01*
X155Y457D02*
X165Y457D01*
X178Y457D02*
X187Y457D01*
X218Y457D02*
X228Y457D01*
X241Y457D02*
X251Y457D01*
X355Y457D02*
X364Y457D01*
X395Y457D02*
X404Y457D01*
X428Y457D02*
X437Y457D01*
X447Y457D02*
X456Y457D01*
X468Y457D02*
X477Y457D01*
X519Y457D02*
X528Y457D01*
X592Y457D02*
X601Y457D01*
X659Y457D02*
X671Y457D01*
X154Y456D02*
X165Y456D01*
X178Y456D02*
X187Y456D01*
X219Y456D02*
X229Y456D01*
X241Y456D02*
X251Y456D01*
X355Y456D02*
X364Y456D01*
X395Y456D02*
X404Y456D01*
X428Y456D02*
X437Y456D01*
X447Y456D02*
X456Y456D01*
X468Y456D02*
X477Y456D01*
X519Y456D02*
X528Y456D01*
X592Y456D02*
X601Y456D01*
X658Y456D02*
X670Y456D01*
X153Y455D02*
X164Y455D01*
X178Y455D02*
X187Y455D01*
X219Y455D02*
X229Y455D01*
X241Y455D02*
X251Y455D01*
X355Y455D02*
X364Y455D01*
X395Y455D02*
X404Y455D01*
X428Y455D02*
X437Y455D01*
X447Y455D02*
X456Y455D01*
X468Y455D02*
X477Y455D01*
X519Y455D02*
X528Y455D01*
X592Y455D02*
X601Y455D01*
X658Y455D02*
X670Y455D01*
X153Y454D02*
X164Y454D01*
X178Y454D02*
X187Y454D01*
X220Y454D02*
X229Y454D01*
X240Y454D02*
X250Y454D01*
X355Y454D02*
X364Y454D01*
X395Y454D02*
X404Y454D01*
X428Y454D02*
X437Y454D01*
X447Y454D02*
X456Y454D01*
X468Y454D02*
X477Y454D01*
X519Y454D02*
X528Y454D01*
X592Y454D02*
X601Y454D01*
X657Y454D02*
X669Y454D01*
X152Y453D02*
X163Y453D01*
X178Y453D02*
X187Y453D01*
X220Y453D02*
X230Y453D01*
X240Y453D02*
X250Y453D01*
X355Y453D02*
X404Y453D01*
X428Y453D02*
X437Y453D01*
X447Y453D02*
X456Y453D01*
X468Y453D02*
X477Y453D01*
X519Y453D02*
X528Y453D01*
X592Y453D02*
X601Y453D01*
X656Y453D02*
X668Y453D01*
X152Y452D02*
X162Y452D01*
X178Y452D02*
X187Y452D01*
X220Y452D02*
X230Y452D01*
X239Y452D02*
X249Y452D01*
X355Y452D02*
X404Y452D01*
X427Y452D02*
X437Y452D01*
X447Y452D02*
X456Y452D01*
X468Y452D02*
X477Y452D01*
X519Y452D02*
X528Y452D01*
X592Y452D02*
X601Y452D01*
X655Y452D02*
X667Y452D01*
X151Y451D02*
X162Y451D01*
X178Y451D02*
X187Y451D01*
X221Y451D02*
X231Y451D01*
X239Y451D02*
X249Y451D01*
X355Y451D02*
X404Y451D01*
X427Y451D02*
X436Y451D01*
X447Y451D02*
X456Y451D01*
X468Y451D02*
X477Y451D01*
X519Y451D02*
X528Y451D01*
X592Y451D02*
X601Y451D01*
X654Y451D02*
X666Y451D01*
X151Y450D02*
X161Y450D01*
X178Y450D02*
X187Y450D01*
X221Y450D02*
X231Y450D01*
X239Y450D02*
X249Y450D01*
X355Y450D02*
X404Y450D01*
X427Y450D02*
X436Y450D01*
X447Y450D02*
X456Y450D01*
X468Y450D02*
X477Y450D01*
X519Y450D02*
X528Y450D01*
X592Y450D02*
X601Y450D01*
X654Y450D02*
X666Y450D01*
X150Y449D02*
X161Y449D01*
X178Y449D02*
X187Y449D01*
X222Y449D02*
X231Y449D01*
X238Y449D02*
X248Y449D01*
X355Y449D02*
X404Y449D01*
X427Y449D02*
X436Y449D01*
X447Y449D02*
X456Y449D01*
X468Y449D02*
X477Y449D01*
X519Y449D02*
X528Y449D01*
X592Y449D02*
X601Y449D01*
X653Y449D02*
X665Y449D01*
X149Y448D02*
X160Y448D01*
X178Y448D02*
X187Y448D01*
X222Y448D02*
X232Y448D01*
X238Y448D02*
X248Y448D01*
X355Y448D02*
X404Y448D01*
X427Y448D02*
X436Y448D01*
X447Y448D02*
X456Y448D01*
X468Y448D02*
X477Y448D01*
X519Y448D02*
X528Y448D01*
X592Y448D02*
X601Y448D01*
X652Y448D02*
X664Y448D01*
X149Y447D02*
X160Y447D01*
X178Y447D02*
X187Y447D01*
X222Y447D02*
X232Y447D01*
X237Y447D02*
X247Y447D01*
X355Y447D02*
X404Y447D01*
X427Y447D02*
X436Y447D01*
X447Y447D02*
X456Y447D01*
X468Y447D02*
X477Y447D01*
X519Y447D02*
X528Y447D01*
X592Y447D02*
X601Y447D01*
X651Y447D02*
X663Y447D01*
X148Y446D02*
X159Y446D01*
X178Y446D02*
X187Y446D01*
X223Y446D02*
X233Y446D01*
X237Y446D02*
X247Y446D01*
X356Y446D02*
X404Y446D01*
X427Y446D02*
X436Y446D01*
X447Y446D02*
X456Y446D01*
X468Y446D02*
X477Y446D01*
X519Y446D02*
X528Y446D01*
X592Y446D02*
X601Y446D01*
X651Y446D02*
X663Y446D01*
X148Y445D02*
X158Y445D01*
X178Y445D02*
X187Y445D01*
X223Y445D02*
X233Y445D01*
X237Y445D02*
X247Y445D01*
X357Y445D02*
X404Y445D01*
X427Y445D02*
X436Y445D01*
X447Y445D02*
X456Y445D01*
X468Y445D02*
X477Y445D01*
X519Y445D02*
X528Y445D01*
X592Y445D02*
X601Y445D01*
X650Y445D02*
X662Y445D01*
X147Y444D02*
X158Y444D01*
X178Y444D02*
X187Y444D01*
X224Y444D02*
X233Y444D01*
X236Y444D02*
X246Y444D01*
X358Y444D02*
X404Y444D01*
X427Y444D02*
X436Y444D01*
X447Y444D02*
X456Y444D01*
X468Y444D02*
X477Y444D01*
X519Y444D02*
X528Y444D01*
X592Y444D02*
X601Y444D01*
X649Y444D02*
X661Y444D01*
X146Y443D02*
X157Y443D01*
X178Y443D02*
X187Y443D01*
X224Y443D02*
X234Y443D01*
X236Y443D02*
X246Y443D01*
X395Y443D02*
X404Y443D01*
X427Y443D02*
X436Y443D01*
X447Y443D02*
X456Y443D01*
X468Y443D02*
X477Y443D01*
X519Y443D02*
X528Y443D01*
X592Y443D02*
X601Y443D01*
X648Y443D02*
X660Y443D01*
X146Y442D02*
X157Y442D01*
X178Y442D02*
X187Y442D01*
X224Y442D02*
X246Y442D01*
X395Y442D02*
X404Y442D01*
X427Y442D02*
X436Y442D01*
X447Y442D02*
X456Y442D01*
X468Y442D02*
X477Y442D01*
X519Y442D02*
X528Y442D01*
X592Y442D02*
X601Y442D01*
X648Y442D02*
X659Y442D01*
X145Y441D02*
X156Y441D01*
X178Y441D02*
X187Y441D01*
X225Y441D02*
X245Y441D01*
X395Y441D02*
X404Y441D01*
X427Y441D02*
X436Y441D01*
X447Y441D02*
X456Y441D01*
X468Y441D02*
X477Y441D01*
X519Y441D02*
X528Y441D01*
X592Y441D02*
X601Y441D01*
X647Y441D02*
X659Y441D01*
X145Y440D02*
X155Y440D01*
X178Y440D02*
X187Y440D01*
X225Y440D02*
X245Y440D01*
X395Y440D02*
X404Y440D01*
X427Y440D02*
X436Y440D01*
X447Y440D02*
X456Y440D01*
X468Y440D02*
X477Y440D01*
X519Y440D02*
X528Y440D01*
X592Y440D02*
X601Y440D01*
X646Y440D02*
X658Y440D01*
X686Y440D02*
X691Y440D01*
X144Y439D02*
X155Y439D01*
X178Y439D02*
X187Y439D01*
X225Y439D02*
X244Y439D01*
X394Y439D02*
X404Y439D01*
X427Y439D02*
X436Y439D01*
X447Y439D02*
X456Y439D01*
X468Y439D02*
X477Y439D01*
X519Y439D02*
X528Y439D01*
X592Y439D02*
X601Y439D01*
X645Y439D02*
X657Y439D01*
X685Y439D02*
X692Y439D01*
X144Y438D02*
X154Y438D01*
X178Y438D02*
X187Y438D01*
X226Y438D02*
X244Y438D01*
X394Y438D02*
X404Y438D01*
X427Y438D02*
X436Y438D01*
X447Y438D02*
X456Y438D01*
X468Y438D02*
X477Y438D01*
X519Y438D02*
X528Y438D01*
X592Y438D02*
X601Y438D01*
X645Y438D02*
X656Y438D01*
X684Y438D02*
X692Y438D01*
X143Y437D02*
X154Y437D01*
X178Y437D02*
X187Y437D01*
X226Y437D02*
X244Y437D01*
X393Y437D02*
X403Y437D01*
X427Y437D02*
X436Y437D01*
X447Y437D02*
X456Y437D01*
X468Y437D02*
X477Y437D01*
X519Y437D02*
X528Y437D01*
X592Y437D02*
X601Y437D01*
X645Y437D02*
X656Y437D01*
X684Y437D02*
X693Y437D01*
X142Y436D02*
X153Y436D01*
X178Y436D02*
X187Y436D01*
X227Y436D02*
X243Y436D01*
X392Y436D02*
X403Y436D01*
X427Y436D02*
X436Y436D01*
X447Y436D02*
X456Y436D01*
X468Y436D02*
X477Y436D01*
X519Y436D02*
X528Y436D01*
X592Y436D02*
X601Y436D01*
X644Y436D02*
X655Y436D01*
X684Y436D02*
X693Y436D01*
X142Y435D02*
X153Y435D01*
X178Y435D02*
X187Y435D01*
X227Y435D02*
X243Y435D01*
X391Y435D02*
X403Y435D01*
X427Y435D02*
X436Y435D01*
X447Y435D02*
X456Y435D01*
X468Y435D02*
X477Y435D01*
X519Y435D02*
X528Y435D01*
X592Y435D02*
X601Y435D01*
X644Y435D02*
X654Y435D01*
X684Y435D02*
X693Y435D01*
X141Y434D02*
X152Y434D01*
X178Y434D02*
X187Y434D01*
X227Y434D02*
X242Y434D01*
X390Y434D02*
X402Y434D01*
X427Y434D02*
X436Y434D01*
X447Y434D02*
X456Y434D01*
X468Y434D02*
X477Y434D01*
X519Y434D02*
X528Y434D01*
X592Y434D02*
X601Y434D01*
X644Y434D02*
X653Y434D01*
X683Y434D02*
X693Y434D01*
X141Y433D02*
X151Y433D01*
X178Y433D02*
X187Y433D01*
X228Y433D02*
X242Y433D01*
X388Y433D02*
X402Y433D01*
X427Y433D02*
X436Y433D01*
X447Y433D02*
X456Y433D01*
X468Y433D02*
X477Y433D01*
X519Y433D02*
X528Y433D01*
X592Y433D02*
X601Y433D01*
X644Y433D02*
X654Y433D01*
X682Y433D02*
X692Y433D01*
X140Y432D02*
X151Y432D01*
X178Y432D02*
X187Y432D01*
X228Y432D02*
X242Y432D01*
X358Y432D02*
X401Y432D01*
X427Y432D02*
X436Y432D01*
X447Y432D02*
X456Y432D01*
X468Y432D02*
X477Y432D01*
X507Y432D02*
X540Y432D01*
X580Y432D02*
X613Y432D01*
X644Y432D02*
X692Y432D01*
X139Y431D02*
X150Y431D01*
X178Y431D02*
X187Y431D01*
X229Y431D02*
X241Y431D01*
X357Y431D02*
X400Y431D01*
X427Y431D02*
X436Y431D01*
X447Y431D02*
X456Y431D01*
X468Y431D02*
X477Y431D01*
X506Y431D02*
X542Y431D01*
X578Y431D02*
X614Y431D01*
X645Y431D02*
X692Y431D01*
X139Y430D02*
X150Y430D01*
X178Y430D02*
X187Y430D01*
X229Y430D02*
X241Y430D01*
X356Y430D02*
X399Y430D01*
X427Y430D02*
X436Y430D01*
X447Y430D02*
X456Y430D01*
X468Y430D02*
X477Y430D01*
X505Y430D02*
X543Y430D01*
X578Y430D02*
X615Y430D01*
X645Y430D02*
X691Y430D01*
X139Y429D02*
X149Y429D01*
X178Y429D02*
X187Y429D01*
X229Y429D02*
X240Y429D01*
X355Y429D02*
X398Y429D01*
X427Y429D02*
X436Y429D01*
X447Y429D02*
X456Y429D01*
X468Y429D02*
X477Y429D01*
X505Y429D02*
X543Y429D01*
X577Y429D02*
X615Y429D01*
X645Y429D02*
X691Y429D01*
X138Y428D02*
X148Y428D01*
X178Y428D02*
X187Y428D01*
X230Y428D02*
X240Y428D01*
X355Y428D02*
X397Y428D01*
X427Y428D02*
X436Y428D01*
X447Y428D02*
X456Y428D01*
X468Y428D02*
X477Y428D01*
X505Y428D02*
X543Y428D01*
X577Y428D02*
X616Y428D01*
X646Y428D02*
X690Y428D01*
X138Y427D02*
X148Y427D01*
X178Y427D02*
X187Y427D01*
X230Y427D02*
X240Y427D01*
X355Y427D02*
X396Y427D01*
X427Y427D02*
X436Y427D01*
X447Y427D02*
X456Y427D01*
X468Y427D02*
X477Y427D01*
X505Y427D02*
X543Y427D01*
X577Y427D02*
X616Y427D01*
X646Y427D02*
X689Y427D01*
X139Y426D02*
X147Y426D01*
X178Y426D02*
X187Y426D01*
X231Y426D02*
X239Y426D01*
X355Y426D02*
X395Y426D01*
X427Y426D02*
X435Y426D01*
X447Y426D02*
X456Y426D01*
X468Y426D02*
X477Y426D01*
X505Y426D02*
X543Y426D01*
X577Y426D02*
X615Y426D01*
X647Y426D02*
X688Y426D01*
X139Y425D02*
X147Y425D01*
X179Y425D02*
X186Y425D01*
X231Y425D02*
X239Y425D01*
X356Y425D02*
X394Y425D01*
X427Y425D02*
X435Y425D01*
X448Y425D02*
X455Y425D01*
X469Y425D02*
X476Y425D01*
X505Y425D02*
X543Y425D01*
X578Y425D02*
X615Y425D01*
X648Y425D02*
X687Y425D01*
X140Y424D02*
X146Y424D01*
X179Y424D02*
X185Y424D01*
X232Y424D02*
X238Y424D01*
X357Y424D02*
X392Y424D01*
X428Y424D02*
X434Y424D01*
X449Y424D02*
X455Y424D01*
X469Y424D02*
X475Y424D01*
X506Y424D02*
X542Y424D01*
X578Y424D02*
X614Y424D01*
X650Y424D02*
X685Y424D01*
X141Y423D02*
X145Y423D01*
X181Y423D02*
X184Y423D01*
X233Y423D02*
X237Y423D01*
X358Y423D02*
X389Y423D01*
X429Y423D02*
X433Y423D01*
X450Y423D02*
X453Y423D01*
X471Y423D02*
X474Y423D01*
X507Y423D02*
X540Y423D01*
X580Y423D02*
X613Y423D01*
X652Y423D02*
X683Y423D01*
X141Y407D02*
X146Y407D01*
X574Y407D02*
X580Y407D01*
X138Y406D02*
X148Y406D01*
X572Y406D02*
X582Y406D01*
X137Y405D02*
X149Y405D01*
X571Y405D02*
X583Y405D01*
X137Y404D02*
X150Y404D01*
X570Y404D02*
X584Y404D01*
X136Y403D02*
X150Y403D01*
X570Y403D02*
X584Y403D01*
X136Y402D02*
X150Y402D01*
X570Y402D02*
X584Y402D01*
X632Y402D02*
X671Y402D01*
X136Y401D02*
X150Y401D01*
X570Y401D02*
X584Y401D01*
X630Y401D02*
X671Y401D01*
X136Y400D02*
X150Y400D01*
X570Y400D02*
X584Y400D01*
X629Y400D02*
X671Y400D01*
X136Y399D02*
X150Y399D01*
X570Y399D02*
X584Y399D01*
X627Y399D02*
X671Y399D01*
X136Y398D02*
X150Y398D01*
X570Y398D02*
X584Y398D01*
X626Y398D02*
X671Y398D01*
X136Y397D02*
X150Y397D01*
X570Y397D02*
X584Y397D01*
X625Y397D02*
X671Y397D01*
X137Y396D02*
X150Y396D01*
X570Y396D02*
X584Y396D01*
X625Y396D02*
X671Y396D01*
X137Y395D02*
X149Y395D01*
X571Y395D02*
X583Y395D01*
X624Y395D02*
X671Y395D01*
X138Y394D02*
X148Y394D01*
X572Y394D02*
X582Y394D01*
X624Y394D02*
X671Y394D01*
X141Y393D02*
X146Y393D01*
X574Y393D02*
X580Y393D01*
X623Y393D02*
X671Y393D01*
X623Y392D02*
X634Y392D01*
X662Y392D02*
X671Y392D01*
X623Y391D02*
X633Y391D01*
X662Y391D02*
X671Y391D01*
X622Y390D02*
X632Y390D01*
X662Y390D02*
X671Y390D01*
X622Y389D02*
X632Y389D01*
X662Y389D02*
X671Y389D01*
X622Y388D02*
X631Y388D01*
X662Y388D02*
X671Y388D01*
X622Y387D02*
X631Y387D01*
X662Y387D02*
X671Y387D01*
X622Y386D02*
X631Y386D01*
X662Y386D02*
X671Y386D01*
X622Y385D02*
X631Y385D01*
X662Y385D02*
X671Y385D01*
X622Y384D02*
X631Y384D01*
X662Y384D02*
X671Y384D01*
X622Y383D02*
X631Y383D01*
X662Y383D02*
X671Y383D01*
X622Y382D02*
X631Y382D01*
X662Y382D02*
X671Y382D01*
X139Y381D02*
X158Y381D01*
X200Y381D02*
X214Y381D01*
X231Y381D02*
X235Y381D01*
X275Y381D02*
X296Y381D01*
X344Y381D02*
X360Y381D01*
X375Y381D02*
X379Y381D01*
X420Y381D02*
X440Y381D01*
X487Y381D02*
X493Y381D01*
X506Y381D02*
X513Y381D01*
X521Y381D02*
X525Y381D01*
X572Y381D02*
X591Y381D01*
X622Y381D02*
X631Y381D01*
X662Y381D02*
X671Y381D01*
X138Y380D02*
X159Y380D01*
X198Y380D02*
X217Y380D01*
X230Y380D02*
X236Y380D01*
X273Y380D02*
X298Y380D01*
X341Y380D02*
X361Y380D01*
X374Y380D02*
X381Y380D01*
X417Y380D02*
X443Y380D01*
X485Y380D02*
X495Y380D01*
X504Y380D02*
X515Y380D01*
X520Y380D02*
X526Y380D01*
X571Y380D02*
X593Y380D01*
X622Y380D02*
X631Y380D01*
X662Y380D02*
X671Y380D01*
X137Y379D02*
X160Y379D01*
X196Y379D02*
X218Y379D01*
X229Y379D02*
X237Y379D01*
X271Y379D02*
X300Y379D01*
X340Y379D02*
X362Y379D01*
X374Y379D02*
X381Y379D01*
X416Y379D02*
X444Y379D01*
X483Y379D02*
X497Y379D01*
X502Y379D02*
X517Y379D01*
X519Y379D02*
X527Y379D01*
X571Y379D02*
X593Y379D01*
X622Y379D02*
X631Y379D01*
X662Y379D02*
X671Y379D01*
X137Y378D02*
X160Y378D01*
X195Y378D02*
X220Y378D01*
X229Y378D02*
X237Y378D01*
X270Y378D02*
X301Y378D01*
X338Y378D02*
X363Y378D01*
X373Y378D02*
X382Y378D01*
X414Y378D02*
X446Y378D01*
X482Y378D02*
X498Y378D01*
X501Y378D02*
X527Y378D01*
X570Y378D02*
X594Y378D01*
X622Y378D02*
X631Y378D01*
X662Y378D02*
X671Y378D01*
X136Y377D02*
X160Y377D01*
X194Y377D02*
X221Y377D01*
X228Y377D02*
X237Y377D01*
X269Y377D02*
X302Y377D01*
X337Y377D02*
X365Y377D01*
X373Y377D02*
X382Y377D01*
X413Y377D02*
X447Y377D01*
X481Y377D02*
X527Y377D01*
X570Y377D02*
X594Y377D01*
X622Y377D02*
X631Y377D01*
X662Y377D02*
X671Y377D01*
X136Y376D02*
X160Y376D01*
X193Y376D02*
X223Y376D01*
X228Y376D02*
X237Y376D01*
X267Y376D02*
X303Y376D01*
X337Y376D02*
X366Y376D01*
X373Y376D02*
X382Y376D01*
X412Y376D02*
X448Y376D01*
X480Y376D02*
X527Y376D01*
X570Y376D02*
X594Y376D01*
X622Y376D02*
X631Y376D01*
X662Y376D02*
X671Y376D01*
X136Y375D02*
X160Y375D01*
X192Y375D02*
X225Y375D01*
X228Y375D02*
X237Y375D01*
X266Y375D02*
X304Y375D01*
X336Y375D02*
X367Y375D01*
X373Y375D02*
X382Y375D01*
X411Y375D02*
X449Y375D01*
X480Y375D02*
X527Y375D01*
X570Y375D02*
X594Y375D01*
X622Y375D02*
X631Y375D01*
X662Y375D02*
X671Y375D01*
X136Y374D02*
X159Y374D01*
X192Y374D02*
X226Y374D01*
X228Y374D02*
X237Y374D01*
X265Y374D02*
X306Y374D01*
X335Y374D02*
X368Y374D01*
X373Y374D02*
X382Y374D01*
X410Y374D02*
X450Y374D01*
X479Y374D02*
X527Y374D01*
X570Y374D02*
X593Y374D01*
X622Y374D02*
X631Y374D01*
X662Y374D02*
X671Y374D01*
X136Y373D02*
X159Y373D01*
X191Y373D02*
X237Y373D01*
X264Y373D02*
X306Y373D01*
X335Y373D02*
X369Y373D01*
X373Y373D02*
X382Y373D01*
X409Y373D02*
X451Y373D01*
X479Y373D02*
X527Y373D01*
X570Y373D02*
X592Y373D01*
X622Y373D02*
X631Y373D01*
X662Y373D02*
X671Y373D01*
X136Y372D02*
X157Y372D01*
X191Y372D02*
X237Y372D01*
X264Y372D02*
X307Y372D01*
X334Y372D02*
X370Y372D01*
X373Y372D02*
X382Y372D01*
X408Y372D02*
X452Y372D01*
X479Y372D02*
X527Y372D01*
X570Y372D02*
X591Y372D01*
X622Y372D02*
X631Y372D01*
X662Y372D02*
X671Y372D01*
X136Y371D02*
X145Y371D01*
X191Y371D02*
X202Y371D01*
X213Y371D02*
X237Y371D01*
X263Y371D02*
X276Y371D01*
X295Y371D02*
X308Y371D01*
X334Y371D02*
X345Y371D01*
X357Y371D02*
X382Y371D01*
X407Y371D02*
X421Y371D01*
X439Y371D02*
X452Y371D01*
X479Y371D02*
X488Y371D01*
X492Y371D02*
X507Y371D01*
X511Y371D02*
X527Y371D01*
X570Y371D02*
X579Y371D01*
X622Y371D02*
X631Y371D01*
X662Y371D02*
X671Y371D01*
X136Y370D02*
X145Y370D01*
X190Y370D02*
X200Y370D01*
X215Y370D02*
X237Y370D01*
X262Y370D02*
X275Y370D01*
X296Y370D02*
X308Y370D01*
X334Y370D02*
X344Y370D01*
X358Y370D02*
X382Y370D01*
X407Y370D02*
X419Y370D01*
X440Y370D02*
X453Y370D01*
X479Y370D02*
X488Y370D01*
X493Y370D02*
X507Y370D01*
X513Y370D02*
X527Y370D01*
X570Y370D02*
X579Y370D01*
X622Y370D02*
X631Y370D01*
X662Y370D02*
X671Y370D01*
X136Y369D02*
X145Y369D01*
X190Y369D02*
X200Y369D01*
X216Y369D02*
X237Y369D01*
X262Y369D02*
X273Y369D01*
X297Y369D02*
X309Y369D01*
X333Y369D02*
X343Y369D01*
X359Y369D02*
X382Y369D01*
X406Y369D02*
X418Y369D01*
X442Y369D02*
X453Y369D01*
X478Y369D02*
X488Y369D01*
X494Y369D02*
X507Y369D01*
X514Y369D02*
X527Y369D01*
X570Y369D02*
X579Y369D01*
X622Y369D02*
X632Y369D01*
X662Y369D02*
X671Y369D01*
X136Y368D02*
X145Y368D01*
X190Y368D02*
X199Y368D01*
X218Y368D02*
X237Y368D01*
X262Y368D02*
X272Y368D01*
X298Y368D02*
X309Y368D01*
X333Y368D02*
X343Y368D01*
X361Y368D02*
X382Y368D01*
X406Y368D02*
X417Y368D01*
X443Y368D02*
X453Y368D01*
X478Y368D02*
X487Y368D01*
X495Y368D02*
X507Y368D01*
X515Y368D02*
X527Y368D01*
X570Y368D02*
X579Y368D01*
X622Y368D02*
X632Y368D01*
X662Y368D02*
X671Y368D01*
X136Y367D02*
X145Y367D01*
X190Y367D02*
X199Y367D01*
X219Y367D02*
X237Y367D01*
X261Y367D02*
X271Y367D01*
X299Y367D02*
X309Y367D01*
X333Y367D02*
X342Y367D01*
X362Y367D02*
X382Y367D01*
X406Y367D02*
X416Y367D01*
X444Y367D02*
X454Y367D01*
X478Y367D02*
X487Y367D01*
X496Y367D02*
X507Y367D01*
X516Y367D02*
X527Y367D01*
X570Y367D02*
X579Y367D01*
X623Y367D02*
X632Y367D01*
X662Y367D02*
X671Y367D01*
X136Y366D02*
X145Y366D01*
X190Y366D02*
X199Y366D01*
X221Y366D02*
X237Y366D01*
X261Y366D02*
X271Y366D01*
X300Y366D02*
X309Y366D01*
X333Y366D02*
X342Y366D01*
X363Y366D02*
X382Y366D01*
X406Y366D02*
X415Y366D01*
X444Y366D02*
X454Y366D01*
X478Y366D02*
X487Y366D01*
X497Y366D02*
X507Y366D01*
X517Y366D02*
X527Y366D01*
X570Y366D02*
X579Y366D01*
X623Y366D02*
X633Y366D01*
X662Y366D02*
X671Y366D01*
X136Y365D02*
X145Y365D01*
X190Y365D02*
X199Y365D01*
X222Y365D02*
X237Y365D01*
X261Y365D02*
X270Y365D01*
X300Y365D02*
X310Y365D01*
X333Y365D02*
X342Y365D01*
X364Y365D02*
X382Y365D01*
X406Y365D02*
X415Y365D01*
X445Y365D02*
X454Y365D01*
X478Y365D02*
X487Y365D01*
X498Y365D02*
X507Y365D01*
X518Y365D02*
X527Y365D01*
X570Y365D02*
X579Y365D01*
X623Y365D02*
X635Y365D01*
X662Y365D02*
X671Y365D01*
X136Y364D02*
X145Y364D01*
X190Y364D02*
X199Y364D01*
X224Y364D02*
X237Y364D01*
X261Y364D02*
X270Y364D01*
X301Y364D02*
X310Y364D01*
X333Y364D02*
X342Y364D01*
X365Y364D02*
X382Y364D01*
X406Y364D02*
X415Y364D01*
X445Y364D02*
X454Y364D01*
X478Y364D02*
X487Y364D01*
X498Y364D02*
X507Y364D01*
X518Y364D02*
X527Y364D01*
X570Y364D02*
X579Y364D01*
X623Y364D02*
X671Y364D01*
X136Y363D02*
X145Y363D01*
X190Y363D02*
X199Y363D01*
X226Y363D02*
X237Y363D01*
X261Y363D02*
X270Y363D01*
X301Y363D02*
X310Y363D01*
X333Y363D02*
X342Y363D01*
X366Y363D02*
X382Y363D01*
X405Y363D02*
X415Y363D01*
X445Y363D02*
X454Y363D01*
X478Y363D02*
X487Y363D01*
X498Y363D02*
X507Y363D01*
X518Y363D02*
X527Y363D01*
X570Y363D02*
X579Y363D01*
X624Y363D02*
X671Y363D01*
X136Y362D02*
X145Y362D01*
X190Y362D02*
X199Y362D01*
X227Y362D02*
X237Y362D01*
X261Y362D02*
X270Y362D01*
X301Y362D02*
X310Y362D01*
X334Y362D02*
X342Y362D01*
X368Y362D02*
X382Y362D01*
X405Y362D02*
X415Y362D01*
X445Y362D02*
X454Y362D01*
X478Y362D02*
X487Y362D01*
X498Y362D02*
X507Y362D01*
X518Y362D02*
X527Y362D01*
X570Y362D02*
X579Y362D01*
X625Y362D02*
X671Y362D01*
X136Y361D02*
X145Y361D01*
X190Y361D02*
X199Y361D01*
X228Y361D02*
X237Y361D01*
X261Y361D02*
X270Y361D01*
X301Y361D02*
X310Y361D01*
X334Y361D02*
X341Y361D01*
X369Y361D02*
X382Y361D01*
X405Y361D02*
X415Y361D01*
X445Y361D02*
X454Y361D01*
X478Y361D02*
X487Y361D01*
X498Y361D02*
X507Y361D01*
X518Y361D02*
X527Y361D01*
X570Y361D02*
X579Y361D01*
X625Y361D02*
X671Y361D01*
X136Y360D02*
X145Y360D01*
X190Y360D02*
X199Y360D01*
X228Y360D02*
X237Y360D01*
X261Y360D02*
X270Y360D01*
X301Y360D02*
X310Y360D01*
X335Y360D02*
X340Y360D01*
X370Y360D02*
X382Y360D01*
X405Y360D02*
X415Y360D01*
X445Y360D02*
X454Y360D01*
X478Y360D02*
X487Y360D01*
X498Y360D02*
X507Y360D01*
X518Y360D02*
X527Y360D01*
X570Y360D02*
X579Y360D01*
X626Y360D02*
X671Y360D01*
X136Y359D02*
X145Y359D01*
X190Y359D02*
X199Y359D01*
X228Y359D02*
X237Y359D01*
X261Y359D02*
X270Y359D01*
X301Y359D02*
X310Y359D01*
X371Y359D02*
X382Y359D01*
X405Y359D02*
X415Y359D01*
X445Y359D02*
X454Y359D01*
X478Y359D02*
X487Y359D01*
X498Y359D02*
X507Y359D01*
X518Y359D02*
X527Y359D01*
X570Y359D02*
X579Y359D01*
X627Y359D02*
X671Y359D01*
X136Y358D02*
X145Y358D01*
X190Y358D02*
X199Y358D01*
X228Y358D02*
X237Y358D01*
X261Y358D02*
X270Y358D01*
X301Y358D02*
X310Y358D01*
X372Y358D02*
X382Y358D01*
X405Y358D02*
X415Y358D01*
X445Y358D02*
X454Y358D01*
X478Y358D02*
X487Y358D01*
X498Y358D02*
X507Y358D01*
X518Y358D02*
X527Y358D01*
X570Y358D02*
X579Y358D01*
X628Y358D02*
X671Y358D01*
X136Y357D02*
X145Y357D01*
X190Y357D02*
X199Y357D01*
X228Y357D02*
X237Y357D01*
X261Y357D02*
X270Y357D01*
X301Y357D02*
X310Y357D01*
X373Y357D02*
X382Y357D01*
X405Y357D02*
X415Y357D01*
X445Y357D02*
X454Y357D01*
X478Y357D02*
X487Y357D01*
X498Y357D02*
X507Y357D01*
X518Y357D02*
X527Y357D01*
X570Y357D02*
X579Y357D01*
X629Y357D02*
X671Y357D01*
X136Y356D02*
X145Y356D01*
X190Y356D02*
X199Y356D01*
X228Y356D02*
X237Y356D01*
X261Y356D02*
X270Y356D01*
X301Y356D02*
X310Y356D01*
X373Y356D02*
X382Y356D01*
X405Y356D02*
X415Y356D01*
X445Y356D02*
X454Y356D01*
X478Y356D02*
X487Y356D01*
X498Y356D02*
X507Y356D01*
X518Y356D02*
X527Y356D01*
X570Y356D02*
X579Y356D01*
X631Y356D02*
X671Y356D01*
X136Y355D02*
X145Y355D01*
X190Y355D02*
X199Y355D01*
X228Y355D02*
X237Y355D01*
X261Y355D02*
X270Y355D01*
X301Y355D02*
X310Y355D01*
X373Y355D02*
X382Y355D01*
X405Y355D02*
X415Y355D01*
X445Y355D02*
X454Y355D01*
X478Y355D02*
X487Y355D01*
X498Y355D02*
X507Y355D01*
X518Y355D02*
X527Y355D01*
X570Y355D02*
X579Y355D01*
X634Y355D02*
X671Y355D01*
X136Y354D02*
X145Y354D01*
X190Y354D02*
X199Y354D01*
X228Y354D02*
X237Y354D01*
X261Y354D02*
X270Y354D01*
X301Y354D02*
X310Y354D01*
X373Y354D02*
X382Y354D01*
X405Y354D02*
X415Y354D01*
X445Y354D02*
X454Y354D01*
X478Y354D02*
X487Y354D01*
X498Y354D02*
X507Y354D01*
X518Y354D02*
X527Y354D01*
X570Y354D02*
X579Y354D01*
X662Y354D02*
X671Y354D01*
X136Y353D02*
X145Y353D01*
X190Y353D02*
X199Y353D01*
X228Y353D02*
X237Y353D01*
X261Y353D02*
X270Y353D01*
X301Y353D02*
X310Y353D01*
X373Y353D02*
X382Y353D01*
X405Y353D02*
X415Y353D01*
X445Y353D02*
X454Y353D01*
X478Y353D02*
X487Y353D01*
X498Y353D02*
X507Y353D01*
X518Y353D02*
X527Y353D01*
X570Y353D02*
X579Y353D01*
X662Y353D02*
X671Y353D01*
X136Y352D02*
X145Y352D01*
X190Y352D02*
X199Y352D01*
X228Y352D02*
X237Y352D01*
X261Y352D02*
X270Y352D01*
X301Y352D02*
X310Y352D01*
X373Y352D02*
X382Y352D01*
X405Y352D02*
X415Y352D01*
X445Y352D02*
X454Y352D01*
X478Y352D02*
X487Y352D01*
X498Y352D02*
X507Y352D01*
X518Y352D02*
X527Y352D01*
X570Y352D02*
X579Y352D01*
X662Y352D02*
X671Y352D01*
X136Y351D02*
X145Y351D01*
X189Y351D02*
X199Y351D01*
X228Y351D02*
X237Y351D01*
X261Y351D02*
X270Y351D01*
X301Y351D02*
X310Y351D01*
X373Y351D02*
X382Y351D01*
X405Y351D02*
X415Y351D01*
X445Y351D02*
X454Y351D01*
X478Y351D02*
X487Y351D01*
X498Y351D02*
X507Y351D01*
X518Y351D02*
X527Y351D01*
X570Y351D02*
X579Y351D01*
X662Y351D02*
X671Y351D01*
X136Y350D02*
X145Y350D01*
X189Y350D02*
X198Y350D01*
X228Y350D02*
X237Y350D01*
X261Y350D02*
X270Y350D01*
X301Y350D02*
X310Y350D01*
X373Y350D02*
X382Y350D01*
X405Y350D02*
X415Y350D01*
X445Y350D02*
X454Y350D01*
X478Y350D02*
X487Y350D01*
X498Y350D02*
X507Y350D01*
X518Y350D02*
X527Y350D01*
X570Y350D02*
X579Y350D01*
X662Y350D02*
X671Y350D01*
X136Y349D02*
X145Y349D01*
X189Y349D02*
X198Y349D01*
X228Y349D02*
X237Y349D01*
X261Y349D02*
X270Y349D01*
X301Y349D02*
X310Y349D01*
X373Y349D02*
X382Y349D01*
X405Y349D02*
X415Y349D01*
X445Y349D02*
X454Y349D01*
X478Y349D02*
X487Y349D01*
X498Y349D02*
X507Y349D01*
X518Y349D02*
X527Y349D01*
X570Y349D02*
X579Y349D01*
X662Y349D02*
X671Y349D01*
X136Y348D02*
X145Y348D01*
X189Y348D02*
X198Y348D01*
X228Y348D02*
X237Y348D01*
X261Y348D02*
X270Y348D01*
X301Y348D02*
X310Y348D01*
X373Y348D02*
X382Y348D01*
X405Y348D02*
X415Y348D01*
X445Y348D02*
X454Y348D01*
X478Y348D02*
X487Y348D01*
X498Y348D02*
X507Y348D01*
X518Y348D02*
X527Y348D01*
X570Y348D02*
X579Y348D01*
X662Y348D02*
X671Y348D01*
X136Y347D02*
X145Y347D01*
X189Y347D02*
X198Y347D01*
X228Y347D02*
X237Y347D01*
X261Y347D02*
X270Y347D01*
X301Y347D02*
X310Y347D01*
X373Y347D02*
X382Y347D01*
X405Y347D02*
X415Y347D01*
X445Y347D02*
X454Y347D01*
X478Y347D02*
X487Y347D01*
X498Y347D02*
X507Y347D01*
X518Y347D02*
X527Y347D01*
X570Y347D02*
X579Y347D01*
X662Y347D02*
X671Y347D01*
X136Y346D02*
X145Y346D01*
X189Y346D02*
X198Y346D01*
X228Y346D02*
X237Y346D01*
X261Y346D02*
X270Y346D01*
X301Y346D02*
X310Y346D01*
X373Y346D02*
X382Y346D01*
X405Y346D02*
X415Y346D01*
X445Y346D02*
X454Y346D01*
X478Y346D02*
X487Y346D01*
X498Y346D02*
X507Y346D01*
X518Y346D02*
X527Y346D01*
X570Y346D02*
X579Y346D01*
X662Y346D02*
X671Y346D01*
X136Y345D02*
X145Y345D01*
X189Y345D02*
X198Y345D01*
X228Y345D02*
X237Y345D01*
X261Y345D02*
X270Y345D01*
X301Y345D02*
X310Y345D01*
X373Y345D02*
X382Y345D01*
X405Y345D02*
X415Y345D01*
X445Y345D02*
X454Y345D01*
X478Y345D02*
X487Y345D01*
X498Y345D02*
X507Y345D01*
X518Y345D02*
X527Y345D01*
X570Y345D02*
X579Y345D01*
X662Y345D02*
X671Y345D01*
X136Y344D02*
X145Y344D01*
X189Y344D02*
X198Y344D01*
X228Y344D02*
X237Y344D01*
X261Y344D02*
X270Y344D01*
X301Y344D02*
X310Y344D01*
X373Y344D02*
X382Y344D01*
X405Y344D02*
X415Y344D01*
X445Y344D02*
X454Y344D01*
X478Y344D02*
X487Y344D01*
X498Y344D02*
X507Y344D01*
X518Y344D02*
X527Y344D01*
X570Y344D02*
X579Y344D01*
X662Y344D02*
X671Y344D01*
X136Y343D02*
X145Y343D01*
X189Y343D02*
X198Y343D01*
X228Y343D02*
X237Y343D01*
X261Y343D02*
X270Y343D01*
X301Y343D02*
X310Y343D01*
X373Y343D02*
X382Y343D01*
X405Y343D02*
X415Y343D01*
X445Y343D02*
X454Y343D01*
X478Y343D02*
X487Y343D01*
X498Y343D02*
X507Y343D01*
X518Y343D02*
X527Y343D01*
X570Y343D02*
X579Y343D01*
X662Y343D02*
X671Y343D01*
X136Y342D02*
X145Y342D01*
X189Y342D02*
X198Y342D01*
X228Y342D02*
X237Y342D01*
X261Y342D02*
X270Y342D01*
X300Y342D02*
X310Y342D01*
X373Y342D02*
X382Y342D01*
X406Y342D02*
X415Y342D01*
X445Y342D02*
X454Y342D01*
X477Y342D02*
X487Y342D01*
X498Y342D02*
X507Y342D01*
X518Y342D02*
X527Y342D01*
X570Y342D02*
X579Y342D01*
X662Y342D02*
X671Y342D01*
X136Y341D02*
X145Y341D01*
X189Y341D02*
X198Y341D01*
X228Y341D02*
X237Y341D01*
X261Y341D02*
X271Y341D01*
X300Y341D02*
X310Y341D01*
X373Y341D02*
X382Y341D01*
X406Y341D02*
X415Y341D01*
X445Y341D02*
X454Y341D01*
X477Y341D02*
X487Y341D01*
X498Y341D02*
X507Y341D01*
X518Y341D02*
X527Y341D01*
X570Y341D02*
X579Y341D01*
X662Y341D02*
X671Y341D01*
X136Y340D02*
X145Y340D01*
X189Y340D02*
X198Y340D01*
X228Y340D02*
X237Y340D01*
X261Y340D02*
X271Y340D01*
X299Y340D02*
X309Y340D01*
X373Y340D02*
X382Y340D01*
X406Y340D02*
X416Y340D01*
X444Y340D02*
X454Y340D01*
X477Y340D02*
X486Y340D01*
X498Y340D02*
X507Y340D01*
X518Y340D02*
X527Y340D01*
X570Y340D02*
X579Y340D01*
X662Y340D02*
X671Y340D01*
X136Y339D02*
X145Y339D01*
X189Y339D02*
X198Y339D01*
X228Y339D02*
X237Y339D01*
X261Y339D02*
X272Y339D01*
X299Y339D02*
X309Y339D01*
X373Y339D02*
X382Y339D01*
X406Y339D02*
X417Y339D01*
X443Y339D02*
X454Y339D01*
X477Y339D02*
X486Y339D01*
X498Y339D02*
X507Y339D01*
X518Y339D02*
X527Y339D01*
X570Y339D02*
X579Y339D01*
X662Y339D02*
X671Y339D01*
X136Y338D02*
X145Y338D01*
X189Y338D02*
X198Y338D01*
X228Y338D02*
X237Y338D01*
X262Y338D02*
X273Y338D01*
X298Y338D02*
X309Y338D01*
X373Y338D02*
X382Y338D01*
X406Y338D02*
X418Y338D01*
X442Y338D02*
X453Y338D01*
X477Y338D02*
X486Y338D01*
X498Y338D02*
X507Y338D01*
X518Y338D02*
X527Y338D01*
X570Y338D02*
X579Y338D01*
X662Y338D02*
X671Y338D01*
X136Y337D02*
X145Y337D01*
X189Y337D02*
X198Y337D01*
X228Y337D02*
X237Y337D01*
X262Y337D02*
X274Y337D01*
X296Y337D02*
X309Y337D01*
X373Y337D02*
X382Y337D01*
X407Y337D02*
X419Y337D01*
X441Y337D02*
X453Y337D01*
X477Y337D02*
X486Y337D01*
X498Y337D02*
X507Y337D01*
X518Y337D02*
X527Y337D01*
X570Y337D02*
X579Y337D01*
X662Y337D02*
X671Y337D01*
X136Y336D02*
X145Y336D01*
X189Y336D02*
X198Y336D01*
X228Y336D02*
X237Y336D01*
X263Y336D02*
X276Y336D01*
X295Y336D02*
X308Y336D01*
X373Y336D02*
X382Y336D01*
X407Y336D02*
X420Y336D01*
X439Y336D02*
X453Y336D01*
X477Y336D02*
X486Y336D01*
X498Y336D02*
X507Y336D01*
X518Y336D02*
X527Y336D01*
X570Y336D02*
X579Y336D01*
X662Y336D02*
X671Y336D01*
X126Y335D02*
X156Y335D01*
X189Y335D02*
X198Y335D01*
X228Y335D02*
X237Y335D01*
X263Y335D02*
X307Y335D01*
X373Y335D02*
X382Y335D01*
X408Y335D02*
X452Y335D01*
X477Y335D02*
X486Y335D01*
X498Y335D02*
X507Y335D01*
X518Y335D02*
X527Y335D01*
X560Y335D02*
X589Y335D01*
X662Y335D02*
X671Y335D01*
X124Y334D02*
X158Y334D01*
X189Y334D02*
X198Y334D01*
X228Y334D02*
X237Y334D01*
X264Y334D02*
X307Y334D01*
X373Y334D02*
X382Y334D01*
X409Y334D02*
X451Y334D01*
X477Y334D02*
X486Y334D01*
X498Y334D02*
X507Y334D01*
X518Y334D02*
X527Y334D01*
X557Y334D02*
X592Y334D01*
X662Y334D02*
X671Y334D01*
X123Y333D02*
X159Y333D01*
X189Y333D02*
X198Y333D01*
X228Y333D02*
X237Y333D01*
X265Y333D02*
X306Y333D01*
X373Y333D02*
X382Y333D01*
X410Y333D02*
X450Y333D01*
X477Y333D02*
X486Y333D01*
X498Y333D02*
X507Y333D01*
X518Y333D02*
X527Y333D01*
X556Y333D02*
X593Y333D01*
X662Y333D02*
X671Y333D01*
X122Y332D02*
X160Y332D01*
X189Y332D02*
X198Y332D01*
X228Y332D02*
X237Y332D01*
X266Y332D02*
X305Y332D01*
X373Y332D02*
X382Y332D01*
X411Y332D02*
X449Y332D01*
X477Y332D02*
X486Y332D01*
X498Y332D02*
X507Y332D01*
X518Y332D02*
X527Y332D01*
X555Y332D02*
X593Y332D01*
X662Y332D02*
X671Y332D01*
X122Y331D02*
X160Y331D01*
X189Y331D02*
X198Y331D01*
X228Y331D02*
X237Y331D01*
X267Y331D02*
X304Y331D01*
X373Y331D02*
X382Y331D01*
X412Y331D02*
X448Y331D01*
X477Y331D02*
X486Y331D01*
X498Y331D02*
X507Y331D01*
X518Y331D02*
X527Y331D01*
X555Y331D02*
X594Y331D01*
X662Y331D02*
X671Y331D01*
X121Y330D02*
X160Y330D01*
X189Y330D02*
X198Y330D01*
X228Y330D02*
X237Y330D01*
X268Y330D02*
X303Y330D01*
X373Y330D02*
X382Y330D01*
X413Y330D02*
X447Y330D01*
X477Y330D02*
X486Y330D01*
X498Y330D02*
X507Y330D01*
X518Y330D02*
X527Y330D01*
X555Y330D02*
X594Y330D01*
X662Y330D02*
X671Y330D01*
X122Y329D02*
X160Y329D01*
X189Y329D02*
X198Y329D01*
X229Y329D02*
X237Y329D01*
X269Y329D02*
X301Y329D01*
X373Y329D02*
X382Y329D01*
X414Y329D02*
X446Y329D01*
X477Y329D02*
X486Y329D01*
X498Y329D02*
X506Y329D01*
X518Y329D02*
X527Y329D01*
X555Y329D02*
X594Y329D01*
X662Y329D02*
X671Y329D01*
X122Y328D02*
X160Y328D01*
X189Y328D02*
X197Y328D01*
X229Y328D02*
X237Y328D01*
X271Y328D02*
X300Y328D01*
X373Y328D02*
X382Y328D01*
X415Y328D02*
X445Y328D01*
X478Y328D02*
X486Y328D01*
X498Y328D02*
X506Y328D01*
X519Y328D02*
X527Y328D01*
X555Y328D02*
X593Y328D01*
X662Y328D02*
X671Y328D01*
X123Y327D02*
X159Y327D01*
X190Y327D02*
X197Y327D01*
X229Y327D02*
X236Y327D01*
X272Y327D02*
X298Y327D01*
X374Y327D02*
X381Y327D01*
X417Y327D02*
X443Y327D01*
X478Y327D02*
X485Y327D01*
X499Y327D02*
X506Y327D01*
X519Y327D02*
X526Y327D01*
X556Y327D02*
X593Y327D01*
X663Y327D02*
X670Y327D01*
X124Y326D02*
X158Y326D01*
X191Y326D02*
X196Y326D01*
X231Y326D02*
X235Y326D01*
X274Y326D02*
X296Y326D01*
X375Y326D02*
X380Y326D01*
X419Y326D02*
X441Y326D01*
X479Y326D02*
X484Y326D01*
X500Y326D02*
X505Y326D01*
X520Y326D02*
X525Y326D01*
X557Y326D02*
X592Y326D01*
X664Y326D02*
X669Y326D01*
X126Y325D02*
X155Y325D01*
X279Y325D02*
X291Y325D01*
X424Y325D02*
X436Y325D01*
X560Y325D02*
X589Y325D01*
X228Y297D02*
X254Y297D01*
X593Y297D02*
X595Y297D01*
X228Y296D02*
X255Y296D01*
X591Y296D02*
X597Y296D01*
X228Y295D02*
X256Y295D01*
X590Y295D02*
X598Y295D01*
X228Y294D02*
X257Y294D01*
X590Y294D02*
X598Y294D01*
X228Y293D02*
X257Y293D01*
X590Y293D02*
X599Y293D01*
X228Y292D02*
X257Y292D01*
X589Y292D02*
X599Y292D01*
X228Y291D02*
X257Y291D01*
X589Y291D02*
X599Y291D01*
X228Y290D02*
X257Y290D01*
X589Y290D02*
X600Y290D01*
X228Y289D02*
X256Y289D01*
X588Y289D02*
X600Y289D01*
X228Y288D02*
X255Y288D01*
X588Y288D02*
X600Y288D01*
X228Y287D02*
X237Y287D01*
X588Y287D02*
X600Y287D01*
X228Y286D02*
X237Y286D01*
X588Y286D02*
X601Y286D01*
X228Y285D02*
X237Y285D01*
X587Y285D02*
X601Y285D01*
X228Y284D02*
X237Y284D01*
X587Y284D02*
X601Y284D01*
X228Y283D02*
X237Y283D01*
X587Y283D02*
X602Y283D01*
X228Y282D02*
X237Y282D01*
X586Y282D02*
X602Y282D01*
X228Y281D02*
X237Y281D01*
X586Y281D02*
X602Y281D01*
X228Y280D02*
X237Y280D01*
X586Y280D02*
X603Y280D01*
X228Y279D02*
X237Y279D01*
X585Y279D02*
X603Y279D01*
X228Y278D02*
X237Y278D01*
X585Y278D02*
X603Y278D01*
X228Y277D02*
X237Y277D01*
X585Y277D02*
X603Y277D01*
X228Y276D02*
X237Y276D01*
X285Y276D02*
X286Y276D01*
X324Y276D02*
X325Y276D01*
X430Y276D02*
X432Y276D01*
X468Y276D02*
X469Y276D01*
X502Y276D02*
X502Y276D01*
X541Y276D02*
X542Y276D01*
X585Y276D02*
X604Y276D01*
X228Y275D02*
X237Y275D01*
X283Y275D02*
X288Y275D01*
X322Y275D02*
X328Y275D01*
X428Y275D02*
X433Y275D01*
X466Y275D02*
X471Y275D01*
X499Y275D02*
X505Y275D01*
X539Y275D02*
X544Y275D01*
X584Y275D02*
X604Y275D01*
X228Y274D02*
X237Y274D01*
X282Y274D02*
X289Y274D01*
X321Y274D02*
X328Y274D01*
X427Y274D02*
X435Y274D01*
X465Y274D02*
X472Y274D01*
X498Y274D02*
X506Y274D01*
X538Y274D02*
X545Y274D01*
X584Y274D02*
X604Y274D01*
X228Y273D02*
X237Y273D01*
X281Y273D02*
X289Y273D01*
X321Y273D02*
X329Y273D01*
X427Y273D02*
X435Y273D01*
X464Y273D02*
X473Y273D01*
X498Y273D02*
X506Y273D01*
X538Y273D02*
X546Y273D01*
X584Y273D02*
X593Y273D01*
X595Y273D02*
X605Y273D01*
X228Y272D02*
X237Y272D01*
X281Y272D02*
X290Y272D01*
X320Y272D02*
X329Y272D01*
X426Y272D02*
X436Y272D01*
X463Y272D02*
X473Y272D01*
X498Y272D02*
X506Y272D01*
X537Y272D02*
X546Y272D01*
X583Y272D02*
X593Y272D01*
X595Y272D02*
X605Y272D01*
X228Y271D02*
X237Y271D01*
X281Y271D02*
X290Y271D01*
X320Y271D02*
X329Y271D01*
X426Y271D02*
X437Y271D01*
X462Y271D02*
X473Y271D01*
X497Y271D02*
X506Y271D01*
X537Y271D02*
X546Y271D01*
X583Y271D02*
X593Y271D01*
X596Y271D02*
X605Y271D01*
X228Y270D02*
X237Y270D01*
X281Y270D02*
X290Y270D01*
X320Y270D02*
X329Y270D01*
X426Y270D02*
X438Y270D01*
X461Y270D02*
X473Y270D01*
X497Y270D02*
X507Y270D01*
X537Y270D02*
X546Y270D01*
X583Y270D02*
X592Y270D01*
X596Y270D02*
X605Y270D01*
X228Y269D02*
X237Y269D01*
X281Y269D02*
X290Y269D01*
X320Y269D02*
X329Y269D01*
X427Y269D02*
X439Y269D01*
X461Y269D02*
X472Y269D01*
X497Y269D02*
X507Y269D01*
X537Y269D02*
X546Y269D01*
X583Y269D02*
X592Y269D01*
X596Y269D02*
X606Y269D01*
X228Y268D02*
X237Y268D01*
X281Y268D02*
X290Y268D01*
X320Y268D02*
X329Y268D01*
X427Y268D02*
X439Y268D01*
X460Y268D02*
X472Y268D01*
X497Y268D02*
X507Y268D01*
X537Y268D02*
X546Y268D01*
X582Y268D02*
X592Y268D01*
X596Y268D02*
X606Y268D01*
X228Y267D02*
X237Y267D01*
X281Y267D02*
X290Y267D01*
X320Y267D02*
X329Y267D01*
X428Y267D02*
X440Y267D01*
X459Y267D02*
X471Y267D01*
X497Y267D02*
X507Y267D01*
X537Y267D02*
X546Y267D01*
X582Y267D02*
X592Y267D01*
X597Y267D02*
X606Y267D01*
X228Y266D02*
X237Y266D01*
X281Y266D02*
X290Y266D01*
X320Y266D02*
X329Y266D01*
X429Y266D02*
X441Y266D01*
X458Y266D02*
X470Y266D01*
X497Y266D02*
X507Y266D01*
X537Y266D02*
X546Y266D01*
X582Y266D02*
X591Y266D01*
X597Y266D02*
X607Y266D01*
X228Y265D02*
X237Y265D01*
X281Y265D02*
X290Y265D01*
X320Y265D02*
X329Y265D01*
X430Y265D02*
X442Y265D01*
X457Y265D02*
X469Y265D01*
X497Y265D02*
X507Y265D01*
X537Y265D02*
X546Y265D01*
X581Y265D02*
X591Y265D01*
X597Y265D02*
X607Y265D01*
X228Y264D02*
X237Y264D01*
X281Y264D02*
X290Y264D01*
X320Y264D02*
X329Y264D01*
X431Y264D02*
X443Y264D01*
X456Y264D02*
X469Y264D01*
X497Y264D02*
X507Y264D01*
X537Y264D02*
X546Y264D01*
X581Y264D02*
X591Y264D01*
X598Y264D02*
X607Y264D01*
X228Y263D02*
X237Y263D01*
X281Y263D02*
X290Y263D01*
X320Y263D02*
X329Y263D01*
X432Y263D02*
X444Y263D01*
X456Y263D02*
X468Y263D01*
X497Y263D02*
X507Y263D01*
X537Y263D02*
X546Y263D01*
X581Y263D02*
X590Y263D01*
X598Y263D02*
X607Y263D01*
X228Y262D02*
X237Y262D01*
X281Y262D02*
X290Y262D01*
X320Y262D02*
X329Y262D01*
X432Y262D02*
X444Y262D01*
X455Y262D02*
X467Y262D01*
X497Y262D02*
X507Y262D01*
X537Y262D02*
X546Y262D01*
X581Y262D02*
X590Y262D01*
X598Y262D02*
X608Y262D01*
X228Y261D02*
X237Y261D01*
X281Y261D02*
X291Y261D01*
X319Y261D02*
X329Y261D01*
X433Y261D02*
X445Y261D01*
X454Y261D02*
X466Y261D01*
X497Y261D02*
X507Y261D01*
X537Y261D02*
X546Y261D01*
X580Y261D02*
X590Y261D01*
X599Y261D02*
X608Y261D01*
X228Y260D02*
X237Y260D01*
X281Y260D02*
X291Y260D01*
X319Y260D02*
X329Y260D01*
X434Y260D02*
X446Y260D01*
X453Y260D02*
X465Y260D01*
X497Y260D02*
X507Y260D01*
X537Y260D02*
X546Y260D01*
X580Y260D02*
X589Y260D01*
X599Y260D02*
X608Y260D01*
X228Y259D02*
X237Y259D01*
X282Y259D02*
X292Y259D01*
X318Y259D02*
X328Y259D01*
X435Y259D02*
X447Y259D01*
X452Y259D02*
X464Y259D01*
X497Y259D02*
X507Y259D01*
X537Y259D02*
X546Y259D01*
X580Y259D02*
X589Y259D01*
X599Y259D02*
X609Y259D01*
X228Y258D02*
X237Y258D01*
X282Y258D02*
X292Y258D01*
X318Y258D02*
X328Y258D01*
X436Y258D02*
X448Y258D01*
X451Y258D02*
X464Y258D01*
X497Y258D02*
X507Y258D01*
X537Y258D02*
X546Y258D01*
X579Y258D02*
X589Y258D01*
X599Y258D02*
X609Y258D01*
X228Y257D02*
X237Y257D01*
X283Y257D02*
X293Y257D01*
X317Y257D02*
X327Y257D01*
X437Y257D02*
X449Y257D01*
X451Y257D02*
X463Y257D01*
X497Y257D02*
X507Y257D01*
X537Y257D02*
X546Y257D01*
X579Y257D02*
X589Y257D01*
X600Y257D02*
X609Y257D01*
X228Y256D02*
X237Y256D01*
X283Y256D02*
X293Y256D01*
X317Y256D02*
X327Y256D01*
X437Y256D02*
X462Y256D01*
X497Y256D02*
X507Y256D01*
X537Y256D02*
X546Y256D01*
X579Y256D02*
X588Y256D01*
X600Y256D02*
X610Y256D01*
X228Y255D02*
X237Y255D01*
X284Y255D02*
X294Y255D01*
X317Y255D02*
X327Y255D01*
X438Y255D02*
X461Y255D01*
X497Y255D02*
X507Y255D01*
X537Y255D02*
X546Y255D01*
X578Y255D02*
X588Y255D01*
X600Y255D02*
X610Y255D01*
X211Y254D02*
X215Y254D01*
X228Y254D02*
X237Y254D01*
X284Y254D02*
X294Y254D01*
X316Y254D02*
X326Y254D01*
X439Y254D02*
X460Y254D01*
X497Y254D02*
X507Y254D01*
X537Y254D02*
X546Y254D01*
X578Y254D02*
X588Y254D01*
X601Y254D02*
X610Y254D01*
X210Y253D02*
X216Y253D01*
X228Y253D02*
X237Y253D01*
X284Y253D02*
X294Y253D01*
X316Y253D02*
X326Y253D01*
X440Y253D02*
X459Y253D01*
X497Y253D02*
X507Y253D01*
X537Y253D02*
X546Y253D01*
X578Y253D02*
X587Y253D01*
X601Y253D02*
X610Y253D01*
X209Y252D02*
X217Y252D01*
X228Y252D02*
X237Y252D01*
X285Y252D02*
X295Y252D01*
X315Y252D02*
X325Y252D01*
X441Y252D02*
X459Y252D01*
X497Y252D02*
X507Y252D01*
X537Y252D02*
X546Y252D01*
X578Y252D02*
X587Y252D01*
X601Y252D02*
X611Y252D01*
X209Y251D02*
X217Y251D01*
X228Y251D02*
X237Y251D01*
X285Y251D02*
X295Y251D01*
X315Y251D02*
X325Y251D01*
X441Y251D02*
X458Y251D01*
X497Y251D02*
X507Y251D01*
X536Y251D02*
X546Y251D01*
X577Y251D02*
X587Y251D01*
X601Y251D02*
X611Y251D01*
X208Y250D02*
X217Y250D01*
X228Y250D02*
X237Y250D01*
X286Y250D02*
X296Y250D01*
X314Y250D02*
X324Y250D01*
X442Y250D02*
X457Y250D01*
X497Y250D02*
X507Y250D01*
X536Y250D02*
X546Y250D01*
X577Y250D02*
X587Y250D01*
X602Y250D02*
X611Y250D01*
X208Y249D02*
X217Y249D01*
X228Y249D02*
X237Y249D01*
X286Y249D02*
X296Y249D01*
X314Y249D02*
X324Y249D01*
X443Y249D02*
X456Y249D01*
X497Y249D02*
X507Y249D01*
X536Y249D02*
X545Y249D01*
X577Y249D02*
X586Y249D01*
X602Y249D02*
X612Y249D01*
X208Y248D02*
X217Y248D01*
X228Y248D02*
X237Y248D01*
X287Y248D02*
X297Y248D01*
X314Y248D02*
X324Y248D01*
X443Y248D02*
X456Y248D01*
X497Y248D02*
X507Y248D01*
X536Y248D02*
X545Y248D01*
X576Y248D02*
X586Y248D01*
X602Y248D02*
X612Y248D01*
X208Y247D02*
X217Y247D01*
X228Y247D02*
X237Y247D01*
X287Y247D02*
X297Y247D01*
X313Y247D02*
X323Y247D01*
X442Y247D02*
X457Y247D01*
X497Y247D02*
X507Y247D01*
X536Y247D02*
X545Y247D01*
X576Y247D02*
X586Y247D01*
X603Y247D02*
X612Y247D01*
X208Y246D02*
X217Y246D01*
X228Y246D02*
X237Y246D01*
X288Y246D02*
X298Y246D01*
X313Y246D02*
X323Y246D01*
X441Y246D02*
X458Y246D01*
X497Y246D02*
X507Y246D01*
X536Y246D02*
X545Y246D01*
X576Y246D02*
X612Y246D01*
X208Y245D02*
X217Y245D01*
X228Y245D02*
X237Y245D01*
X288Y245D02*
X298Y245D01*
X312Y245D02*
X322Y245D01*
X441Y245D02*
X459Y245D01*
X497Y245D02*
X507Y245D01*
X536Y245D02*
X545Y245D01*
X576Y245D02*
X613Y245D01*
X208Y244D02*
X217Y244D01*
X228Y244D02*
X237Y244D01*
X288Y244D02*
X298Y244D01*
X312Y244D02*
X322Y244D01*
X440Y244D02*
X459Y244D01*
X497Y244D02*
X507Y244D01*
X536Y244D02*
X545Y244D01*
X575Y244D02*
X613Y244D01*
X208Y243D02*
X217Y243D01*
X228Y243D02*
X237Y243D01*
X289Y243D02*
X299Y243D01*
X311Y243D02*
X321Y243D01*
X439Y243D02*
X460Y243D01*
X497Y243D02*
X507Y243D01*
X536Y243D02*
X545Y243D01*
X575Y243D02*
X613Y243D01*
X208Y242D02*
X217Y242D01*
X228Y242D02*
X237Y242D01*
X289Y242D02*
X299Y242D01*
X311Y242D02*
X321Y242D01*
X438Y242D02*
X461Y242D01*
X497Y242D02*
X507Y242D01*
X536Y242D02*
X545Y242D01*
X575Y242D02*
X614Y242D01*
X208Y241D02*
X217Y241D01*
X228Y241D02*
X237Y241D01*
X290Y241D02*
X300Y241D01*
X310Y241D02*
X320Y241D01*
X437Y241D02*
X462Y241D01*
X497Y241D02*
X507Y241D01*
X536Y241D02*
X545Y241D01*
X574Y241D02*
X614Y241D01*
X208Y240D02*
X217Y240D01*
X228Y240D02*
X237Y240D01*
X290Y240D02*
X300Y240D01*
X310Y240D02*
X320Y240D01*
X436Y240D02*
X463Y240D01*
X497Y240D02*
X507Y240D01*
X536Y240D02*
X545Y240D01*
X574Y240D02*
X614Y240D01*
X208Y239D02*
X217Y239D01*
X228Y239D02*
X237Y239D01*
X291Y239D02*
X301Y239D01*
X310Y239D02*
X320Y239D01*
X436Y239D02*
X448Y239D01*
X451Y239D02*
X464Y239D01*
X497Y239D02*
X508Y239D01*
X536Y239D02*
X545Y239D01*
X574Y239D02*
X615Y239D01*
X208Y238D02*
X217Y238D01*
X228Y238D02*
X237Y238D01*
X291Y238D02*
X301Y238D01*
X309Y238D02*
X319Y238D01*
X435Y238D02*
X447Y238D01*
X452Y238D02*
X464Y238D01*
X497Y238D02*
X510Y238D01*
X536Y238D02*
X545Y238D01*
X574Y238D02*
X615Y238D01*
X208Y237D02*
X217Y237D01*
X228Y237D02*
X237Y237D01*
X291Y237D02*
X301Y237D01*
X309Y237D02*
X319Y237D01*
X434Y237D02*
X446Y237D01*
X453Y237D02*
X465Y237D01*
X497Y237D02*
X511Y237D01*
X536Y237D02*
X545Y237D01*
X573Y237D02*
X615Y237D01*
X208Y236D02*
X217Y236D01*
X228Y236D02*
X237Y236D01*
X292Y236D02*
X302Y236D01*
X308Y236D02*
X318Y236D01*
X433Y236D02*
X445Y236D01*
X454Y236D02*
X466Y236D01*
X497Y236D02*
X513Y236D01*
X536Y236D02*
X545Y236D01*
X573Y236D02*
X582Y236D01*
X606Y236D02*
X615Y236D01*
X208Y235D02*
X217Y235D01*
X228Y235D02*
X237Y235D01*
X292Y235D02*
X302Y235D01*
X308Y235D02*
X318Y235D01*
X432Y235D02*
X445Y235D01*
X455Y235D02*
X467Y235D01*
X497Y235D02*
X514Y235D01*
X536Y235D02*
X545Y235D01*
X573Y235D02*
X582Y235D01*
X606Y235D02*
X616Y235D01*
X208Y234D02*
X217Y234D01*
X228Y234D02*
X237Y234D01*
X293Y234D02*
X303Y234D01*
X307Y234D02*
X317Y234D01*
X431Y234D02*
X444Y234D01*
X455Y234D02*
X468Y234D01*
X497Y234D02*
X516Y234D01*
X536Y234D02*
X545Y234D01*
X572Y234D02*
X582Y234D01*
X606Y234D02*
X616Y234D01*
X208Y233D02*
X217Y233D01*
X228Y233D02*
X237Y233D01*
X293Y233D02*
X303Y233D01*
X307Y233D02*
X317Y233D01*
X431Y233D02*
X443Y233D01*
X456Y233D02*
X469Y233D01*
X497Y233D02*
X517Y233D01*
X536Y233D02*
X545Y233D01*
X572Y233D02*
X581Y233D01*
X607Y233D02*
X616Y233D01*
X208Y232D02*
X217Y232D01*
X228Y232D02*
X237Y232D01*
X294Y232D02*
X304Y232D01*
X307Y232D02*
X317Y232D01*
X430Y232D02*
X442Y232D01*
X457Y232D02*
X469Y232D01*
X497Y232D02*
X519Y232D01*
X535Y232D02*
X545Y232D01*
X572Y232D02*
X581Y232D01*
X607Y232D02*
X617Y232D01*
X208Y231D02*
X217Y231D01*
X228Y231D02*
X237Y231D01*
X294Y231D02*
X304Y231D01*
X306Y231D02*
X316Y231D01*
X429Y231D02*
X441Y231D01*
X458Y231D02*
X470Y231D01*
X497Y231D02*
X521Y231D01*
X534Y231D02*
X545Y231D01*
X571Y231D02*
X581Y231D01*
X607Y231D02*
X617Y231D01*
X208Y230D02*
X217Y230D01*
X228Y230D02*
X237Y230D01*
X295Y230D02*
X316Y230D01*
X428Y230D02*
X440Y230D01*
X459Y230D02*
X471Y230D01*
X497Y230D02*
X522Y230D01*
X533Y230D02*
X544Y230D01*
X571Y230D02*
X581Y230D01*
X608Y230D02*
X617Y230D01*
X208Y229D02*
X254Y229D01*
X295Y229D02*
X315Y229D01*
X427Y229D02*
X440Y229D01*
X460Y229D02*
X472Y229D01*
X497Y229D02*
X544Y229D01*
X571Y229D02*
X580Y229D01*
X608Y229D02*
X617Y229D01*
X208Y228D02*
X256Y228D01*
X295Y228D02*
X315Y228D01*
X427Y228D02*
X439Y228D01*
X460Y228D02*
X473Y228D01*
X497Y228D02*
X544Y228D01*
X571Y228D02*
X580Y228D01*
X608Y228D02*
X618Y228D01*
X208Y227D02*
X256Y227D01*
X296Y227D02*
X314Y227D01*
X426Y227D02*
X438Y227D01*
X461Y227D02*
X473Y227D01*
X497Y227D02*
X507Y227D01*
X509Y227D02*
X543Y227D01*
X570Y227D02*
X580Y227D01*
X609Y227D02*
X618Y227D01*
X208Y226D02*
X257Y226D01*
X296Y226D02*
X314Y226D01*
X425Y226D02*
X437Y226D01*
X462Y226D02*
X474Y226D01*
X497Y226D02*
X507Y226D01*
X511Y226D02*
X542Y226D01*
X570Y226D02*
X579Y226D01*
X609Y226D02*
X618Y226D01*
X208Y225D02*
X257Y225D01*
X297Y225D02*
X313Y225D01*
X425Y225D02*
X436Y225D01*
X463Y225D02*
X474Y225D01*
X497Y225D02*
X507Y225D01*
X512Y225D02*
X542Y225D01*
X570Y225D02*
X579Y225D01*
X609Y225D02*
X619Y225D01*
X208Y224D02*
X257Y224D01*
X297Y224D02*
X313Y224D01*
X425Y224D02*
X435Y224D01*
X464Y224D02*
X474Y224D01*
X498Y224D02*
X506Y224D01*
X514Y224D02*
X541Y224D01*
X570Y224D02*
X579Y224D01*
X609Y224D02*
X619Y224D01*
X209Y223D02*
X257Y223D01*
X298Y223D02*
X313Y223D01*
X425Y223D02*
X435Y223D01*
X465Y223D02*
X474Y223D01*
X498Y223D02*
X506Y223D01*
X515Y223D02*
X540Y223D01*
X570Y223D02*
X579Y223D01*
X610Y223D02*
X618Y223D01*
X209Y222D02*
X256Y222D01*
X298Y222D02*
X312Y222D01*
X426Y222D02*
X434Y222D01*
X465Y222D02*
X473Y222D01*
X498Y222D02*
X506Y222D01*
X517Y222D02*
X538Y222D01*
X570Y222D02*
X578Y222D01*
X610Y222D02*
X618Y222D01*
X210Y221D02*
X256Y221D01*
X299Y221D02*
X311Y221D01*
X427Y221D02*
X433Y221D01*
X466Y221D02*
X472Y221D01*
X499Y221D02*
X505Y221D01*
X519Y221D02*
X537Y221D01*
X571Y221D02*
X577Y221D01*
X611Y221D02*
X617Y221D01*
X211Y220D02*
X254Y220D01*
X300Y220D02*
X310Y220D01*
X428Y220D02*
X432Y220D01*
X468Y220D02*
X471Y220D01*
X500Y220D02*
X504Y220D01*
X521Y220D02*
X534Y220D01*
X573Y220D02*
X576Y220D01*
X612Y220D02*
X616Y220D01*
D02*
G04 End of Silk0*
M02*