; NON-PLATED HOLES START AT T1
; THROUGH (PLATED) HOLES START AT T100
M48
INCH
T1C0.125984
T100C0.039370
T101C0.038000
%
T1
X007363Y011259
X002863Y011259
T100
X004363Y007759
X003363Y007759
X005863Y008759
X006363Y007759
X003863Y008759
X006863Y008759
X004863Y008759
X005363Y007759
T101
X001795Y000955
X008795Y000955
X003796Y000955
X006796Y000955
X005796Y000955
X000795Y000955
X007796Y000955
X009795Y000955
X004795Y000954
X002796Y000955
T00
M30
