G04 MADE WITH FRITZING*
G04 WWW.FRITZING.ORG*
G04 DOUBLE SIDED*
G04 HOLES PLATED*
G04 CONTOUR ON CENTER OF CONTOUR VECTOR*
%ASAXBY*%
%FSLAX23Y23*%
%MOIN*%
%OFA0B0*%
%SFA1.0B1.0*%
%ADD10C,0.084000*%
%ADD11C,0.135984*%
%ADD12C,0.088000*%
%ADD13R,0.001000X0.001000*%
%LNMASK0*%
G90*
G70*
G54D10*
X336Y776D03*
X386Y876D03*
X436Y776D03*
X536Y776D03*
X636Y776D03*
X486Y876D03*
X586Y876D03*
X686Y876D03*
G54D11*
X736Y1126D03*
X286Y1126D03*
G54D12*
X780Y96D03*
X680Y96D03*
X580Y96D03*
X480Y95D03*
X380Y96D03*
X280Y96D03*
X180Y96D03*
X80Y96D03*
X980Y96D03*
X880Y96D03*
G54D13*
X645Y917D02*
X728Y917D01*
X645Y916D02*
X728Y916D01*
X645Y915D02*
X728Y915D01*
X645Y914D02*
X728Y914D01*
X645Y913D02*
X728Y913D01*
X645Y912D02*
X728Y912D01*
X645Y911D02*
X728Y911D01*
X645Y910D02*
X728Y910D01*
X645Y909D02*
X728Y909D01*
X645Y908D02*
X728Y908D01*
X645Y907D02*
X728Y907D01*
X645Y906D02*
X728Y906D01*
X645Y905D02*
X728Y905D01*
X645Y904D02*
X728Y904D01*
X645Y903D02*
X728Y903D01*
X645Y902D02*
X728Y902D01*
X645Y901D02*
X728Y901D01*
X645Y900D02*
X728Y900D01*
X645Y899D02*
X728Y899D01*
X645Y898D02*
X728Y898D01*
X645Y897D02*
X728Y897D01*
X645Y896D02*
X728Y896D01*
X645Y895D02*
X728Y895D01*
X645Y894D02*
X728Y894D01*
X645Y893D02*
X728Y893D01*
X645Y892D02*
X728Y892D01*
X645Y891D02*
X728Y891D01*
X645Y890D02*
X682Y890D01*
X691Y890D02*
X728Y890D01*
X645Y889D02*
X679Y889D01*
X693Y889D02*
X728Y889D01*
X645Y888D02*
X677Y888D01*
X695Y888D02*
X728Y888D01*
X645Y887D02*
X676Y887D01*
X696Y887D02*
X728Y887D01*
X645Y886D02*
X675Y886D01*
X697Y886D02*
X728Y886D01*
X645Y885D02*
X674Y885D01*
X698Y885D02*
X728Y885D01*
X645Y884D02*
X673Y884D01*
X699Y884D02*
X728Y884D01*
X645Y883D02*
X673Y883D01*
X699Y883D02*
X728Y883D01*
X645Y882D02*
X672Y882D01*
X700Y882D02*
X728Y882D01*
X645Y881D02*
X672Y881D01*
X700Y881D02*
X728Y881D01*
X645Y880D02*
X672Y880D01*
X701Y880D02*
X728Y880D01*
X645Y879D02*
X671Y879D01*
X701Y879D02*
X728Y879D01*
X645Y878D02*
X671Y878D01*
X701Y878D02*
X728Y878D01*
X645Y877D02*
X671Y877D01*
X701Y877D02*
X728Y877D01*
X645Y876D02*
X671Y876D01*
X701Y876D02*
X728Y876D01*
X645Y875D02*
X671Y875D01*
X701Y875D02*
X728Y875D01*
X645Y874D02*
X671Y874D01*
X701Y874D02*
X728Y874D01*
X645Y873D02*
X671Y873D01*
X701Y873D02*
X728Y873D01*
X645Y872D02*
X672Y872D01*
X701Y872D02*
X728Y872D01*
X645Y871D02*
X672Y871D01*
X701Y871D02*
X728Y871D01*
X645Y870D02*
X672Y870D01*
X700Y870D02*
X728Y870D01*
X645Y869D02*
X673Y869D01*
X700Y869D02*
X728Y869D01*
X645Y868D02*
X673Y868D01*
X699Y868D02*
X728Y868D01*
X645Y867D02*
X674Y867D01*
X698Y867D02*
X728Y867D01*
X645Y866D02*
X675Y866D01*
X697Y866D02*
X728Y866D01*
X645Y865D02*
X676Y865D01*
X696Y865D02*
X728Y865D01*
X645Y864D02*
X677Y864D01*
X695Y864D02*
X728Y864D01*
X645Y863D02*
X679Y863D01*
X694Y863D02*
X728Y863D01*
X645Y862D02*
X681Y862D01*
X692Y862D02*
X728Y862D01*
X645Y861D02*
X728Y861D01*
X645Y860D02*
X728Y860D01*
X645Y859D02*
X728Y859D01*
X645Y858D02*
X728Y858D01*
X645Y857D02*
X728Y857D01*
X645Y856D02*
X728Y856D01*
X645Y855D02*
X728Y855D01*
X645Y854D02*
X728Y854D01*
X645Y853D02*
X728Y853D01*
X645Y852D02*
X728Y852D01*
X645Y851D02*
X728Y851D01*
X645Y850D02*
X728Y850D01*
X645Y849D02*
X728Y849D01*
X645Y848D02*
X728Y848D01*
X645Y847D02*
X728Y847D01*
X645Y846D02*
X728Y846D01*
X645Y845D02*
X728Y845D01*
X645Y844D02*
X728Y844D01*
X645Y843D02*
X728Y843D01*
X645Y842D02*
X728Y842D01*
X645Y841D02*
X728Y841D01*
X645Y840D02*
X728Y840D01*
X645Y839D02*
X728Y839D01*
X645Y838D02*
X728Y838D01*
X645Y837D02*
X728Y837D01*
X645Y836D02*
X728Y836D01*
X645Y835D02*
X728Y835D01*
X645Y834D02*
X727Y834D01*
D02*
G04 End of Mask0*
M02*