; NON-PLATED HOLES START AT T1
; THROUGH (PLATED) HOLES START AT T100
M48
INCH
T1C0.125984
T100C0.015748
T101C0.039370
T102C0.038000
T103C0.031496
T104C0.035000
T105C0.036111
T106C0.042000
%
T1
X001368Y018368
X005868Y018368
T100
X006320Y013845
X011440Y009044
X011120Y013365
X004400Y013685
X009633Y010555
X015440Y007444
T101
X002036Y000622
X004868Y014868
X005368Y015868
X003868Y014868
X002368Y015868
X003368Y015868
X002868Y014868
X004368Y015868
X001868Y014868
X005230Y000618
T102
X016874Y014205
X013875Y014205
X009875Y014205
X002875Y012205
X000875Y000715
X011874Y014205
X008875Y014205
X006393Y000715
X014875Y014205
X003875Y012205
X005390Y009805
X015874Y014205
X012875Y014205
X006393Y009805
X000875Y009805
X010875Y014205
X001878Y009805
X007875Y014205
T103
X003571Y000665
X002783Y000663
X004362Y000658
T104
X001530Y008679
X005530Y008679
T105
X017106Y010630
X017106Y003630
X017106Y004630
X008106Y009630
X008106Y008630
X017106Y005630
X008106Y006630
X017106Y009630
X017106Y008630
X008106Y010630
X017106Y006630
X017106Y007630
X008106Y005630
X008106Y003630
X008106Y007630
X008106Y004630
T106
X002141Y006210
X005160Y007600
X002180Y007600
X005121Y006210
T00
M30
