; NON-PLATED HOLES START AT T1
; THROUGH (PLATED) HOLES START AT T100
M48
INCH
T1C0.125984
T100C0.015748
T101C0.036111
T102C0.038000
T103C0.039370
T104C0.031496
T105C0.035000
T106C0.042000
%
T1
X001690Y020390
X006190Y020390
T100
X016080Y010853
T101
X017079Y009776
X017079Y003776
X017079Y007776
X017079Y005776
X008080Y005776
X017079Y006776
X008080Y010776
X008080Y009776
X017079Y004776
X008080Y006776
X008080Y007776
X017079Y008776
X017079Y010776
X008080Y008776
X008080Y003776
X008080Y004776
T102
X000848Y000861
X006366Y000861
X000848Y009951
X003848Y012351
X014746Y014485
X005363Y009951
X006366Y009951
X012746Y014485
X010750Y014485
X001851Y009951
X013746Y014485
X011746Y014485
X002848Y012351
T103
X005190Y016890
X005121Y000621
X002690Y017890
X001928Y000624
X003190Y016890
X002190Y016890
X003690Y017890
X004690Y017890
X005690Y017890
X004190Y016890
T104
X004254Y000660
X003462Y000667
X002674Y000665
T105
X005504Y008825
X001504Y008825
T106
X005133Y007746
X002153Y007746
X002114Y006356
X005094Y006356
T00
M30
