G04 MADE WITH FRITZING*
G04 WWW.FRITZING.ORG*
G04 DOUBLE SIDED*
G04 HOLES PLATED*
G04 CONTOUR ON CENTER OF CONTOUR VECTOR*
%ASAXBY*%
%FSLAX23Y23*%
%MOIN*%
%OFA0B0*%
%SFA1.0B1.0*%
%ADD10C,0.074000*%
%ADD11C,0.078000*%
%ADD12C,0.077778*%
%ADD13C,0.075000*%
%ADD14C,0.082000*%
%ADD15C,0.039370*%
%ADD16C,0.062992*%
%ADD17C,0.055118*%
%ADD18R,0.082000X0.082000*%
%ADD19R,0.078000X0.078000*%
%ADD20C,0.016000*%
%ADD21R,0.001000X0.001000*%
%LNCOPPER1*%
G90*
G70*
G54D10*
X219Y1689D03*
X269Y1789D03*
X319Y1689D03*
X419Y1689D03*
X519Y1689D03*
X369Y1789D03*
X469Y1789D03*
X569Y1789D03*
G54D11*
X85Y86D03*
X637Y86D03*
X85Y995D03*
X185Y995D03*
X536Y995D03*
X637Y995D03*
G54D12*
X808Y1078D03*
X808Y978D03*
X808Y878D03*
X808Y778D03*
X808Y678D03*
X808Y578D03*
X808Y478D03*
X808Y378D03*
X1708Y378D03*
X1708Y478D03*
X1708Y578D03*
X1708Y678D03*
X1708Y778D03*
X1708Y878D03*
X1708Y978D03*
X1708Y1078D03*
G54D13*
X150Y883D03*
X550Y883D03*
X150Y883D03*
X550Y883D03*
G54D14*
X513Y775D03*
X215Y775D03*
X513Y775D03*
X215Y775D03*
X509Y636D03*
X211Y636D03*
X509Y636D03*
X211Y636D03*
G54D11*
X385Y1235D03*
X285Y1235D03*
X1075Y1449D03*
X1175Y1449D03*
X1275Y1449D03*
X1375Y1449D03*
X1475Y1449D03*
G54D15*
X1608Y1085D03*
G54D16*
X512Y62D03*
X193Y62D03*
G54D17*
X425Y66D03*
X346Y67D03*
X267Y67D03*
G54D18*
X514Y775D03*
X514Y775D03*
X510Y636D03*
X510Y636D03*
G54D19*
X385Y1235D03*
G54D20*
X89Y105D02*
X207Y615D01*
D02*
X567Y889D02*
X791Y971D01*
D02*
X196Y783D02*
X88Y829D01*
X88Y829D02*
X85Y976D01*
D02*
X513Y754D02*
X510Y657D01*
D02*
X1690Y377D02*
X744Y317D01*
X744Y317D02*
X522Y619D01*
D02*
X1695Y890D02*
X1288Y1277D01*
X1288Y1277D02*
X1276Y1430D01*
D02*
X1605Y1093D02*
X1481Y1431D01*
D02*
X1695Y790D02*
X1208Y1261D01*
X1208Y1261D02*
X1178Y1430D01*
D02*
X231Y1674D02*
X280Y1613D01*
X280Y1613D02*
X1016Y1613D01*
X1016Y1613D02*
X1161Y1462D01*
G54D21*
X533Y1826D02*
X606Y1826D01*
X533Y1825D02*
X606Y1825D01*
X533Y1824D02*
X606Y1824D01*
X533Y1823D02*
X606Y1823D01*
X533Y1822D02*
X606Y1822D01*
X533Y1821D02*
X606Y1821D01*
X533Y1820D02*
X606Y1820D01*
X533Y1819D02*
X606Y1819D01*
X533Y1818D02*
X606Y1818D01*
X533Y1817D02*
X606Y1817D01*
X533Y1816D02*
X606Y1816D01*
X533Y1815D02*
X606Y1815D01*
X533Y1814D02*
X606Y1814D01*
X533Y1813D02*
X606Y1813D01*
X533Y1812D02*
X606Y1812D01*
X533Y1811D02*
X606Y1811D01*
X533Y1810D02*
X606Y1810D01*
X533Y1809D02*
X606Y1809D01*
X533Y1808D02*
X563Y1808D01*
X575Y1808D02*
X606Y1808D01*
X533Y1807D02*
X560Y1807D01*
X578Y1807D02*
X606Y1807D01*
X533Y1806D02*
X559Y1806D01*
X580Y1806D02*
X606Y1806D01*
X533Y1805D02*
X557Y1805D01*
X582Y1805D02*
X606Y1805D01*
X533Y1804D02*
X556Y1804D01*
X583Y1804D02*
X606Y1804D01*
X533Y1803D02*
X555Y1803D01*
X584Y1803D02*
X606Y1803D01*
X533Y1802D02*
X554Y1802D01*
X585Y1802D02*
X606Y1802D01*
X533Y1801D02*
X553Y1801D01*
X586Y1801D02*
X606Y1801D01*
X533Y1800D02*
X552Y1800D01*
X586Y1800D02*
X606Y1800D01*
X533Y1799D02*
X552Y1799D01*
X587Y1799D02*
X606Y1799D01*
X533Y1798D02*
X551Y1798D01*
X587Y1798D02*
X606Y1798D01*
X533Y1797D02*
X551Y1797D01*
X588Y1797D02*
X606Y1797D01*
X533Y1796D02*
X550Y1796D01*
X588Y1796D02*
X606Y1796D01*
X533Y1795D02*
X550Y1795D01*
X589Y1795D02*
X606Y1795D01*
X533Y1794D02*
X550Y1794D01*
X589Y1794D02*
X606Y1794D01*
X533Y1793D02*
X550Y1793D01*
X589Y1793D02*
X606Y1793D01*
X533Y1792D02*
X549Y1792D01*
X589Y1792D02*
X606Y1792D01*
X533Y1791D02*
X549Y1791D01*
X589Y1791D02*
X606Y1791D01*
X533Y1790D02*
X549Y1790D01*
X589Y1790D02*
X606Y1790D01*
X533Y1789D02*
X549Y1789D01*
X589Y1789D02*
X606Y1789D01*
X533Y1788D02*
X549Y1788D01*
X589Y1788D02*
X606Y1788D01*
X533Y1787D02*
X549Y1787D01*
X589Y1787D02*
X606Y1787D01*
X533Y1786D02*
X549Y1786D01*
X589Y1786D02*
X606Y1786D01*
X533Y1785D02*
X550Y1785D01*
X589Y1785D02*
X606Y1785D01*
X533Y1784D02*
X550Y1784D01*
X589Y1784D02*
X606Y1784D01*
X533Y1783D02*
X550Y1783D01*
X588Y1783D02*
X606Y1783D01*
X533Y1782D02*
X551Y1782D01*
X588Y1782D02*
X606Y1782D01*
X533Y1781D02*
X551Y1781D01*
X588Y1781D02*
X606Y1781D01*
X533Y1780D02*
X552Y1780D01*
X587Y1780D02*
X606Y1780D01*
X533Y1779D02*
X552Y1779D01*
X587Y1779D02*
X606Y1779D01*
X533Y1778D02*
X553Y1778D01*
X586Y1778D02*
X606Y1778D01*
X533Y1777D02*
X554Y1777D01*
X585Y1777D02*
X606Y1777D01*
X533Y1776D02*
X554Y1776D01*
X584Y1776D02*
X606Y1776D01*
X533Y1775D02*
X555Y1775D01*
X583Y1775D02*
X606Y1775D01*
X533Y1774D02*
X557Y1774D01*
X582Y1774D02*
X606Y1774D01*
X533Y1773D02*
X558Y1773D01*
X581Y1773D02*
X606Y1773D01*
X533Y1772D02*
X560Y1772D01*
X579Y1772D02*
X606Y1772D01*
X533Y1771D02*
X562Y1771D01*
X577Y1771D02*
X606Y1771D01*
X533Y1770D02*
X565Y1770D01*
X574Y1770D02*
X606Y1770D01*
X533Y1769D02*
X606Y1769D01*
X533Y1768D02*
X606Y1768D01*
X533Y1767D02*
X606Y1767D01*
X533Y1766D02*
X606Y1766D01*
X533Y1765D02*
X606Y1765D01*
X533Y1764D02*
X606Y1764D01*
X533Y1763D02*
X606Y1763D01*
X533Y1762D02*
X606Y1762D01*
X533Y1761D02*
X606Y1761D01*
X533Y1760D02*
X606Y1760D01*
X533Y1759D02*
X606Y1759D01*
X533Y1758D02*
X606Y1758D01*
X533Y1757D02*
X606Y1757D01*
X533Y1756D02*
X606Y1756D01*
X533Y1755D02*
X606Y1755D01*
X533Y1754D02*
X606Y1754D01*
X533Y1753D02*
X606Y1753D01*
D02*
G04 End of Copper1*
M02*